<svg xmlns="http://www.w3.org/2000/svg" viewBox="0 0 500 500"><g id="freepik--Floor--inject-239"><ellipse cx="250" cy="337.01" rx="237.16" ry="142" style="fill:#f5f5f5"></ellipse></g><g id="freepik--Window--inject-239"><path d="M58.15,326.41V171.54l-6.3-3.63V321A5.5,5.5,0,0,0,58.15,326.41Z" style="fill:#ebebeb"></path><polygon points="54.67 325.77 61.15 329.43 61.15 318.01 54.67 325.77" style="fill:#ebebeb"></polygon><path d="M282.34,32V195.42a16.82,16.82,0,0,1-8.4,14.54L66.4,329.3a5.5,5.5,0,0,1-8.25-4.76V161.08a16.78,16.78,0,0,1,8.4-14.54L274.09,27.2A5.5,5.5,0,0,1,282.34,32Z" style="fill:#fafafa"></path><path d="M276.83,27.45h0A4.52,4.52,0,0,1,281.34,32V195.42a15.83,15.83,0,0,1-7.9,13.67L65.9,328.43a4.42,4.42,0,0,1-2.24.61,4.51,4.51,0,0,1-4.51-4.5V161.08a15.83,15.83,0,0,1,7.9-13.67L274.59,28.06a4.46,4.46,0,0,1,2.24-.61m0-1a5.44,5.44,0,0,0-2.74.75L66.55,146.54a16.78,16.78,0,0,0-8.4,14.54V324.54a5.5,5.5,0,0,0,8.25,4.76L273.94,210a16.82,16.82,0,0,0,8.4-14.54V32a5.51,5.51,0,0,0-5.51-5.51Z" style="fill:#e0e0e0"></path><path d="M273.45,23.74a5.44,5.44,0,0,0-5.66-.11L60.25,143a16.79,16.79,0,0,0-8.4,14.54v10.4l6.3,3.63L276,45.75V30.92l3.66-3.66-6.24-3.53Z" style="fill:#BA68C8"></path><path d="M282.34,32V42.11L58.15,171.54V161.08a16.78,16.78,0,0,1,8.4-14.54L274.09,27.2A5.5,5.5,0,0,1,282.34,32Z" style="fill:#BA68C8"></path><path d="M282.34,32V42.11L58.15,171.54V161.08a16.78,16.78,0,0,1,8.4-14.54L274.09,27.2A5.5,5.5,0,0,1,282.34,32Z" style="fill:#fff;opacity:0.5;mix-blend-mode:overlay"></path><path d="M54,149.28a16.72,16.72,0,0,0-2.17,8.23v10.4l6.3,3.63V161.08a16.73,16.73,0,0,1,2.14-8.19Z" style="opacity:0.2"></path><path d="M164.26,246.11a9.32,9.32,0,0,1-4.68-1.2c-3.36-1.95-5.22-6-5.22-11.41,0-10.91,7.69-24.23,17.15-29.69,4.68-2.71,9.12-3.12,12.48-1.18s5.23,6,5.23,11.4c0,10.92-7.69,24.24-17.15,29.7A15.89,15.89,0,0,1,164.26,246.11Zm15.06-43.55a14.82,14.82,0,0,0-7.25,2.23c-9.14,5.28-16.57,18.16-16.57,28.71,0,5,1.65,8.69,4.65,10.43s7,1.31,11.36-1.18c9.14-5.28,16.57-18.16,16.57-28.72,0-5-1.65-8.69-4.65-10.42A8.16,8.16,0,0,0,179.32,202.56Z" style="fill:#455a64"></path><path d="M171.79,248.51a.58.58,0,0,1-.57-.57V196a.57.57,0,1,1,1.14,0v52A.58.58,0,0,1,171.79,248.51Z" style="fill:#BA68C8"></path><path d="M148.82,237.71a.58.58,0,0,1-.49-.28.57.57,0,0,1,.21-.77L191.25,212a.55.55,0,0,1,.77.21.56.56,0,0,1-.21.77L149.1,237.64A.53.53,0,0,1,148.82,237.71Z" style="fill:#BA68C8"></path><path d="M151.8,239.38a.6.6,0,0,1-.28-.08l-3.47-2,3.17-5.49a.56.56,0,1,1,1,.56l-2.6,4.51,2.49,1.44a.57.57,0,0,1,.2.78A.55.55,0,0,1,151.8,239.38Z" style="fill:#BA68C8"></path><path d="M168.85,201.69a.6.6,0,0,1-.28-.08.57.57,0,0,1-.21-.77l3.27-5.66,3.38,1.95a.57.57,0,0,1-.57,1l-2.4-1.38-2.69,4.67A.59.59,0,0,1,168.85,201.69Z" style="fill:#BA68C8"></path><path d="M216.32,183.39l-8.22,4.75c-.54.31-1,0-1-.74v-9.14a2.34,2.34,0,0,1,1-1.87l8.22-4.75c.54-.31,1,0,1,.74v9.15A2.33,2.33,0,0,1,216.32,183.39Z" style="fill:#BA68C8"></path><path d="M231.9,174.26,223.67,179c-.53.31-1,0-1-.74v-9.14a2.36,2.36,0,0,1,1-1.87l8.23-4.75c.54-.31,1,0,1,.74v9.15A2.32,2.32,0,0,1,231.9,174.26Z" style="fill:#BA68C8"></path><path d="M216.32,200.89l-8.22,4.75c-.54.31-1,0-1-.74v-9.15a2.33,2.33,0,0,1,1-1.86l8.22-4.75c.54-.31,1,0,1,.74V199A2.34,2.34,0,0,1,216.32,200.89Z" style="fill:#BA68C8"></path><path d="M231.9,191.76l-8.23,4.75c-.53.31-1,0-1-.74v-9.15a2.34,2.34,0,0,1,1-1.86L231.9,180c.54-.31,1,0,1,.74v9.14A2.34,2.34,0,0,1,231.9,191.76Z" style="fill:#BA68C8"></path><path d="M216.32,218.38l-8.22,4.75c-.54.31-1,0-1-.74v-9.14a2.34,2.34,0,0,1,1-1.87l8.22-4.75c.54-.31,1,0,1,.74v9.15A2.33,2.33,0,0,1,216.32,218.38Z" style="fill:#BA68C8"></path><path d="M231.9,209.25,223.67,214c-.53.31-1,0-1-.73v-9.15a2.36,2.36,0,0,1,1-1.87l8.23-4.75c.54-.31,1,0,1,.74v9.15A2.32,2.32,0,0,1,231.9,209.25Z" style="fill:#BA68C8"></path><path d="M247.48,165.13l-8.23,4.75c-.54.31-1,0-1-.73V160a2.34,2.34,0,0,1,1-1.87l8.23-4.74c.53-.32,1,0,1,.73v9.15A2.34,2.34,0,0,1,247.48,165.13Z" style="fill:#BA68C8"></path><path d="M247.48,182.63l-8.23,4.75c-.54.31-1,0-1-.74v-9.15a2.32,2.32,0,0,1,1-1.86l8.23-4.75c.53-.31,1,0,1,.74v9.15A2.36,2.36,0,0,1,247.48,182.63Z" style="fill:#BA68C8"></path><path d="M247.48,200.13l-8.23,4.74c-.54.31-1,0-1-.73V195a2.34,2.34,0,0,1,1-1.87l8.23-4.74c.53-.32,1,0,1,.73v9.15A2.38,2.38,0,0,1,247.48,200.13Z" style="fill:#BA68C8"></path><path d="M263.05,156l-8.22,4.74c-.54.31-1,0-1-.73v-9.15a2.36,2.36,0,0,1,1-1.87l8.22-4.74c.54-.32,1,0,1,.73v9.15A2.36,2.36,0,0,1,263.05,156Z" style="fill:#BA68C8"></path><path d="M263.05,173.5l-8.22,4.75c-.54.31-1,0-1-.74v-9.15a2.34,2.34,0,0,1,1-1.86l8.22-4.75c.54-.31,1,0,1,.74v9.15A2.33,2.33,0,0,1,263.05,173.5Z" style="fill:#BA68C8"></path><path d="M216.32,200.89l-8.22,4.75c-.54.31-1,0-1-.74v-9.15a2.33,2.33,0,0,1,1-1.86l8.22-4.75c.54-.31,1,0,1,.74V199A2.34,2.34,0,0,1,216.32,200.89Z" style="opacity:0.2"></path><path d="M231.9,191.76l-8.23,4.75c-.53.31-1,0-1-.74v-9.15a2.34,2.34,0,0,1,1-1.86L231.9,180c.54-.31,1,0,1,.74v9.14A2.34,2.34,0,0,1,231.9,191.76Z" style="opacity:0.2"></path><path d="M247.48,182.63l-8.23,4.75c-.54.31-1,0-1-.74v-9.15a2.32,2.32,0,0,1,1-1.86l8.23-4.75c.53-.31,1,0,1,.74v9.15A2.36,2.36,0,0,1,247.48,182.63Z" style="opacity:0.2"></path><path d="M263.05,173.5l-8.22,4.75c-.54.31-1,0-1-.74v-9.15a2.34,2.34,0,0,1,1-1.86l8.22-4.75c.54-.31,1,0,1,.74v9.15A2.33,2.33,0,0,1,263.05,173.5Z" style="opacity:0.2"></path><path d="M263.05,191l-8.22,4.74c-.54.32-1,0-1-.73v-9.15a2.36,2.36,0,0,1,1-1.87l8.22-4.74c.54-.31,1,0,1,.73v9.15A2.36,2.36,0,0,1,263.05,191Z" style="fill:#BA68C8"></path><path d="M216.32,218.38l-8.22,4.75c-.54.31-1,0-1-.74v-9.14a2.34,2.34,0,0,1,1-1.87l8.22-4.75c.54-.31,1,0,1,.74v9.15A2.33,2.33,0,0,1,216.32,218.38Z" style="opacity:0.30000000000000004"></path><path d="M231.9,209.25,223.67,214c-.53.31-1,0-1-.73v-9.15a2.36,2.36,0,0,1,1-1.87l8.23-4.75c.54-.31,1,0,1,.74v9.15A2.32,2.32,0,0,1,231.9,209.25Z" style="opacity:0.30000000000000004"></path><path d="M247.48,200.13l-8.23,4.74c-.54.31-1,0-1-.73V195a2.34,2.34,0,0,1,1-1.87l8.23-4.74c.53-.32,1,0,1,.73v9.15A2.38,2.38,0,0,1,247.48,200.13Z" style="opacity:0.30000000000000004"></path><path d="M263.05,191l-8.22,4.74c-.54.32-1,0-1-.73v-9.15a2.36,2.36,0,0,1,1-1.87l8.22-4.74c.54-.31,1,0,1,.73v9.15A2.36,2.36,0,0,1,263.05,191Z" style="opacity:0.30000000000000004"></path><path d="M121.93,212.17,81.69,235.41c-2.64,1.52-4.78-.1-4.78-3.61V187c0-3.52,2.14-7.6,4.78-9.12l40.24-23.24c2.64-1.52,4.78.09,4.78,3.61v44.77C126.71,206.56,124.57,210.65,121.93,212.17Z" style="fill:#455a64"></path><polygon points="109.62 181.21 88.53 193.38 94 184.51 115.09 172.34 109.62 181.21" style="fill:#BA68C8"></polygon><polygon points="109.62 181.21 88.53 193.38 94 184.51 115.09 172.34 109.62 181.21" style="fill:#fff;opacity:0.2"></polygon><polygon points="109.62 205.56 88.53 217.74 88.53 193.38 109.62 181.21 109.62 205.56" style="fill:#BA68C8"></polygon><polygon points="109.62 181.21 115.09 172.34 115.09 196.69 109.62 205.56 109.62 181.21" style="fill:#BA68C8"></polygon><polygon points="109.62 181.21 115.09 172.34 115.09 196.69 109.62 205.56 109.62 181.21" style="opacity:0.2"></polygon><path d="M190.18,172.77,149.94,196c-2.64,1.52-4.78-.09-4.78-3.61V147.63c0-3.52,2.14-7.6,4.78-9.13l40.24-23.23c2.64-1.53,4.78.09,4.78,3.61v44.76C195,167.16,192.82,171.24,190.18,172.77Z" style="fill:#455a64"></path><polygon points="177.87 141.8 156.78 153.98 162.25 145.11 183.34 132.94 177.87 141.8" style="fill:#BA68C8"></polygon><polygon points="177.87 166.16 156.78 178.33 156.78 153.98 177.87 141.8 177.87 166.16" style="fill:#BA68C8"></polygon><polygon points="177.87 141.8 183.34 132.94 183.34 157.29 177.87 166.16 177.87 141.8" style="fill:#BA68C8"></polygon><polygon points="177.87 141.8 183.34 132.94 183.34 157.29 177.87 166.16 177.87 141.8" style="opacity:0.2"></polygon><polygon points="156.78 153.98 162.25 145.11 162.25 169.46 156.78 178.33 156.78 153.98" style="opacity:0.2"></polygon><polygon points="177.87 166.16 156.78 178.33 162.25 169.46 183.34 157.29 177.87 166.16" style="opacity:0.30000000000000004"></polygon><polygon points="177.87 141.8 156.78 153.98 162.25 145.11 183.34 132.94 177.87 141.8" style="fill:#fff;opacity:0.2"></polygon><path d="M258.43,133.36,218.19,156.6c-2.64,1.52-4.78-.1-4.78-3.61V108.22c0-3.51,2.14-7.6,4.78-9.12l40.24-23.24c2.64-1.52,4.78.1,4.78,3.61v44.77C263.21,127.75,261.07,131.84,258.43,133.36Z" style="fill:#455a64"></path><path d="M225,115a.39.39,0,0,1-.3-.13.41.41,0,0,1,0-.5l5.47-8.87a.38.38,0,0,1,.14-.14l21.09-12.18a.42.42,0,0,1,.56.58l-5.47,8.87a.62.62,0,0,1-.14.14l-21.09,12.17A.42.42,0,0,1,225,115Zm5.76-9-4.55,7.4,19.58-11.31,4.56-7.4Zm15.33-3.61h0Z" style="fill:#BA68C8"></path><path d="M225,139.34a.54.54,0,0,1-.21-.05.43.43,0,0,1-.2-.36V114.58a.42.42,0,0,1,.2-.36L245.91,102a.45.45,0,0,1,.42,0,.43.43,0,0,1,.2.36v24.35a.42.42,0,0,1-.2.36l-21.09,12.18A.54.54,0,0,1,225,139.34Zm.41-24.53v23.41l20.27-11.7V103.11Zm20.68,11.94h0Z" style="fill:#BA68C8"></path><path d="M230.5,130.47a.54.54,0,0,1-.21-.05.41.41,0,0,1-.2-.36V105.71a.4.4,0,0,1,.2-.36l21.09-12.18a.43.43,0,0,1,.41,0,.42.42,0,0,1,.21.36v24.35a.41.41,0,0,1-.21.36L230.7,130.42A.46.46,0,0,1,230.5,130.47Zm.41-24.52v23.4l20.27-11.7V94.24Zm20.68,11.93h0Z" style="fill:#BA68C8"></path><path d="M246.12,127.16H246a.41.41,0,0,1-.3-.4V102.4a.43.43,0,0,1,.06-.22l5.47-8.86a.39.39,0,0,1,.46-.18.41.41,0,0,1,.3.39v24.35a.43.43,0,0,1-.06.22L246.47,127A.42.42,0,0,1,246.12,127.16Zm.41-24.64V125.3l4.65-7.53V95Z" style="fill:#BA68C8"></path><path d="M225,139.34a.46.46,0,0,1-.22-.06.42.42,0,0,1-.13-.57l5.47-8.87a.41.41,0,0,1,.7.44l-5.47,8.87A.42.42,0,0,1,225,139.34Z" style="fill:#BA68C8"></path><path d="M121.93,238.19,81.69,261.43c-2.64,1.52-4.78-.09-4.78-3.61h0c0-3.51,2.14-7.6,4.78-9.12l40.24-23.24c2.64-1.52,4.78.1,4.78,3.61h0C126.71,232.59,124.57,236.67,121.93,238.19Z" style="fill:#BA68C8"></path><path d="M121.93,256.75,81.69,280c-2.64,1.52-4.78-.1-4.78-3.61h0c0-3.52,2.14-7.6,4.78-9.12L121.93,244c2.64-1.52,4.78.09,4.78,3.61h0C126.71,251.15,124.57,255.23,121.93,256.75Z" style="fill:#BA68C8"></path><path d="M121.93,275.31,81.69,298.55c-2.64,1.52-4.78-.1-4.78-3.61h0c0-3.52,2.14-7.6,4.78-9.13l40.24-23.23c2.64-1.53,4.78.09,4.78,3.61h0C126.71,269.7,124.57,273.79,121.93,275.31Z" style="fill:#BA68C8"></path></g><g id="freepik--Objects--inject-239"><path d="M402.83,384.63H376.46v27.93h0c0,1.95,1.29,3.9,3.86,5.39,5.15,3,13.5,3,18.65,0,2.57-1.49,3.86-3.44,3.86-5.39h0Z" style="fill:#BA68C8"></path><path d="M402.83,384.63H376.46v27.93h0c0,1.95,1.29,3.9,3.86,5.39,5.15,3,13.5,3,18.65,0,2.57-1.49,3.86-3.44,3.86-5.39h0Z" style="opacity:0.4"></path><ellipse cx="389.64" cy="384.65" rx="13.18" ry="7.61" style="fill:#BA68C8"></ellipse><path d="M413,370.55H366.28v10.58h0c0,3.45,2.28,6.9,6.84,9.54,9.13,5.27,23.92,5.27,33.05,0,4.56-2.64,6.84-6.09,6.84-9.54h0Z" style="fill:#BA68C8"></path><path d="M413,370.55H366.28v10.58h0c0,3.45,2.28,6.9,6.84,9.54,9.13,5.27,23.92,5.27,33.05,0,4.56-2.64,6.84-6.09,6.84-9.54h0Z" style="opacity:0.2"></path><path d="M406.17,380.12c-9.13,5.27-23.92,5.27-33.05,0s-9.13-13.81,0-19.08,23.92-5.27,33.05,0S415.3,374.85,406.17,380.12Z" style="fill:#BA68C8"></path><path d="M402.83,338.39H376.46v27.94h0c0,1.94,1.29,3.89,3.86,5.38,5.15,3,13.5,3,18.65,0,2.57-1.49,3.86-3.43,3.86-5.38h0Z" style="fill:#BA68C8"></path><path d="M402.83,338.39H376.46v27.94h0c0,1.94,1.29,3.89,3.86,5.38,5.15,3,13.5,3,18.65,0,2.57-1.49,3.86-3.43,3.86-5.38h0Z" style="opacity:0.2"></path><ellipse cx="389.64" cy="338.41" rx="13.18" ry="7.61" style="fill:#BA68C8"></ellipse><polygon points="342.14 455.39 308.04 435.7 308.04 402.08 325.09 392.35 342.14 421.76 342.14 455.39" style="fill:#BA68C8"></polygon><polygon points="342.14 455.39 308.04 435.7 308.04 402.08 325.09 392.35 342.14 421.76 342.14 455.39" style="fill:#fff;opacity:0.2"></polygon><polygon points="342.14 421.76 325.09 392.35 347.62 379.33 364.67 408.75 342.14 421.76" style="fill:#BA68C8"></polygon><polygon points="342.14 455.39 342.14 421.76 364.67 408.75 364.67 442.38 342.14 455.39" style="fill:#BA68C8"></polygon><polygon points="342.14 455.39 342.14 421.76 364.67 408.75 364.67 442.38 342.14 455.39" style="opacity:0.2"></polygon></g><g id="freepik--3d-model--inject-239"><polygon points="248.26 356.59 168.17 278.93 181.85 224.63 261.94 302.29 248.26 356.59" style="fill:#BA68C8"></polygon><polygon points="346.75 278.15 261.94 302.29 248.26 356.59 333.07 332.45 346.75 278.15" style="fill:#BA68C8"></polygon><polygon points="346.75 278.15 261.94 302.29 248.26 356.59 333.07 332.45 346.75 278.15" style="opacity:0.2"></polygon><polygon points="266.66 200.5 181.85 224.63 261.94 302.29 346.75 278.15 266.66 200.5" style="fill:#BA68C8"></polygon><polygon points="266.66 200.5 181.85 224.63 261.94 302.29 346.75 278.15 266.66 200.5" style="fill:#fff;opacity:0.2"></polygon><path d="M310.69,225.87l-75.15-18.93L227,241h0c-1.4,5.55.87,12,7.14,18.11,12.54,12.17,36.33,18.16,53.14,13.38,8.4-2.38,13.47-7,14.86-12.56h0Z" style="fill:#BA68C8"></path><path d="M310.69,225.87l-75.15-18.93L227,241h0c-1.4,5.55.87,12,7.14,18.11,12.54,12.17,36.33,18.16,53.14,13.38,8.4-2.38,13.47-7,14.86-12.56h0Z" style="opacity:0.2"></path><ellipse cx="273.1" cy="216.47" rx="22.37" ry="38.74" transform="translate(-3.52 428.41) rotate(-75.86)" style="fill:#BA68C8"></ellipse></g></svg>