<svg xmlns="http://www.w3.org/2000/svg" viewBox="0 0 500 500"><g id="freepik--Graphics--inject-72"><g style="opacity:0.2"><rect x="293.41" y="48.5" width="150.59" height="18.41" rx="7.34" style="fill:none;stroke:#000;stroke-linejoin:round"></rect><line x1="420.78" y1="52.75" x2="420.78" y2="61.36" style="fill:none;stroke:#000;stroke-linejoin:round;stroke-width:0.5px"></line><line x1="414.09" y1="52.83" x2="406.02" y2="60.9" style="fill:none;stroke:#000;stroke-linejoin:round"></line><line x1="406.02" y1="52.83" x2="414.09" y2="60.9" style="fill:none;stroke:#000;stroke-linejoin:round"></line><path d="M434.88,61.13h0a.68.68,0,0,1-1,.08l-3.31-3,.63-.75,3.55,2.72A.68.68,0,0,1,434.88,61.13Z" style="fill:#263238;stroke:#000;stroke-linejoin:round"></path><path d="M426.38,54.07a3.12,3.12,0,1,0,4.4-.42A3.11,3.11,0,0,0,426.38,54.07Zm4.47,3.69a2.67,2.67,0,1,1-.36-3.76A2.67,2.67,0,0,1,430.85,57.76Z" style="fill:none;stroke:#000;stroke-linejoin:round"></path></g><path d="M154.28,81.79a3.58,3.58,0,0,1-5.12.41L133,67.5a16.11,16.11,0,0,0,1.87-1.91,14.47,14.47,0,0,0,1.52-2.18l17.33,13.27A3.58,3.58,0,0,1,154.28,81.79Z" style="fill:none;stroke:#ccc;stroke-linejoin:round"></path><path d="M132.63,42.52a16,16,0,0,1,4.59,5.89,16.43,16.43,0,1,1-30.9,2.53,16.32,16.32,0,0,1,26.31-8.42ZM133,64.08a14.06,14.06,0,1,1-1.86-19.8A14.05,14.05,0,0,1,133,64.08Z" style="fill:none;stroke:#ccc;stroke-linejoin:round"></path><path d="M391.45,444a2.88,2.88,0,0,1,.21-4.13l13.43-11.37a12.5,12.5,0,0,0,1.33,1.69,12,12,0,0,0,1.58,1.45L395.59,444.1A2.87,2.87,0,0,1,391.45,444Z" style="fill:none;stroke:#ccc;stroke-linejoin:round"></path><path d="M425.09,430.84a13,13,0,0,1-5.19,3,13.56,13.56,0,1,1,5.19-3Zm-17.27-1.94a11.33,11.33,0,1,1,16,.59A11.32,11.32,0,0,1,407.82,428.9Z" style="fill:none;stroke:#ccc;stroke-linejoin:round"></path><g style="opacity:0.2"><line x1="89.74" y1="406.74" x2="66.8" y2="429.69" style="fill:none;stroke:#000;stroke-linejoin:round"></line><line x1="66.8" y1="406.74" x2="89.74" y2="429.69" style="fill:none;stroke:#000;stroke-linejoin:round"></line></g><g style="opacity:0.2"><line x1="472.74" y1="190.74" x2="449.8" y2="213.69" style="fill:none;stroke:#000;stroke-linejoin:round"></line><line x1="449.8" y1="190.74" x2="472.74" y2="213.69" style="fill:none;stroke:#000;stroke-linejoin:round"></line></g><g style="opacity:0.2"><line x1="53.74" y1="59.74" x2="30.8" y2="82.69" style="fill:none;stroke:#000;stroke-linejoin:round"></line><line x1="30.8" y1="59.74" x2="53.74" y2="82.69" style="fill:none;stroke:#000;stroke-linejoin:round"></line></g></g><g id="freepik--Window--inject-72"><rect x="74.53" y="101.25" width="358.67" height="288.19" style="fill:#fff;stroke:#263238;stroke-linejoin:round"></rect><path d="M386.53,352.47H341.79a4.4,4.4,0,0,1-4.4-4.4V296.8" style="fill:#fff;stroke:#263238;stroke-linejoin:round"></path><path d="M414.73,246.29V348.07a4.41,4.41,0,0,1-4.41,4.4h-19.4" style="fill:#fff;stroke:#263238;stroke-linejoin:round"></path><path d="M337.39,293.35V215.67a4.39,4.39,0,0,1,4.4-4.39h68.53a4.4,4.4,0,0,1,4.41,4.39v27.8" style="fill:#fff;stroke:#263238;stroke-linejoin:round"></path><path d="M414.73,215.67V239.4H337.39V215.67a4.39,4.39,0,0,1,4.4-4.39h68.53A4.4,4.4,0,0,1,414.73,215.67Z" style="fill:#fff;stroke:#263238;stroke-linejoin:round"></path><rect x="74.53" y="101.25" width="358.67" height="97.58" style="fill:#fff;stroke:#263238;stroke-linejoin:round"></rect><circle cx="404.44" cy="167.46" r="8.45" transform="translate(-28.33 101.71) rotate(-13.85)" style="fill:#d9d9d9;stroke:#263238;stroke-linejoin:round"></circle><circle cx="379.02" cy="162.82" r="1.13" style="fill:#263238"></circle><path d="M384.57,162.82a1.13,1.13,0,1,0-1.13,1.13A1.14,1.14,0,0,0,384.57,162.82Z" style="fill:#263238"></path><path d="M389,162.82a1.13,1.13,0,1,0-1.13,1.13A1.14,1.14,0,0,0,389,162.82Z" style="fill:#263238"></path><path d="M380.14,167.42a1.13,1.13,0,1,0-1.12,1.13A1.13,1.13,0,0,0,380.14,167.42Z" style="fill:#263238"></path><path d="M384.57,167.42a1.13,1.13,0,1,0-1.13,1.13A1.14,1.14,0,0,0,384.57,167.42Z" style="fill:#263238"></path><path d="M389,167.42a1.13,1.13,0,1,0-1.13,1.13A1.14,1.14,0,0,0,389,167.42Z" style="fill:#263238"></path><path d="M380.14,172a1.13,1.13,0,1,0-1.12,1.13A1.13,1.13,0,0,0,380.14,172Z" style="fill:#263238"></path><path d="M384.57,172a1.13,1.13,0,1,0-1.13,1.13A1.14,1.14,0,0,0,384.57,172Z" style="fill:#263238"></path><path d="M389,172a1.13,1.13,0,1,0-1.13,1.13A1.14,1.14,0,0,0,389,172Z" style="fill:#263238"></path><path d="M325.88,170.83a12.78,12.78,0,0,1-12.16,8.85H197.38" style="fill:#fff;stroke:#263238;stroke-linejoin:round"></path><path d="M223,154.15h90.75a12.76,12.76,0,0,1,12.77,12.76" style="fill:#fff;stroke:#263238;stroke-linejoin:round"></path><path d="M191,179.68H130.41a12.76,12.76,0,0,1-12.76-12.77h0a12.76,12.76,0,0,1,12.76-12.76h88.13" style="fill:#fff;stroke:#263238;stroke-linejoin:round"></path><line x1="294.29" y1="160.04" x2="294.29" y2="171.98" style="fill:none;stroke:#263238;stroke-linejoin:round;stroke-width:0.5px"></line><line x1="285.01" y1="160.15" x2="273.81" y2="171.35" style="fill:none;stroke:#263238;stroke-linejoin:round"></line><line x1="273.81" y1="160.15" x2="285.01" y2="171.35" style="fill:none;stroke:#263238;stroke-linejoin:round"></line><path d="M131,170.19h-1.21l-1.09-7.93h.86l.93,6.75.89-6.74h.87l.87,6.75.9-6.76h.77l-1.08,7.93H132.5l-.75-5.38Z" style="fill:#263238"></path><path d="M138.29,165.77v.8h-1.94v2.82h2.38v.8h-3.26v-7.93h3.26v.8h-2.38v2.71Z" style="fill:#263238"></path><path d="M141.33,162.26c1.23,0,1.72.59,1.72,1.76v.37c0,.84-.24,1.36-.93,1.58.77.21,1.06.82,1.06,1.69v.67a1.63,1.63,0,0,1-1.81,1.86h-1.82v-7.93Zm-.22,3.37c.7,0,1.07-.23,1.07-1.06v-.46c0-.71-.24-1.05-.88-1.05h-.87v2.57Zm.26,3.76c.65,0,.94-.34.94-1.08v-.7c0-.89-.35-1.18-1.11-1.18h-.77v3Z" style="fill:#263238"></path><path d="M149.18,164.16v.22h-.84v-.26c0-.72-.27-1.14-.9-1.14s-.91.42-.91,1.13c0,1.78,2.66,1.95,2.66,4.18,0,1.2-.58,2-1.79,2s-1.78-.78-1.78-2v-.46h.83v.5c0,.72.29,1.14.93,1.14s.93-.42.93-1.14c0-1.76-2.65-1.93-2.65-4.17,0-1.22.56-2,1.75-2S149.18,163,149.18,164.16Z" style="fill:#263238"></path><path d="M152.79,165.77v.8h-1.94v2.82h2.38v.8H150v-7.93h3.27v.8h-2.38v2.71Z" style="fill:#263238"></path><path d="M154.94,168.59l-.3,1.6h-.82l1.52-7.93h1.28l1.52,7.93h-.89l-.3-1.6Zm.11-.76h1.77l-.89-4.57Z" style="fill:#263238"></path><path d="M160.6,162.26c1.24,0,1.76.63,1.76,1.81v.65c0,.87-.3,1.42-1,1.63.72.22,1,.8,1,1.65v1.24a2.07,2.07,0,0,0,.15.95h-.89a2.1,2.1,0,0,1-.15-1V168c0-.89-.42-1.18-1.15-1.18h-.63v3.39h-.88v-7.93Zm-.23,3.74c.7,0,1.12-.23,1.12-1.09v-.76c0-.71-.26-1.09-.92-1.09h-.86V166Z" style="fill:#263238"></path><path d="M166.8,164.17v.72H166v-.76c0-.71-.28-1.15-.93-1.15s-.93.44-.93,1.15v4.19c0,.72.3,1.15.93,1.15s.93-.43.93-1.15v-1h.84v1c0,1.2-.57,2-1.79,2s-1.78-.79-1.78-2v-4.11c0-1.2.56-2,1.78-2S166.8,163,166.8,164.17Z" style="fill:#263238"></path><path d="M168.49,166.62v3.57h-.89v-7.93h.89v3.57h1.95v-3.57h.88v7.93h-.88v-3.57Z" style="fill:#263238"></path><path d="M313.85,171.66h0a1,1,0,0,1-1.35.11l-4.59-4.18.87-1.05,4.92,3.77A1,1,0,0,1,313.85,171.66Z" style="fill:#263238;stroke:#263238;stroke-linejoin:round"></path><path d="M302.06,161.87a4.33,4.33,0,1,0,6.1-.58A4.32,4.32,0,0,0,302.06,161.87Zm6.19,5.12a3.7,3.7,0,1,1-.49-5.22A3.7,3.7,0,0,1,308.25,167Z" style="fill:#263238;stroke:#263238;stroke-linejoin:round"></path><rect x="422.25" y="101.25" width="10.94" height="288.19" style="fill:#d9d9d9;stroke:#263238;stroke-linejoin:round"></rect><rect x="422.25" y="158.71" width="10.94" height="28.27" style="fill:#8f8f8f;stroke:#263238;stroke-linejoin:round"></rect><rect x="74.53" y="101.25" width="358.67" height="33.74" style="fill:#92E3A9;stroke:#263238;stroke-linejoin:round"></rect><rect x="135.89" y="101.25" width="297.31" height="11.86" style="fill:#263238;stroke:#263238;stroke-linejoin:round"></rect><line x1="426.32" y1="104.23" x2="420.05" y2="110.51" style="fill:none;stroke:#fff;stroke-linejoin:round"></line><line x1="420.05" y1="104.23" x2="426.32" y2="110.51" style="fill:none;stroke:#fff;stroke-linejoin:round"></line><rect x="403.47" y="104.76" width="4.62" height="4.62" style="fill:#263238;stroke:#fff;stroke-linejoin:round"></rect><rect x="401.25" y="105.87" width="4.62" height="4.62" style="fill:#263238;stroke:#fff;stroke-linejoin:round"></rect><line x1="386.84" y1="107.6" x2="378.85" y2="107.6" style="fill:none;stroke:#fff;stroke-linejoin:round"></line><line x1="142.22" y1="104.01" x2="142.22" y2="111.18" style="fill:none;stroke:#fff;stroke-linejoin:round"></line><line x1="145.81" y1="107.59" x2="138.64" y2="107.59" style="fill:none;stroke:#fff;stroke-linejoin:round"></line><line x1="120.05" y1="218.89" x2="193.86" y2="218.89" style="fill:#fff;stroke:#263238;stroke-linejoin:round"></line><line x1="120.05" y1="225.34" x2="213.78" y2="225.34" style="fill:#fff;stroke:#263238;stroke-linejoin:round"></line><line x1="120.05" y1="232.95" x2="313.37" y2="232.95" style="fill:#fff;stroke:#263238;stroke-linejoin:round"></line><line x1="120.05" y1="239.98" x2="313.37" y2="239.98" style="fill:#fff;stroke:#263238;stroke-linejoin:round"></line><line x1="120.05" y1="247.01" x2="313.37" y2="247.01" style="fill:#fff;stroke:#263238;stroke-linejoin:round"></line><line x1="120.05" y1="263.42" x2="193.86" y2="263.42" style="fill:#fff;stroke:#263238;stroke-linejoin:round"></line><line x1="120.05" y1="269.86" x2="213.78" y2="269.86" style="fill:#fff;stroke:#263238;stroke-linejoin:round"></line><line x1="120.05" y1="277.48" x2="313.37" y2="277.48" style="fill:#fff;stroke:#263238;stroke-linejoin:round"></line><line x1="120.05" y1="284.51" x2="313.37" y2="284.51" style="fill:#fff;stroke:#263238;stroke-linejoin:round"></line><line x1="120.05" y1="291.54" x2="313.37" y2="291.54" style="fill:#fff;stroke:#263238;stroke-linejoin:round"></line><line x1="120.05" y1="307.94" x2="193.86" y2="307.94" style="fill:#fff;stroke:#263238;stroke-linejoin:round"></line><line x1="120.05" y1="314.39" x2="213.78" y2="314.39" style="fill:#fff;stroke:#263238;stroke-linejoin:round"></line><line x1="120.05" y1="322" x2="313.37" y2="322" style="fill:#fff;stroke:#263238;stroke-linejoin:round"></line><line x1="120.05" y1="329.03" x2="313.37" y2="329.03" style="fill:#fff;stroke:#263238;stroke-linejoin:round"></line><line x1="120.05" y1="336.06" x2="313.37" y2="336.06" style="fill:#fff;stroke:#263238;stroke-linejoin:round"></line><line x1="120.05" y1="352.46" x2="193.86" y2="352.46" style="fill:#fff;stroke:#263238;stroke-linejoin:round"></line><line x1="120.05" y1="358.91" x2="213.78" y2="358.91" style="fill:#fff;stroke:#263238;stroke-linejoin:round"></line><line x1="120.05" y1="366.52" x2="313.37" y2="366.52" style="fill:#fff;stroke:#263238;stroke-linejoin:round"></line><line x1="120.05" y1="373.55" x2="313.37" y2="373.55" style="fill:#fff;stroke:#263238;stroke-linejoin:round"></line><line x1="120.05" y1="380.58" x2="313.37" y2="380.58" style="fill:#fff;stroke:#263238;stroke-linejoin:round"></line><line x1="342.46" y1="247.67" x2="377.22" y2="247.67" style="fill:#fff;stroke:#263238;stroke-linejoin:round"></line><line x1="342.46" y1="252.34" x2="377.22" y2="252.34" style="fill:#fff;stroke:#263238;stroke-linejoin:round"></line><line x1="342.46" y1="257.02" x2="410.3" y2="257.02" style="fill:#fff;stroke:#263238;stroke-linejoin:round"></line><line x1="342.46" y1="261.7" x2="410.3" y2="261.7" style="fill:#fff;stroke:#263238;stroke-linejoin:round"></line><line x1="342.46" y1="266.38" x2="410.3" y2="266.38" style="fill:#fff;stroke:#263238;stroke-linejoin:round"></line><line x1="342.46" y1="271.06" x2="410.3" y2="271.06" style="fill:#fff;stroke:#263238;stroke-linejoin:round"></line><line x1="342.46" y1="275.74" x2="410.3" y2="275.74" style="fill:#fff;stroke:#263238;stroke-linejoin:round"></line><line x1="342.46" y1="280.42" x2="410.3" y2="280.42" style="fill:#fff;stroke:#263238;stroke-linejoin:round"></line><line x1="342.46" y1="285.1" x2="410.3" y2="285.1" style="fill:#fff;stroke:#263238;stroke-linejoin:round"></line><line x1="342.46" y1="289.78" x2="410.3" y2="289.78" style="fill:#fff;stroke:#263238;stroke-linejoin:round"></line><line x1="342.46" y1="300.81" x2="377.22" y2="300.81" style="fill:#fff;stroke:#263238;stroke-linejoin:round"></line><line x1="342.46" y1="305.48" x2="377.22" y2="305.48" style="fill:#fff;stroke:#263238;stroke-linejoin:round"></line><line x1="342.46" y1="310.16" x2="410.3" y2="310.16" style="fill:#fff;stroke:#263238;stroke-linejoin:round"></line><line x1="342.46" y1="314.84" x2="410.3" y2="314.84" style="fill:#fff;stroke:#263238;stroke-linejoin:round"></line><line x1="342.46" y1="319.52" x2="410.3" y2="319.52" style="fill:#fff;stroke:#263238;stroke-linejoin:round"></line><line x1="342.46" y1="324.2" x2="410.3" y2="324.2" style="fill:#fff;stroke:#263238;stroke-linejoin:round"></line><line x1="342.46" y1="328.88" x2="410.3" y2="328.88" style="fill:#fff;stroke:#263238;stroke-linejoin:round"></line><line x1="342.46" y1="333.56" x2="410.3" y2="333.56" style="fill:#fff;stroke:#263238;stroke-linejoin:round"></line><line x1="342.46" y1="338.24" x2="410.3" y2="338.24" style="fill:#fff;stroke:#263238;stroke-linejoin:round"></line><line x1="342.46" y1="342.92" x2="410.3" y2="342.92" style="fill:#fff;stroke:#263238;stroke-linejoin:round"></line></g></svg>