<svg xmlns="http://www.w3.org/2000/svg" viewBox="0 0 750 500"><g id="freepik--background-complete--inject-149"><path d="M94.11,326.06c-7.69.14-18.89.44-26.48.44h-.44v-.44l-.05-11.19v-.51h.5c7.93,0,18.94.07,26.76.23,0,3.39-.22,8-.28,11.46Zm0,0c-.1-3.28-.2-8-.27-11.19l.27.27c-7.66.14-18.71.2-26.48.22l.5-.49-.06,11.19-.44-.45c7.49,0,18.89.29,26.48.45Z" style="fill:#ebebeb"></path><path d="M79.34,340.17c-7.69.14-18.89.44-26.48.44h-.45v-.44l0-11.19v-.51h.5c7.92,0,18.94.07,26.75.23,0,3.39-.21,8-.27,11.46Zm0,0c-.1-3.28-.21-8-.27-11.19l.27.27c-7.66.14-18.71.2-26.48.22l.5-.49-.06,11.19-.44-.45c7.48,0,18.89.29,26.48.45Z" style="fill:#ebebeb"></path><path d="M452.89,181.84c-7.68.14-18.89.44-26.48.44H426v-.44l-.06-11.19v-.51h.5c7.93,0,18.95.07,26.76.23,0,3.39-.22,8-.28,11.46Zm0,0c-.09-3.28-.2-8-.27-11.19l.27.27c-7.65.14-18.71.2-26.48.23l.5-.5-.05,11.19-.45-.45c7.49,0,18.9.29,26.48.45Z" style="fill:#ebebeb"></path><path d="M438.12,196c-7.69.14-18.89.44-26.48.44h-.44V196l-.06-11.19v-.51h.5c7.93,0,18.94.07,26.76.23,0,3.39-.22,8-.28,11.46Zm0,0c-.1-3.28-.2-8-.27-11.19l.27.27c-7.65.14-18.71.2-26.48.23l.5-.5L412.09,196l-.45-.45c7.49,0,18.89.29,26.48.45Z" style="fill:#ebebeb"></path><path d="M423.41,181.84c-7.69.14-18.89.44-26.48.44h-.44v-.44l-.05-11.19v-.51h.5c7.92,0,18.94.07,26.75.23,0,3.39-.21,8-.27,11.46Zm0,0c-.1-3.28-.2-8-.27-11.19l.27.27c-7.66.14-18.71.2-26.48.23l.5-.5-.06,11.19-.44-.45c7.49,0,18.89.29,26.48.45Z" style="fill:#ebebeb"></path><path d="M697.14,340.17c-7.69.14-18.89.44-26.48.44h-.44v-.44L670.16,329v-.51h.5c7.93,0,18.94.07,26.76.23,0,3.39-.22,8-.28,11.46Zm0,0c-.1-3.28-.2-8-.27-11.19l.27.27c-7.65.14-18.71.2-26.48.22l.5-.49,0,11.19-.45-.45c7.49,0,18.89.29,26.48.45Z" style="fill:#ebebeb"></path><path d="M682.37,66.49c-7.69.14-18.89.44-26.48.44h-.44v-.45l-.05-11.19v-.51h.5c7.93,0,18.94.07,26.76.23,0,3.39-.22,8-.28,11.46Zm0,0c-.1-3.28-.2-8-.27-11.19l.27.27c-7.66.14-18.71.21-26.48.23l.5-.5,0,11.19-.45-.45c7.49,0,18.89.29,26.48.45Z" style="fill:#ebebeb"></path><path d="M697.14,80.6c-7.69.14-18.89.44-26.48.44h-.44V80.6l-.06-11.19V68.9h.5c7.93,0,18.94.07,26.76.23,0,3.39-.22,8-.28,11.46Zm0,0c-.1-3.28-.2-8-.27-11.19l.27.27c-7.65.14-18.71.21-26.48.23l.5-.5,0,11.19-.45-.45c7.49,0,18.89.29,26.48.45Z" style="fill:#ebebeb"></path><path d="M94.11,66.49c-7.69.14-18.89.44-26.48.44h-.44v-.45L67.13,55.3v-.51h.5c7.93,0,18.94.07,26.76.23,0,3.39-.22,8-.28,11.46Zm0,0c-.1-3.28-.2-8-.27-11.19l.27.27c-7.66.14-18.71.21-26.48.23l.5-.5-.06,11.19L67.63,66c7.49,0,18.89.29,26.48.45Z" style="fill:#ebebeb"></path><polygon points="64.22 423.44 251.12 423.44 255 346.75 60.33 346.75 64.22 423.44" style="fill:#ebebeb"></polygon><path d="M242.26,381.85H164.12l-1.46-26.62H244ZM165,380.91h76.36L243,356.17H163.65Z" style="fill:#dbdbdb"></path><path d="M240.82,412.48H167.18l-1.19-24h76.33Zm-72.74-.94h71.85l1.38-22.15H167Z" style="fill:#dbdbdb"></path><path d="M210.71,371.43H197.58l-.82-6.42h14.78Zm-12.3-.94h11.47l.59-4.54H197.83Z" style="fill:#dbdbdb"></path><path d="M210.71,403.68H197.58l-.82-6.42h14.78Zm-12.3-.95h11.47l.59-4.53H197.83Z" style="fill:#dbdbdb"></path><path d="M150.35,381.85H72.21l-1.46-26.62h81.31Zm-77.24-.94h76.36l1.58-24.74H71.74Z" style="fill:#dbdbdb"></path><path d="M148.91,412.48H75.27l-1.19-24h76.33Zm-72.74-.94H148l1.39-22.15H75.07Z" style="fill:#dbdbdb"></path><path d="M118.81,371.43H105.68l-.83-6.42h14.78Zm-12.31-.94H118l.58-4.54H105.92Z" style="fill:#dbdbdb"></path><path d="M118.81,403.68H105.68l-.83-6.42h14.78Zm-12.31-.95H118l.58-4.53H105.92Z" style="fill:#dbdbdb"></path><polygon points="80.98 423.44 79.81 431.79 77.44 448.58 72.83 448.58 72.83 423.44 80.98 423.44" style="fill:#ebebeb"></polygon><polygon points="80.98 423.44 79.81 431.79 72.83 431.79 72.83 423.44 80.98 423.44" style="fill:#dbdbdb"></polygon><polygon points="234.35 423.44 235.53 431.79 237.89 448.58 242.5 448.58 242.5 423.44 234.35 423.44" style="fill:#ebebeb"></polygon><polygon points="234.35 423.44 235.53 431.79 242.5 431.79 242.5 423.44 234.35 423.44" style="fill:#dbdbdb"></polygon><rect x="641.06" y="85.43" width="56.6" height="68.65" style="fill:#ebebeb"></rect><rect x="647.52" y="91.7" width="43.66" height="56.12" style="fill:#fff"></rect><rect x="647.52" y="91.7" width="1.7" height="56.12" style="fill:#dbdbdb"></rect><rect x="697.65" y="85.43" width="1.7" height="68.65" style="fill:#dbdbdb"></rect><rect x="662.15" y="99.43" width="10.3" height="30.67" style="fill:#dbdbdb"></rect><path d="M685.62,135.85H657.16v-16h28.46Zm-27.46-1h26.46v-14H658.16Z" style="fill:#ebebeb"></path><rect x="612.76" y="178.52" width="56.6" height="68.65" style="fill:#ebebeb"></rect><rect x="619.22" y="184.78" width="43.66" height="56.12" style="fill:#fff"></rect><rect x="619.22" y="184.78" width="1.7" height="56.12" style="fill:#dbdbdb"></rect><rect x="669.35" y="178.52" width="1.7" height="68.65" style="fill:#dbdbdb"></rect><rect x="636.83" y="199.29" width="8.82" height="22.3" style="fill:#ebebeb"></rect><path d="M655.43,228.71H630.74V212.34h24.69Zm-23.69-1h22.69V213.34H631.74Z" style="fill:#dbdbdb"></path><circle cx="115.16" cy="91.7" r="44.02" transform="translate(-7.31 173.38) rotate(-72.23)" style="fill:#ebebeb"></circle><circle cx="117.18" cy="92.68" r="42" transform="translate(-27.57 55.69) rotate(-24.01)" style="fill:#dbdbdb"></circle><circle cx="117.18" cy="92.68" r="39.35" transform="matrix(0.99, -0.17, 0.17, 0.99, -14.1, 21.36)" style="fill:#fff"></circle><path d="M155.63,84.33C137.72,95.18,108.27,113,91.8,122.76A39.51,39.51,0,0,1,81.05,108.3l54.44-50.46A39.38,39.38,0,0,1,155.63,84.33Z" style="fill:#ebebeb;opacity:0.5"></path><path d="M156.5,94.05a39.06,39.06,0,0,1-2.6,12.79l-49.08,23.21a39.68,39.68,0,0,1-6.2-2.67C113.45,118.82,140.54,103.23,156.5,94.05Z" style="fill:#ebebeb;opacity:0.5"></path><rect x="116.8" y="56.18" width="0.76" height="5.96" style="fill:#c7c7c7"></rect><rect x="100.04" y="60.67" width="0.76" height="5.96" transform="translate(-18.37 58.73) rotate(-30)" style="fill:#c7c7c7"></rect><rect x="87.77" y="72.94" width="0.76" height="5.96" transform="translate(-21.68 114.3) rotate(-60)" style="fill:#c7c7c7"></rect><rect x="80.68" y="92.3" width="5.96" height="0.76" style="fill:#c7c7c7"></rect><rect x="85.17" y="109.05" width="5.96" height="0.76" transform="translate(-42.91 58.74) rotate(-30)" style="fill:#c7c7c7"></rect><rect x="97.44" y="121.32" width="5.96" height="0.76" transform="translate(-55.17 147.92) rotate(-60.04)" style="fill:#c7c7c7"></rect><rect x="116.8" y="123.21" width="0.76" height="5.96" style="fill:#c7c7c7"></rect><rect x="133.55" y="118.72" width="0.76" height="5.96" transform="translate(-42.91 83.27) rotate(-30)" style="fill:#c7c7c7"></rect><rect x="145.82" y="106.45" width="0.76" height="5.96" transform="translate(-21.68 181.32) rotate(-60)" style="fill:#c7c7c7"></rect><rect x="147.7" y="92.3" width="5.96" height="0.76" style="fill:#c7c7c7"></rect><rect x="143.22" y="75.54" width="5.96" height="0.76" transform="translate(-18.37 83.28) rotate(-30)" style="fill:#c7c7c7"></rect><rect x="130.95" y="63.28" width="5.96" height="0.76" transform="translate(11.88 147.87) rotate(-60.03)" style="fill:#c7c7c7"></rect><polygon points="117.75 58.89 119.04 95.33 115.31 95.29 116.73 58.87 117.75 58.89" style="fill:#c7c7c7"></polygon><polygon points="140.45 79.97 115.93 95.62 114.15 92.34 139.97 79.08 140.45 79.97" style="fill:#a6a6a6"></polygon><path d="M118.45,92.68a1.28,1.28,0,1,1-1.27-1.28A1.27,1.27,0,0,1,118.45,92.68Z" style="fill:#c7c7c7"></path></g><g id="freepik--Calendar--inject-149"><rect x="140.62" y="95.69" width="468.77" height="352.89" style="fill:#ebebeb"></rect><rect x="115.88" y="95.69" width="24.73" height="352.89" transform="translate(256.5 544.27) rotate(180)" style="fill:#dbdbdb"></rect><rect x="140.62" y="95.69" width="468.77" height="38.07" style="fill:#FFC727"></rect><rect x="190.6" y="171.65" width="46.44" height="46.44" style="fill:#FFC727"></rect><rect x="190.6" y="171.65" width="46.44" height="46.44" style="fill:#fff;opacity:0.8"></rect><rect x="244.3" y="171.65" width="46.44" height="46.44" style="fill:#fff"></rect><rect x="298.06" y="171.65" width="46.44" height="46.44" style="fill:#fff"></rect><rect x="351.78" y="171.65" width="46.44" height="46.44" style="fill:#fff"></rect><rect x="405.51" y="171.65" width="46.44" height="46.44" style="fill:#fff"></rect><rect x="459.23" y="171.65" width="46.44" height="46.44" style="fill:#fff"></rect><rect x="512.96" y="171.65" width="46.44" height="46.44" style="fill:#fff"></rect><rect x="190.6" y="224.17" width="46.44" height="46.44" style="fill:#FFC727"></rect><rect x="190.6" y="224.17" width="46.44" height="46.44" style="fill:#fff;opacity:0.8"></rect><rect x="244.33" y="224.17" width="46.44" height="46.44" style="fill:#fff"></rect><rect x="298.05" y="224.17" width="46.44" height="46.44" style="fill:#fff"></rect><rect x="351.78" y="224.17" width="46.44" height="46.44" style="fill:#fff"></rect><rect x="405.51" y="224.17" width="46.44" height="46.44" style="fill:#fff"></rect><rect x="459.24" y="224.17" width="46.44" height="46.44" style="fill:#fff"></rect><rect x="512.96" y="224.17" width="46.44" height="46.44" style="fill:#fff"></rect><rect x="190.6" y="276.69" width="46.44" height="46.44" style="fill:#FFC727"></rect><rect x="190.6" y="276.69" width="46.44" height="46.44" style="fill:#fff;opacity:0.8"></rect><rect x="244.33" y="276.69" width="46.44" height="46.44" style="fill:#fff"></rect><rect x="298.06" y="276.69" width="46.44" height="46.44" style="fill:#fff"></rect><rect x="351.78" y="276.69" width="46.44" height="46.44" style="fill:#fff"></rect><rect x="405.51" y="276.69" width="46.44" height="46.44" style="fill:#fff"></rect><rect x="459.23" y="276.69" width="46.44" height="46.44" style="fill:#fff"></rect><rect x="512.96" y="276.69" width="46.44" height="46.44" style="fill:#fff"></rect><rect x="190.6" y="329.21" width="46.44" height="46.44" style="fill:#FFC727"></rect><rect x="190.6" y="329.21" width="46.44" height="46.44" style="fill:#fff;opacity:0.8"></rect><rect x="244.33" y="329.21" width="46.44" height="46.44" style="fill:#fff"></rect><rect x="298.05" y="329.21" width="46.44" height="46.44" style="fill:#fff"></rect><rect x="351.78" y="329.21" width="46.44" height="46.44" style="fill:#fff"></rect><rect x="405.51" y="329.21" width="46.44" height="46.44" style="fill:#fff"></rect><rect x="459.24" y="329.21" width="46.44" height="46.44" style="fill:#fff"></rect><rect x="512.96" y="329.21" width="46.44" height="46.44" style="fill:#fff"></rect><rect x="190.6" y="381.73" width="46.44" height="46.44" style="fill:#FFC727"></rect><rect x="190.6" y="381.73" width="46.44" height="46.44" style="fill:#fff;opacity:0.8"></rect><rect x="244.33" y="381.74" width="46.44" height="46.44" style="fill:#fff"></rect><rect x="298.05" y="381.73" width="46.44" height="46.44" style="fill:#fff"></rect><rect x="351.78" y="381.73" width="46.44" height="46.44" style="fill:#fff"></rect><rect x="405.51" y="381.73" width="46.44" height="46.44" style="fill:#fff"></rect><rect x="459.23" y="381.73" width="46.44" height="46.44" style="fill:#fff"></rect><rect x="512.96" y="381.73" width="46.44" height="46.44" style="fill:#fff"></rect><path d="M208.31,160.08a2.07,2.07,0,0,0-.79-.53,2.75,2.75,0,0,0-1.11-.21,2.09,2.09,0,0,0-1.34.35,1.16,1.16,0,0,0-.42.94,1,1,0,0,0,.11.52,1,1,0,0,0,.35.35,2.46,2.46,0,0,0,.6.25l.86.22a7.39,7.39,0,0,1,1,.26,2.83,2.83,0,0,1,.76.37,1.43,1.43,0,0,1,.48.53,1.67,1.67,0,0,1,.16.78,1.86,1.86,0,0,1-.18.84,1.7,1.7,0,0,1-.52.58,2.19,2.19,0,0,1-.79.35,4.06,4.06,0,0,1-1,.11,4.14,4.14,0,0,1-2.79-1l.34-.56a2.77,2.77,0,0,0,.44.37,3.34,3.34,0,0,0,1.26.51,3.79,3.79,0,0,0,.77.08,2.37,2.37,0,0,0,1.29-.3,1,1,0,0,0,.47-.91,1.13,1.13,0,0,0-.13-.54,1,1,0,0,0-.4-.38,2.73,2.73,0,0,0-.66-.28c-.26-.08-.56-.16-.91-.24s-.68-.17-1-.26a2.77,2.77,0,0,1-.69-.34,1.46,1.46,0,0,1-.43-.5,1.66,1.66,0,0,1-.14-.71,2,2,0,0,1,.18-.86,1.56,1.56,0,0,1,.52-.62,2.18,2.18,0,0,1,.78-.38,3.71,3.71,0,0,1,2.24.07,3.19,3.19,0,0,1,1,.6Z" style="fill:#37474f"></path><path d="M213,165.17a2.25,2.25,0,0,0,1.09-.25,2,2,0,0,0,.69-.66,2.58,2.58,0,0,0,.37-.92,6.22,6.22,0,0,0,.1-1.05v-3.51h.68v3.51a5.71,5.71,0,0,1-.15,1.33,3.11,3.11,0,0,1-.51,1.12,2.47,2.47,0,0,1-.9.76,3.41,3.41,0,0,1-2.75,0,2.44,2.44,0,0,1-.9-.78,3.06,3.06,0,0,1-.49-1.12,5.55,5.55,0,0,1-.15-1.29v-3.51h.67v3.51a5.47,5.47,0,0,0,.11,1.07,2.78,2.78,0,0,0,.37.92,1.93,1.93,0,0,0,.69.64A2.11,2.11,0,0,0,213,165.17Z" style="fill:#37474f"></path><path d="M218.27,160.06v5.67h-.69v-6.95h.53l4.6,5.79v-5.78h.69v6.94h-.6Z" style="fill:#37474f"></path><path d="M262.83,165.73V160l-2.54,4.41h-.4L257.35,160v5.7h-.68v-6.95h.7l2.72,4.76,2.73-4.76h.69v6.95Z" style="fill:#37474f"></path><path d="M268.06,165.78a2.92,2.92,0,0,1-1.33-.3,3.08,3.08,0,0,1-1-.79,3.56,3.56,0,0,1-.67-1.13,3.65,3.65,0,0,1-.24-1.3,3.74,3.74,0,0,1,.25-1.33,3.81,3.81,0,0,1,.69-1.13,3.47,3.47,0,0,1,1-.78,3,3,0,0,1,1.29-.29,2.93,2.93,0,0,1,1.33.31,3.43,3.43,0,0,1,1,.81,3.86,3.86,0,0,1,.66,1.13,3.6,3.6,0,0,1,.24,1.29,3.66,3.66,0,0,1-.94,2.45,3.46,3.46,0,0,1-1,.78A3,3,0,0,1,268.06,165.78Zm-2.58-3.52a3.09,3.09,0,0,0,.19,1.09,2.85,2.85,0,0,0,.53.93,2.45,2.45,0,0,0,.81.65,2.26,2.26,0,0,0,1.05.24,2.22,2.22,0,0,0,1.06-.26,2.77,2.77,0,0,0,.82-.66,3.22,3.22,0,0,0,.69-2,3.09,3.09,0,0,0-.19-1.09,3.26,3.26,0,0,0-.53-.93,2.56,2.56,0,0,0-.82-.64,2.37,2.37,0,0,0-2.1,0,2.61,2.61,0,0,0-.81.66,3,3,0,0,0-.52.93A3.23,3.23,0,0,0,265.48,162.26Z" style="fill:#37474f"></path><path d="M273.3,160.06v5.67h-.69v-6.95h.53l4.6,5.79v-5.78h.69v6.94h-.6Z" style="fill:#37474f"></path><path d="M317.42,159.39h-2.48v6.34h-.69v-6.34h-2.47v-.61h5.64Z" style="fill:#37474f"></path><path d="M321.27,165.17a2.29,2.29,0,0,0,1.1-.25,2,2,0,0,0,.69-.66,2.76,2.76,0,0,0,.36-.92,5.35,5.35,0,0,0,.11-1.05v-3.51h.68v3.51a5.21,5.21,0,0,1-.16,1.33,3.09,3.09,0,0,1-.5,1.12,2.43,2.43,0,0,1-.91.76,2.94,2.94,0,0,1-1.36.28,2.87,2.87,0,0,1-1.38-.3,2.48,2.48,0,0,1-.91-.78,3.24,3.24,0,0,1-.49-1.12,5.54,5.54,0,0,1-.14-1.29v-3.51H319v3.51a5.47,5.47,0,0,0,.11,1.07,2.58,2.58,0,0,0,.37.92,1.93,1.93,0,0,0,.69.64A2,2,0,0,0,321.27,165.17Z" style="fill:#37474f"></path><path d="M330.52,165.13v.6h-4.67v-6.95h4.58v.61h-3.9v2.51h3.4v.57h-3.4v2.66Z" style="fill:#37474f"></path><path d="M366.88,158.83h.65l1,2.47,1-2.47h.65l-1.21,3,1.33,3.14,2.52-6.16h.74l-2.94,6.95H370l-1.46-3.43-1.47,3.43h-.6l-2.93-6.95h.73l2.53,6.16,1.32-3.14Z" style="fill:#37474f"></path><path d="M379.18,165.13v.6h-4.67v-6.95h4.58v.61H375.2v2.51h3.4v.57h-3.4v2.66Z" style="fill:#37474f"></path><path d="M380.48,165.73v-6.95h2.35a3.49,3.49,0,0,1,1.46.28,3,3,0,0,1,1,.74,3.21,3.21,0,0,1,.62,1.1,4.24,4.24,0,0,1,.21,1.35,4,4,0,0,1-.23,1.43,3.13,3.13,0,0,1-.67,1.1,2.93,2.93,0,0,1-1.05.7,3.57,3.57,0,0,1-1.38.25Zm5-3.48a3.51,3.51,0,0,0-.18-1.15,2.79,2.79,0,0,0-.51-.91,2.37,2.37,0,0,0-.83-.59,2.85,2.85,0,0,0-1.13-.21h-1.67v5.74h1.67a2.91,2.91,0,0,0,1.15-.22,2.29,2.29,0,0,0,.82-.61,2.62,2.62,0,0,0,.51-.91A3.78,3.78,0,0,0,385.48,162.25Z" style="fill:#37474f"></path><path d="M424.24,159.39h-2.48v6.34h-.69v-6.34H418.6v-.61h5.64Z" style="fill:#37474f"></path><path d="M430.76,158.78v6.95h-.68v-3.25H426v3.25h-.69v-6.95H426v3.1h4.12v-3.1Z" style="fill:#37474f"></path><path d="M435.32,165.17a2.22,2.22,0,0,0,1.09-.25,2,2,0,0,0,.7-.66,2.76,2.76,0,0,0,.36-.92,5.33,5.33,0,0,0,.1-1.05v-3.51h.69v3.51a5.21,5.21,0,0,1-.16,1.33,3.09,3.09,0,0,1-.5,1.12,2.51,2.51,0,0,1-.91.76,2.94,2.94,0,0,1-1.36.28,2.87,2.87,0,0,1-1.38-.3,2.48,2.48,0,0,1-.91-.78,3.24,3.24,0,0,1-.49-1.12,5.55,5.55,0,0,1-.15-1.29v-3.51h.68v3.51a4.8,4.8,0,0,0,.11,1.07,2.76,2.76,0,0,0,.36.92,2,2,0,0,0,1.77.89Z" style="fill:#37474f"></path><path d="M476,165.73v-6.95h4.56v.61h-3.87V162H480v.56h-3.27v3.22Z" style="fill:#37474f"></path><path d="M481.8,165.73v-6.95h2.94a1.87,1.87,0,0,1,.82.19,2.3,2.3,0,0,1,.65.5,2.25,2.25,0,0,1,.58,1.5,2.58,2.58,0,0,1-.11.73,2.4,2.4,0,0,1-.31.62,1.82,1.82,0,0,1-.49.47,1.58,1.58,0,0,1-.64.26l1.71,2.68h-.78l-1.63-2.56h-2.06v2.56Zm.68-3.17h2.27a1.16,1.16,0,0,0,.56-.13,1.32,1.32,0,0,0,.42-.36,1.8,1.8,0,0,0,.28-.51,1.92,1.92,0,0,0,.1-.59,1.62,1.62,0,0,0-.12-.61,1.51,1.51,0,0,0-.75-.84,1.16,1.16,0,0,0-.54-.13h-2.22Z" style="fill:#37474f"></path><path d="M488.19,165.73v-6.95h.69v6.95Z" style="fill:#37474f"></path><path d="M532.39,160.08a2.07,2.07,0,0,0-.79-.53,2.78,2.78,0,0,0-1.11-.21,2.14,2.14,0,0,0-1.35.35,1.16,1.16,0,0,0-.42.94,1,1,0,0,0,.46.87,2.74,2.74,0,0,0,.61.25l.86.22a7.79,7.79,0,0,1,1,.26,2.76,2.76,0,0,1,.75.37,1.55,1.55,0,0,1,.49.53,1.67,1.67,0,0,1,.16.78,1.86,1.86,0,0,1-.18.84,1.7,1.7,0,0,1-.52.58,2.24,2.24,0,0,1-.8.35,3.93,3.93,0,0,1-1,.11,4.18,4.18,0,0,1-2.8-1l.35-.56a2.77,2.77,0,0,0,.44.37,3.34,3.34,0,0,0,1.26.51,3.77,3.77,0,0,0,.76.08,2.38,2.38,0,0,0,1.3-.3,1,1,0,0,0,.47-.91,1,1,0,0,0-.14-.54,1,1,0,0,0-.39-.38,2.91,2.91,0,0,0-.66-.28c-.26-.08-.56-.16-.91-.24s-.68-.17-1-.26a2.77,2.77,0,0,1-.69-.34,1.46,1.46,0,0,1-.43-.5,1.66,1.66,0,0,1-.14-.71,2,2,0,0,1,.18-.86,1.62,1.62,0,0,1,.51-.62,2.32,2.32,0,0,1,.79-.38,3.45,3.45,0,0,1,1-.14,3.37,3.37,0,0,1,1.23.21,3.13,3.13,0,0,1,1,.6Z" style="fill:#37474f"></path><path d="M536.3,158.78h.58l2.89,6.95H539l-.9-2.17H535l-.89,2.17h-.74ZM538,163l-1.4-3.43L535.17,163Z" style="fill:#37474f"></path><path d="M545,159.39h-2.48v6.34h-.68v-6.34h-2.48v-.61H545Z" style="fill:#37474f"></path><rect x="252.6" y="180.84" width="29.85" height="2.32" style="fill:#c7c7c7"></rect><rect x="252.6" y="185.93" width="16.89" height="2.32" style="fill:#c7c7c7"></rect><rect x="305.87" y="390.81" width="29.85" height="2.32" style="fill:#c7c7c7"></rect><rect x="305.87" y="395.89" width="16.89" height="2.32" style="fill:#c7c7c7"></rect><rect x="413.09" y="337.36" width="29.85" height="2.32" style="fill:#c7c7c7"></rect><rect x="413.09" y="347.54" width="15.63" height="2.32" style="fill:#c7c7c7"></rect><rect x="413.09" y="342.45" width="21.52" height="2.32" style="fill:#c7c7c7"></rect><rect x="305.11" y="295.55" width="15.63" height="2.32" style="fill:#c7c7c7"></rect><rect x="305.11" y="290.47" width="21.52" height="2.32" style="fill:#c7c7c7"></rect><path d="M342.78,288.06l-.12-.25C342.91,288.34,342.77,288.05,342.78,288.06Z" style="fill:#3e494e"></path><polygon points="344.72 293.48 344.69 293.38 344.89 294.21 344.72 293.48" style="fill:#3e494e"></polygon><path d="M345.27,298.82a16.2,16.2,0,0,0-.12-2.9v-.16a3.1,3.1,0,0,0-.08-.42A19.25,19.25,0,0,1,345.27,298.82Z" style="fill:#3e494e"></path><path d="M344.87,301.65c.05-.17-.08.61.12-.65l0,.12C344.94,301.23,344.92,301.39,344.87,301.65Z" style="fill:#3e494e"></path><path d="M345,301.12c.1-.56-.07.36,0,0Z" style="fill:#3e494e"></path><path d="M344.38,303.64a5.71,5.71,0,0,0,.19-.71,3.14,3.14,0,0,1-.18.54C344.17,304.19,344.23,304.05,344.38,303.64Z" style="fill:#3e494e"></path><path d="M344.21,304.32l.11-.36A1.75,1.75,0,0,0,344.21,304.32Z" style="fill:#3e494e"></path><path d="M344.55,303.18l-.23.78a1.07,1.07,0,0,0,.1-.36C344.42,303.67,344.45,303.51,344.55,303.18Z" style="fill:#3e494e"></path><path d="M344.67,302.73c.1-.4.24-.92.08-.19a5.21,5.21,0,0,0,.18-1C344.92,301.64,344.84,302,344.67,302.73Z" style="fill:#3e494e"></path><path d="M345.31,299.1l0-.56v-.48C345.33,298.3,345.29,299.14,345.31,299.1Z" style="fill:#3e494e"></path><path d="M342.4,307.77c0,.05.16-.19.21-.23l.26-.47C342.72,307.3,342.44,307.75,342.4,307.77Z" style="fill:#3e494e"></path><path d="M342.61,307.54a6.33,6.33,0,0,1-.44.7C342.61,307.65,342.63,307.51,342.61,307.54Z" style="fill:#3e494e"></path><path d="M344.22,304.47l.38-1.3c-.16.51-.28,1-.47,1.54Z" style="fill:#3e494e"></path><polygon points="340.46 310.19 340.75 309.83 340.22 310.46 340.46 310.19" style="fill:#3e494e"></polygon><path d="M339,311.6c.23-.25-.39.26-.14,0l-1.12.94C338.06,312.26,338.47,312,339,311.6Z" style="fill:#3e494e"></path><path d="M337.14,313a6.76,6.76,0,0,0,.57-.44C337.53,312.71,337.33,312.84,337.14,313Z" style="fill:#3e494e"></path><path d="M341.33,309.34a3.54,3.54,0,0,0-.45.46l.24-.21Z" style="fill:#3e494e"></path><path d="M341.13,309.58h0a4.88,4.88,0,0,1-.46.51A5.46,5.46,0,0,0,341.13,309.58Z" style="fill:#3e494e"></path><path d="M341.38,309.28l-.05.06Z" style="fill:#3e494e"></path><path d="M343.32,306.42c-.18.45-.7,1.31-.17.5C343.3,306.6,343,307.09,343.32,306.42Z" style="fill:#3e494e"></path><path d="M341.68,309c.18-.22.34-.46.52-.7,0,0-.13.13,0-.07C342,308.49,341.86,308.75,341.68,309Z" style="fill:#3e494e"></path><polygon points="341.42 309.34 341.68 309 341.47 309.25 341.42 309.34" style="fill:#3e494e"></polygon><path d="M338.37,312.17c-.29.23-.6.5-1,.76.43-.26.82-.59,1.22-.88C338.64,312,338.79,311.84,338.37,312.17Z" style="fill:#3e494e"></path><path d="M339.79,311l-.06.06Z" style="fill:#3e494e"></path><polygon points="333.39 315.12 333.46 315.1 333.47 315.08 333.39 315.12" style="fill:#3e494e"></polygon><path d="M338.67,312a4.41,4.41,0,0,0,.6-.54,8,8,0,0,1-.67.58S338.58,312.08,338.67,312Z" style="fill:#3e494e"></path><path d="M336.08,313.69a4.53,4.53,0,0,0,.56-.31Z" style="fill:#3e494e"></path><path d="M339.62,311.12l0,0C339.56,311.15,339.58,311.15,339.62,311.12Z" style="fill:#3e494e"></path><path d="M339.62,311.12l-.35.35.46-.42Z" style="fill:#3e494e"></path><path d="M332.25,316a11.14,11.14,0,0,1,1.74-.8c.75-.4.17-.32-.53-.1,0,0,0,0-.79.4.3-.05,1.78-.69,1.14-.35a6.32,6.32,0,0,1-1.4.54c.24-.06-.09.1-.45.28s-.75.32-.61.34c.32-.12.63-.24.94-.39C332.31,315.93,332,316.09,332.25,316Z" style="fill:#3e494e"></path><path d="M334.94,314.4l.31-.18a7.37,7.37,0,0,1-1.13.48,4.22,4.22,0,0,0-.65.38c.52-.25,1.06-.48,1.57-.74Z" style="fill:#3e494e"></path><path d="M336.62,313.43c-.19.22-.93.64-.44.44a9.44,9.44,0,0,0,1.1-.79c-1.4.93.38-.28-.65.35l.75-.5-.74.45,0,0h0l0,0s0,0-.05.06c-.41.26-.07,0,.05-.06h0c-.45.33-1,.57-1.43.86C335.55,314.05,336,313.86,336.62,313.43Z" style="fill:#3e494e"></path><path d="M342.77,307.74l0,0C342.68,307.88,342.67,307.92,342.77,307.74Z" style="fill:#3e494e"></path><path d="M342.37,308.31c.06-.11.13-.22.33-.53s0,0,0,0c.11-.21.4-.74,0-.1l-.06.1a11.58,11.58,0,0,1-.87,1.14A6.87,6.87,0,0,0,342.37,308.31Z" style="fill:#3e494e"></path><path d="M339.73,311.22c-.35.31-.67.65-1,.94a6.07,6.07,0,0,0,.57-.43h0C339.82,311.21,339.67,311.31,339.73,311.22Z" style="fill:#3e494e"></path><polygon points="333.23 315.15 333.37 315.02 332.66 315.4 333.23 315.15" style="fill:#3e494e"></polygon><polygon points="331.54 315.81 331.58 315.74 331.14 315.92 331.54 315.81" style="fill:#3e494e"></polygon><path d="M341.39,288l.28.33Z" style="fill:#3e494e"></path><path d="M339.41,285.56h-.09C339.44,285.63,339.49,285.66,339.41,285.56Z" style="fill:#3e494e"></path><path d="M296.82,301.18c.1-.59.24-1.23.13-1.16l-.1.17A7.32,7.32,0,0,1,296.82,301.18Z" style="fill:#3e494e"></path><path d="M315.94,280.84h-.18l-.38.19Z" style="fill:#3e494e"></path><path d="M316.26,280.29l.81-.09Z" style="fill:#3e494e"></path><path d="M343.83,304.15l-.09.52C344,303.92,343.86,304.23,343.83,304.15Z" style="fill:#3e494e"></path><path d="M313.18,317.85c-.51-.07-.9-.2-1.25-.26A3.44,3.44,0,0,0,313.18,317.85Z" style="fill:#3e494e"></path><path d="M339.74,287.72c.17.17.26.24.27.22C339.83,287.76,339.72,287.66,339.74,287.72Z" style="fill:#3e494e"></path><path d="M310.49,317.28l.26.1c.36.06.74.11,1.18.21A11.76,11.76,0,0,0,310.49,317.28Z" style="fill:#3e494e"></path><path d="M298.08,299.47v-.13A.41.41,0,0,0,298.08,299.47Z" style="fill:#3e494e"></path><path d="M307.38,285.57l-.61.36Z" style="fill:#3e494e"></path><path d="M324.44,317.49c.38-.07.06,0,0,0Z" style="fill:#3e494e"></path><path d="M326.34,317.46c-.08,0-.14,0-.14.06A.48.48,0,0,1,326.34,317.46Z" style="fill:#3e494e"></path><path d="M306.7,316.55l0,0Z" style="fill:#3e494e"></path><path d="M325,317.43l-.49.06Z" style="fill:#3e494e"></path><path d="M324.93,317.41l.34-.05S325.27,317.34,324.93,317.41Z" style="fill:#3e494e"></path><path d="M323.91,317.57l.62-.08h-.09Z" style="fill:#3e494e"></path><path d="M320.16,316.77h-.08C319.69,316.84,319.86,316.82,320.16,316.77Z" style="fill:#3e494e"></path><path d="M298.41,291.29l0,0,0-.05Z" style="fill:#3e494e"></path><path d="M299.13,290a5.42,5.42,0,0,1-.7,1.24l.52-.23C299,290.72,299,290.36,299.13,290Z" style="fill:#3e494e"></path><path d="M344.41,294.7l-.15-1c.49,1.15.53,2.07.51,1.08a8,8,0,0,1-.72-1.95c-.3-1-.75-1.85-.92-1.85-.06-.22-.15-.42-.23-.63l.2.36c-.44-1.24-.63-.76-1.46-2.2-.32-.49-.51-.85-.25-.55a10,10,0,0,0-.85-1c-.24-.3-.13-.27.1,0l-.64-.76-.7-.7h0c-.23-.18-.76-.55-1-.72-.34-.37.21.14.15,0-.3-.21-.58-.45-.89-.64-.29-.35.48.13,1,.66-.55-.93-.7-.58-2.41-2a7.34,7.34,0,0,1,.89.55,3.27,3.27,0,0,0-.86-.77c-.36-.26-.77-.54-1.28-.87.25.16,1.87,1.5.81.93a4.89,4.89,0,0,0-1.25-.67c.06-.11-.5-.4-1.23-.69l.11-.13a4.23,4.23,0,0,0-1.26-.29,2.7,2.7,0,0,1-1.22-.69c-1.46-.42,1,.47-.78,0a8.5,8.5,0,0,0-1.68-.4,13.94,13.94,0,0,0-1.9-.17c-.86-.16.16-.09-.14-.17l-.78.05c-.19,0-.13-.05-.1-.07-.65,0-.06.16-1.08.16-.27.15-2.1-.32-3.35,0-.31,0,.14-.11.05-.17a14.79,14.79,0,0,0-2.85.61c-.41,0-.81,0-1.21.08.89-.05-.2.31-1.13.64l.77,0-1.51.4c-.19,0-.05-.07.18-.19l-.27.1c-.55.08-.3-.1.07-.28h.58c.36-.18.69-.36.59-.44s-.28.09-.49.15c.09-.05.15-.09.1-.1a3.14,3.14,0,0,0-.46.16l-.39-.11-.07.09-2,.42c-1.37.6-2.51,1.25-4.61,2.26.48-.35,0-.25,0-.41a4.48,4.48,0,0,0,1.21-.48,7.86,7.86,0,0,1,1.61-.67c-.61.18-.51.07-.36,0a19.84,19.84,0,0,0-2,.95c0-.13-.48.06-1,.29.51.06-1.4.85-2.09,1.43-.08,0,0-.27,1-.76-1.16.4-1.17,1.06-2.25,1.54.21-.16.35-.21.41-.31-.49.38-1.7,1.28-1.47,1l.21-.16a10.45,10.45,0,0,0-1.24,1,13.75,13.75,0,0,0-1.28,1.25,5.69,5.69,0,0,0-1.31,1.83,1,1,0,0,1,0-.46,20.43,20.43,0,0,0-1.15,3c0-.32-.94.38-.28-.93a6.62,6.62,0,0,0-.86,1.62c.15-.25.56-.52.39-.17a8.87,8.87,0,0,0-1.08,1.79c.21-.39.25.15.06.78,0-.11-.28,0-.24-.28-.06.58-.16,1.14-.19,1.71,0-.43-.21-.13-.36.23.08-.17-.3,1.44-.28,1.9l.14-.71c-.23,1.91.18,1.91.25,3.76-.08-.22-.39-.54-.34.43.08.21.28.68.57,1.27s.59,1.31.86,2.07c0,.1,0,.21,0,.32l.52,1.12a13.59,13.59,0,0,1-1.89-3.82,5.68,5.68,0,0,0,.14,1.27c0,.4-.22-.55-.27-.87a17.76,17.76,0,0,0,.56,2.48c.1-.16.82,1.75.93,1.6a18.63,18.63,0,0,1-1.06-2.52c.06-.07.27.28.53.85s.63,1.34,1,2.12c.15.42-.39-.18-.42-.13s.28.46.48.82.43.69.45.77c-.15-.2-.32-.39-.46-.6.47.88,1,1.29,1.6,2.3.22.34.64,1.06.76,1.05-.33-.61,0-1,.39-.8l.69.9c.36.43.78.86.92,1.05.41.54-1-.43-.6,0a2.61,2.61,0,0,1,.48.29c.3.3-.24,0,.51.55.22,0,1.51,1.13.43.16.75.51.76.59,1.67,1.13-.12-.12.13-.07.5.07s.9.29,1.3.47c-.06,0,.1.14.18.21.82.38,1.49.61,2.13.88s1.29.42,2.13.6c.15.06,1,.25.59.24a8.07,8.07,0,0,1,1,.11c1,.28-1.16-.18-.42.09.08,0,1.38.08,2.13.1a24,24,0,0,0-2.47-.3c0-.08.35-.11.9-.08s1.32,0,2.2.06c1.4,0,.6.12.85.1a10.73,10.73,0,0,0,2.39-.11,13.33,13.33,0,0,1,2.05-.14c.88,0,.05.19.25.24-1.14.14-1.77,0-2.55.07h1a13,13,0,0,1-1.56.08,53.27,53.27,0,0,0,6.53-.39c.36-.07,1-.22.68-.2l-.64.11c-.6,0,1.19-.28.38-.19.84-.21,1.79-.39,3-.64l.24.05a6,6,0,0,0-1.12.22,17.52,17.52,0,0,0,2.37-.54c-.28.05-.56.11-.85.14l2.87-.93c-.49.06-.22.11-1,.21.68,0-2.66.7-1.59.57-.8,0-1.34.26-2.37.32,0,0,.37,0-.52.13l-.19.06h0s-.05,0,0,0a2.92,2.92,0,0,1,.47,0,21.07,21.07,0,0,1-2.34.45c-.53,0,.22-.06-.07-.06l-.72.14c-.08-.06-1.43,0-.18-.15-.38.05-.76.06-1.13.09-.68,0-1.59.06-2.16.09s-1.35.13-.89.06a17.52,17.52,0,0,1-1.77.05l0,0-1.33,0c-.45,0-.9-.07-1.37-.11a14.3,14.3,0,0,1-2.82-.54,17.4,17.4,0,0,1-2.08-.6l-.16-.14c-.35-.13-.87-.33-1.33-.54a6.05,6.05,0,0,0-1-.48c-.33-.25-1.07-.74-1.89-1.23l-1.16-.85a9.86,9.86,0,0,1-.9-.79l-.11.05a12.26,12.26,0,0,1-1-.95,10.44,10.44,0,0,1-1-1.13l0,.12a14.16,14.16,0,0,1-2-3.48,3.12,3.12,0,0,1,.34.69c-.6-1.71-1.54-3.55-1.58-5.24a5.37,5.37,0,0,1-.08-1l0,.1,0-.17c0-.18,0-.37,0-.57a2,2,0,0,0,0,.48c-.05-.31,0-.8-.06-1.27l.12-.2v-.1c0-.46,0-.38-.15-.14,0-.24,0-.45,0-.63.22-.35.05-1.25.38-1.71-.09-.35.5-2.32.41-2.63,0,0,.1-.13,0,.11a9.27,9.27,0,0,0,.56-1.44l.24-.14.35-1.12c.41-.58.65-.78.37-.14a22.11,22.11,0,0,1,1.38-2.45l0,.12a6.34,6.34,0,0,1,1-1.28c.24-.18.58-.55,1.07-.95a20.78,20.78,0,0,1,1.73-1.4,19.86,19.86,0,0,1,4.32-2.5c-.65,0,1.32-.42,1.34-.67.19,0,.58-.12.16.12a10.88,10.88,0,0,1,1.72-.62,9.88,9.88,0,0,0,1.39-.53c.18,0-.29.18-.13.18a2.57,2.57,0,0,1,.61-.18c.16,0-.19.11-.42.21,1.49-.41,1.59-.67,1.65-.9a4.56,4.56,0,0,0,1.71-.42c.28,0,.74,0-.2.21.53-.15,3.28-.45,3.32-.61a4.37,4.37,0,0,0,.9-.08c1.21-.11,1.32-.07,2.52-.11l-.34,0c.48-.23,1-.07,2,0l0,0c1.1.11,1.33.17,1.57.17a6,6,0,0,1,1.53.27l-.1-.15c.12-.11.6,0,1.19.19a18.26,18.26,0,0,0,1.9.61,3.11,3.11,0,0,0-.41-.2,9.6,9.6,0,0,1,2.3,1.27c.13.08-.23-.06-.42-.13,1.56.87.29-.08,1.5.47.18.19-.38,0,.4.48a12.62,12.62,0,0,1,3.2,2c-.16-.23-.32-.46.18-.09.77.58,1.66,2,2.35,2.49.07.11.08.15.07.17.24.28.61.74.94,1.18a12.37,12.37,0,0,0,.78,1.05,10,10,0,0,0,1,2.33c.42,1,.71,1.89.52,1.93a9.6,9.6,0,0,1,.25,1.09,10.07,10.07,0,0,1,.17,1.1l0-.06c.06.71.11,1.18.14,1.56s.08.6.12.87-.06.09-.08.06a10.23,10.23,0,0,1-.14,1.25c-.05.34-.07.62-.12.87-.08.53-.12,1-.3,1.88l-.17.14a8.36,8.36,0,0,1-.8,1.76,15.17,15.17,0,0,1-.83,1.27,15.81,15.81,0,0,1-.89,1.31s0-.07.11-.2c-1.33,1.94-4.23,3.47-4.73,4.23l-.62.46-.66.4c1.79-.9-.18.29.58,0-.69.39-1.87.83-1,.37l.15-.06c.11-.17-.45.1-1,.39a3.72,3.72,0,0,1-1.25.45A35.74,35.74,0,0,1,320.93,316l.43.11-1.28.1c-.34,0-.46-.08.46-.15a8.75,8.75,0,0,0-1.56.17c-1.8,0,.7-.17.15-.17l-.75,0h.17a7.1,7.1,0,0,1-1.76.11c-.7-.07-.36-.11-.63-.13a1.66,1.66,0,0,0-.42,0c-.53-.05-1.08,0-1.61-.14.21.06.42.13.63.17-.72,0-1.5-.21-.78,0-.53-.18-2-.36-3.44-.74a12.42,12.42,0,0,1-1.93-.57l-1.11-.39a11.94,11.94,0,0,1-2.84-1.48c.24.19.34.38-.53-.23.11,0,.07-.06-.06-.17a4.71,4.71,0,0,1-.57-.52,9.23,9.23,0,0,1-1.25-1.36c.39.66-1.84-2.35-1.22-1.33-.44-.77,0-.08-.27-.68a14.7,14.7,0,0,1-2.17-6.8s0,.4-.09-.15l0-.69.07-.68a7.89,7.89,0,0,1,0-1.41c0,.13-.05.33,0,0a17.89,17.89,0,0,1,2.52-7.28l1.11-1.62,1.35-1.44a9.57,9.57,0,0,1,1.47-1.3,16,16,0,0,1,1.57-1.17c-.62.35-.21.11.25-.17-.3.18,0,0-.06,0l1.88-1.11c.33-.23,2.14-.95,2.34-1.06l-.63.28c.84-.37-1.2.49-1.08.42a14.52,14.52,0,0,0-1.73.92,10.9,10.9,0,0,0-2.06,1.33c-.3.22.25-.21.08-.09-.33.28-.74.6-1.5,1.18l.08-.07a18.16,18.16,0,0,0-4.25,5.42L300,293l-.53,1c-.29.69.85-1.65.59-1-.64.67-1.66,4.31-1.75,4.9-.18,1,.11-.28-.07.71a1.34,1.34,0,0,0-.07.27l0,.25a4.42,4.42,0,0,1-.12,1l0-.64c0,.43-.07,1-.08,1.58s.1,1,.11,1.15l-.06-1c.07.69.12,1.42.22,2.16s.32,1.49.52,2.22.53,1.44.84,2.11.7,1.28,1.07,1.84a.66.66,0,0,1-.09-.19,16.07,16.07,0,0,0,2.52,3l-.07-.05c.18.13.36.33.6.49l.74.5c-.49-.29.84.68.2.29a5.05,5.05,0,0,0,1.38.74c.18.06.27.07.95.33l.28.21a13.5,13.5,0,0,1,1.59.46c-.88-.25.64.33-.35.05a10.9,10.9,0,0,0,2.65.77c.7.16,1.24.22,1.76.4.55,0,.05-.11-.51-.2a2.84,2.84,0,0,1-.87-.19c-.24-.09,0-.07.36,0s.9.1,1.26.17a14.37,14.37,0,0,0,3.1.56h-.39c.71.1,1.38,0,2.25.1.48-.12,1.12,0,1.26-.15l-1.73,0c1-.06,1.89-.16,3.5-.23-.13,0-.6.11-.93.16.47,0,.9-.1,1.39-.09a17,17,0,0,1-3.13.29c.51.07,2-.13,1.46,0,.74-.28,1.86-.08,3.11-.4l-.07.11c.2-.05.61-.15,1-.2l-.65.22c1-.28,2-.15,3-.46-2,.42-.48,0-1.35.07a9.6,9.6,0,0,1,2-.33,6.64,6.64,0,0,0,2.26-.44c-.37.13-1.42.36-.85.14s1.24-.31,1.58-.35c1.82-.58-.32,0,.44-.32.67-.05.86-.36,1.62-.7l.05.1c2-.76.47-.36,2.25-1.16l-.67.51.89-.5-.13.21c.95-.6,1.29-.69,2.22-1.28-.26.07,0-.25.81-.77.58-.33-.21.33.86-.52a2,2,0,0,1-1,.77c0,.06-.22.22-.25.28a7.59,7.59,0,0,0,1-.64l.81-.7a5.18,5.18,0,0,1-.43.32c.48-.47,1-.92,1.43-1.4.24-.2.11,0-.06.2.29-.28.43-.54.83-1,0,.17.06.21-.49.87l1.23-1.49c.14,0,.69-.71.57-.49a17.26,17.26,0,0,0,1-1.62c.32-.62.62-1.31.9-2a3.89,3.89,0,0,1,.14-.51,11.3,11.3,0,0,0,.82-4l.21-.89c0-1.24-.19,1.2-.3-.85-.12-1.44.12-.55.13-1.06-.14-.72-.51-1.92-.73-3.24C344.24,294,344.3,294.3,344.41,294.7Zm-8.64-12a4.09,4.09,0,0,1,.93.56A2.08,2.08,0,0,1,335.77,282.74Zm-22-1.63a3.42,3.42,0,0,1,.89-.21A6.15,6.15,0,0,1,313.78,281.11ZM320.23,318h0C319.57,318,319.8,318,320.23,318Zm1.31-.06c.13,0,.12,0,.07,0a4.94,4.94,0,0,1-.72.07A2.22,2.22,0,0,0,321.54,317.92Zm-5.53-1.8.26,0C315.69,316.15,315.85,316.14,316,316.12Z" style="fill:#3e494e"></path><path d="M316.22,280.35a.2.2,0,0,1,.13,0C316.46,280.35,316.46,280.33,316.22,280.35Z" style="fill:#3e494e"></path><path d="M343.85,304.06l0,0v0Z" style="fill:#3e494e"></path><path d="M302,314.07a2.46,2.46,0,0,1-.36-.4S301.68,313.78,302,314.07Z" style="fill:#3e494e"></path><path d="M328.34,316.7c-.26.08-.53.14-.8.2.39-.09.54-.09.74-.13C328.25,316.75,328.09,316.77,328.34,316.7Z" style="fill:#3e494e"></path><path d="M335.29,314.56l.33-.2h0C335.12,314.61,334.82,314.82,335.29,314.56Z" style="fill:#3e494e"></path><path d="M329.16,316.74a4.35,4.35,0,0,0,1.14-.29l-.1,0C330.34,316.35,329.75,316.55,329.16,316.74Z" style="fill:#3e494e"></path><path d="M330.43,316.4l.51-.17C331,316.17,330.73,316.29,330.43,316.4Z" style="fill:#3e494e"></path><path d="M323.19,317.7c.28,0,.16-.1.32-.09S321.68,317.92,323.19,317.7Z" style="fill:#3e494e"></path><polygon points="329.67 316.81 329.45 316.79 329.14 316.94 329.67 316.81" style="fill:#3e494e"></polygon><path d="M325.11,317.77l.94-.13s.1,0,.24-.07C325.72,317.66,325.08,317.75,325.11,317.77Z" style="fill:#3e494e"></path><path d="M326.29,317.57c.3-.06.58-.13.74-.18Z" style="fill:#3e494e"></path><path d="M328.43,317.18l-.27.05-.65.14Z" style="fill:#3e494e"></path><path d="M315,318.4c-.35,0-.69,0-1-.07-.11,0,.17.08.55.1S315.16,318.43,315,318.4Z" style="fill:#3e494e"></path><path d="M318.12,318.67a1.86,1.86,0,0,1-.45-.06l0,.12Z" style="fill:#3e494e"></path><path d="M315.1,318.69c-.1.06-1.51,0-.19.08C315,318.74,316.06,318.74,315.1,318.69Z" style="fill:#3e494e"></path><polygon points="301.06 312.7 301.24 312.89 301.37 312.71 301.06 312.7" style="fill:#3e494e"></polygon><path d="M295.58,300.24c-.05,1.27.12.3.1,1.44,0,.15,0-.09,0-.32s0-.46.05-.31C295.71,300.3,295.74,299.89,295.58,300.24Z" style="fill:#3e494e"></path><path d="M295.76,301.05c0,.12,0,.25,0,.39Z" style="fill:#3e494e"></path><polygon points="309.92 284.24 310.64 283.92 310.17 284.12 309.92 284.24" style="fill:#3e494e"></polygon><path d="M311.3,283.63l.17-.07.43-.19Z" style="fill:#3e494e"></path><path d="M333.94,281.35l-.07,0a6.3,6.3,0,0,0,.6.36A5.08,5.08,0,0,0,333.94,281.35Z" style="fill:#3e494e"></path><polygon points="342.1 288.71 342 288.55 342.06 288.93 342.1 288.71" style="fill:#3e494e"></polygon><path d="M345.1,297.49c0-.39-.1-.83-.13-1.22C345.1,297.1,344.93,297.6,345.1,297.49Z" style="fill:#3e494e"></path><rect x="115.88" y="95.69" width="24.73" height="38.07" style="fill:#FFC727"></rect><rect x="115.88" y="95.69" width="24.73" height="38.07" style="opacity:0.1"></rect><rect x="117.53" y="133.76" width="0.5" height="314.82" style="fill:#c7c7c7"></rect><rect x="120.52" y="133.76" width="0.5" height="314.82" style="fill:#c7c7c7"></rect><rect x="123.51" y="133.76" width="0.5" height="314.82" style="fill:#c7c7c7"></rect><rect x="126.5" y="133.76" width="0.5" height="314.82" style="fill:#c7c7c7"></rect><rect x="129.5" y="133.76" width="0.5" height="314.82" style="fill:#c7c7c7"></rect><rect x="132.49" y="133.76" width="0.5" height="314.82" style="fill:#c7c7c7"></rect><rect x="135.48" y="133.76" width="0.5" height="314.82" style="fill:#c7c7c7"></rect><rect x="138.48" y="133.76" width="0.5" height="314.82" style="fill:#c7c7c7"></rect><path d="M185.59,111.94a6.51,6.51,0,1,1-6.51-6.51A6.5,6.5,0,0,1,185.59,111.94Z" style="opacity:0.1"></path><path d="M183,111.94a3.94,3.94,0,1,1-3.94-3.94A3.93,3.93,0,0,1,183,111.94Z" style="fill:#263238"></path><circle cx="213.05" cy="111.94" r="6.51" style="opacity:0.1"></circle><path d="M217,111.94a3.94,3.94,0,1,1-3.94-3.94A3.93,3.93,0,0,1,217,111.94Z" style="fill:#263238"></path><path d="M253.53,111.94a6.51,6.51,0,1,1-6.51-6.51A6.51,6.51,0,0,1,253.53,111.94Z" style="opacity:0.1"></path><path d="M251,111.94A3.94,3.94,0,1,1,247,108,3.94,3.94,0,0,1,251,111.94Z" style="fill:#263238"></path><path d="M287.59,111.94a6.51,6.51,0,1,1-6.51-6.51A6.5,6.5,0,0,1,287.59,111.94Z" style="opacity:0.1"></path><path d="M285,111.94a3.94,3.94,0,1,1-3.94-3.94A3.93,3.93,0,0,1,285,111.94Z" style="fill:#263238"></path><circle cx="315.17" cy="111.94" r="6.51" style="opacity:0.1"></circle><path d="M319.11,111.94a3.94,3.94,0,1,1-3.94-3.94A3.94,3.94,0,0,1,319.11,111.94Z" style="fill:#263238"></path><circle cx="349.06" cy="111.94" r="6.51" style="opacity:0.1"></circle><path d="M353,111.94a3.94,3.94,0,1,1-3.94-3.94A3.93,3.93,0,0,1,353,111.94Z" style="fill:#263238"></path><circle cx="383.06" cy="111.94" r="6.51" style="opacity:0.1"></circle><path d="M387,111.94a3.94,3.94,0,1,1-3.94-3.94A3.94,3.94,0,0,1,387,111.94Z" style="fill:#263238"></path><circle cx="417.17" cy="111.94" r="6.51" style="opacity:0.1"></circle><path d="M421.11,111.94a3.94,3.94,0,1,1-3.94-3.94A3.94,3.94,0,0,1,421.11,111.94Z" style="fill:#263238"></path><path d="M457.59,111.94a6.51,6.51,0,1,1-6.51-6.51A6.51,6.51,0,0,1,457.59,111.94Z" style="opacity:0.1"></path><path d="M455,111.94a3.94,3.94,0,1,1-3.94-3.94A3.94,3.94,0,0,1,455,111.94Z" style="fill:#263238"></path><path d="M491.64,111.94a6.51,6.51,0,1,1-6.51-6.51A6.5,6.5,0,0,1,491.64,111.94Z" style="opacity:0.1"></path><path d="M489.07,111.94a3.94,3.94,0,1,1-3.94-3.94A3.93,3.93,0,0,1,489.07,111.94Z" style="fill:#263238"></path><path d="M525.55,111.94a6.51,6.51,0,1,1-6.51-6.51A6.5,6.5,0,0,1,525.55,111.94Z" style="opacity:0.1"></path><path d="M523,111.94A3.94,3.94,0,1,1,519,108,3.93,3.93,0,0,1,523,111.94Z" style="fill:#263238"></path><path d="M559.6,111.94a6.51,6.51,0,1,1-6.51-6.51A6.5,6.5,0,0,1,559.6,111.94Z" style="opacity:0.1"></path><path d="M557,111.94a3.94,3.94,0,1,1-3.94-3.94A3.93,3.93,0,0,1,557,111.94Z" style="fill:#263238"></path><circle cx="587.07" cy="111.94" r="6.51" style="opacity:0.1"></circle><path d="M591,111.94a3.94,3.94,0,1,1-3.94-3.94A3.93,3.93,0,0,1,591,111.94Z" style="fill:#263238"></path><path d="M182.28,98.18c0,3.25-.36,13.83-.36,13.83,0,3.68-5.69,3.67-5.69,0V95.87c0-8.14-3.55-11.07-7.07-11.07-4.4,0-7,5.3-7,10.88h-5.72c0-12.67,6.06-17.56,12.29-17.56C178.2,78.12,182.28,84.44,182.28,98.18Z" style="fill:#37474f"></path><path d="M216.28,98.18c0,3.25-.36,13.83-.36,13.83,0,3.68-5.68,3.67-5.68,0s0-10.17,0-16.14c0-8.14-3.54-11.07-7.07-11.07-4.4,0-7,5.3-7,10.88h-5.72c0-12.67,6.06-17.56,12.29-17.56C212.2,78.12,216.28,84.44,216.28,98.18Z" style="fill:#37474f"></path><path d="M250.29,98.18c0,3.25-.36,13.83-.36,13.83,0,3.68-5.69,3.67-5.69,0V95.87c0-8.14-3.55-11.07-7.08-11.07-4.4,0-7,5.3-7,10.88h-5.72c0-12.67,6.06-17.56,12.29-17.56C246.2,78.12,250.29,84.44,250.29,98.18Z" style="fill:#37474f"></path><path d="M284.29,98.18c0,3.25-.36,13.83-.36,13.83,0,3.68-5.69,3.67-5.69,0V95.87c0-8.14-3.55-11.07-7.07-11.07-4.4,0-7,5.3-7,10.88h-5.72c0-12.67,6.06-17.56,12.29-17.56C280.21,78.12,284.29,84.44,284.29,98.18Z" style="fill:#37474f"></path><path d="M318.29,98.18c0,3.25-.36,13.83-.36,13.83,0,3.68-5.69,3.67-5.69,0V95.87c0-8.14-3.54-11.07-7.07-11.07-4.4,0-7,5.3-7,10.88h-5.72c0-12.67,6.06-17.56,12.29-17.56C314.21,78.12,318.29,84.44,318.29,98.18Z" style="fill:#37474f"></path><path d="M352.3,98.18c0,3.25-.37,13.83-.37,13.83,0,3.68-5.68,3.67-5.68,0V95.87c0-8.14-3.55-11.07-7.08-11.07-4.4,0-7,5.3-7,10.88h-5.72c0-12.67,6.05-17.56,12.29-17.56C348.21,78.12,352.3,84.44,352.3,98.18Z" style="fill:#37474f"></path><path d="M386.3,98.18c0,3.25-.36,13.83-.36,13.83,0,3.68-5.69,3.67-5.69,0V95.87c0-8.14-3.55-11.07-7.08-11.07-4.4,0-7,5.3-7,10.88h-5.72c0-12.67,6.06-17.56,12.29-17.56C382.22,78.12,386.3,84.44,386.3,98.18Z" style="fill:#37474f"></path><path d="M420.3,98.18c0,3.25-.36,13.83-.36,13.83,0,3.68-5.69,3.67-5.69,0V95.87c0-8.14-3.54-11.07-7.07-11.07-4.4,0-7,5.3-7,10.88h-5.72c0-12.67,6.06-17.56,12.29-17.56C416.22,78.12,420.3,84.44,420.3,98.18Z" style="fill:#37474f"></path><path d="M454.31,98.18c0,3.25-.37,13.83-.37,13.83,0,3.68-5.68,3.67-5.68,0s0-10.17,0-16.14c0-8.14-3.54-11.07-7.07-11.07-4.4,0-7,5.3-7,10.88h-5.73c0-12.67,6.06-17.56,12.3-17.56C450.22,78.12,454.31,84.44,454.31,98.18Z" style="fill:#37474f"></path><path d="M488.31,98.18c0,3.25-.36,13.83-.36,13.83,0,3.68-5.69,3.67-5.69,0V95.87c0-8.14-3.55-11.07-7.08-11.07-4.4,0-7,5.3-7,10.88h-5.72c0-12.67,6.06-17.56,12.29-17.56C484.23,78.12,488.31,84.44,488.31,98.18Z" style="fill:#37474f"></path><path d="M522.31,98.18c0,3.25-.36,13.83-.36,13.83,0,3.68-5.69,3.67-5.69,0V95.87c0-8.14-3.54-11.07-7.07-11.07-4.4,0-7,5.3-7,10.88h-5.72c0-12.67,6.06-17.56,12.29-17.56C518.23,78.12,522.31,84.44,522.31,98.18Z" style="fill:#37474f"></path><path d="M556.32,98.18c0,3.25-.37,13.83-.37,13.83,0,3.68-5.68,3.67-5.68,0s0-10.17,0-16.14c0-8.14-3.54-11.07-7.07-11.07-4.4,0-7,5.3-7,10.88h-5.73c0-12.67,6.06-17.56,12.29-17.56C552.23,78.12,556.32,84.44,556.32,98.18Z" style="fill:#37474f"></path><path d="M590.32,98.18c0,3.25-.36,13.83-.36,13.83,0,3.68-5.69,3.67-5.69,0V95.87c0-8.14-3.55-11.07-7.08-11.07-4.4,0-7,5.3-7,10.88h-5.72c0-12.67,6.06-17.56,12.29-17.56C586.24,78.12,590.32,84.44,590.32,98.18Z" style="fill:#37474f"></path></g><g id="freepik--Floor--inject-149"><path d="M60.33,448.58c201.6-.61,427.74-.62,629.34,0-201.6.62-427.74.61-629.34,0Z" style="fill:#263238"></path></g><g id="freepik--Notes--inject-149"><path d="M399.59,267.5h-39a20.88,20.88,0,0,1-1.93-7.76V228.49h39v31.65C397.66,263.3,399.59,267.5,399.59,267.5Z" style="fill:#37474f"></path><path d="M365.36,237.71c4.58-.38,9.17-.47,13.76-.49s9.17.11,13.76.49c-4.59.38-9.17.46-13.76.48S369.94,238.08,365.36,237.71Z" style="fill:#fff"></path><path d="M365.36,242.85c4.12-.38,8.25-.46,12.38-.48s8.25.1,12.37.48c-4.12.38-8.25.47-12.37.48S369.48,243.23,365.36,242.85Z" style="fill:#fff"></path><path d="M365.36,248c3.61-.37,7.22-.46,10.82-.48s7.22.1,10.83.48c-3.61.38-7.22.47-10.83.49S369,248.37,365.36,248Z" style="fill:#fff"></path><path d="M365.36,253.14c4.58-.38,9.17-.47,13.76-.49s9.17.11,13.76.49c-4.59.38-9.17.46-13.76.48S369.94,253.51,365.36,253.14Z" style="fill:#fff"></path><path d="M344.68,372h-39a20.89,20.89,0,0,1-1.93-7.77V333h39v31.65C342.75,367.78,344.68,372,344.68,372Z" style="fill:#455a64"></path><path d="M310.45,342.19c4.58-.38,9.17-.47,13.76-.49s9.17.11,13.76.49c-4.59.37-9.17.46-13.76.48S315,342.56,310.45,342.19Z" style="fill:#fff"></path><path d="M310.45,347.33c4.12-.38,8.25-.46,12.37-.48s8.26.1,12.38.48c-4.12.38-8.25.47-12.38.48S314.57,347.71,310.45,347.33Z" style="fill:#fff"></path><path d="M310.45,352.47c3.6-.37,7.21-.46,10.82-.48s7.22.1,10.83.48c-3.61.38-7.22.47-10.83.49S314.05,352.85,310.45,352.47Z" style="fill:#fff"></path><path d="M310.45,357.62c4.58-.38,9.17-.47,13.76-.49s9.17.11,13.76.49c-4.59.37-9.17.46-13.76.48S315,358,310.45,357.62Z" style="fill:#fff"></path><path d="M288.53,266.8h-39a20.81,20.81,0,0,1-1.94-7.77V227.79h39v31.65C286.59,262.6,288.53,266.8,288.53,266.8Z" style="fill:#a6a6a6"></path><path d="M254.29,237c4.59-.38,9.18-.47,13.77-.49s9.17.11,13.76.49c-4.59.37-9.18.46-13.76.48S258.88,237.38,254.29,237Z" style="fill:#fff"></path><path d="M254.29,242.15c4.13-.38,8.26-.46,12.38-.48s8.25.1,12.38.48c-4.13.38-8.25.46-12.38.48S258.42,242.53,254.29,242.15Z" style="fill:#fff"></path><path d="M254.29,247.29c3.61-.37,7.22-.46,10.83-.48s7.22.1,10.83.48c-3.61.38-7.22.47-10.83.49S257.9,247.67,254.29,247.29Z" style="fill:#fff"></path><path d="M254.29,252.44c4.59-.38,9.18-.47,13.77-.49s9.17.11,13.76.49c-4.59.37-9.18.46-13.76.48S258.88,252.81,254.29,252.44Z" style="fill:#fff"></path><path d="M442.94,424.27h-31a54.09,54.09,0,0,1-.67-7.76V385.26h39v31.65C450.26,420.07,442.94,424.27,442.94,424.27Z" style="fill:#FFC727"></path><path d="M450.26,416.9c0,3.08-6.88,7.1-7.31,7.35,1.14-.77.95-6.88.95-6.88S450.15,416.56,450.26,416.9Z" style="opacity:0.2"></path><path d="M417,394.48c4.58-.38,9.17-.47,13.76-.49s9.17.11,13.76.49c-4.59.38-9.17.46-13.76.48S421.58,394.85,417,394.48Z" style="fill:#fff"></path><path d="M417,399.62c3.6-.38,7.21-.46,10.82-.48s7.22.1,10.83.48a106,106,0,0,1-10.83.48C424.21,400.08,420.6,400,417,399.62Z" style="fill:#fff"></path><path d="M417,404.76c3.6-.37,7.21-.46,10.82-.48s7.22.11,10.83.48c-3.61.38-7.22.47-10.83.49S420.6,405.14,417,404.76Z" style="fill:#fff"></path><path d="M548.36,318.61h-31a54.32,54.32,0,0,1-.67-7.77V279.6h39v31.65C555.69,314.41,548.36,318.61,548.36,318.61Z" style="fill:#FFC727"></path><path d="M555.68,311.24c0,3.08-6.88,7.1-7.3,7.35,1.14-.77.94-6.88.94-6.88S555.57,310.89,555.68,311.24Z" style="opacity:0.2"></path><path d="M522.42,288.82c4.58-.38,9.17-.47,13.76-.49s9.18.11,13.76.49c-4.58.37-9.17.46-13.76.48S527,289.19,522.42,288.82Z" style="fill:#fff"></path><path d="M522.42,294c3.61-.38,7.22-.46,10.82-.48a106,106,0,0,1,10.83.48c-3.61.38-7.22.46-10.83.48S526,294.34,522.42,294Z" style="fill:#fff"></path><path d="M522.42,299.1c3.61-.37,7.22-.46,10.82-.48s7.22.1,10.83.48c-3.61.38-7.22.47-10.83.49S526,299.48,522.42,299.1Z" style="fill:#fff"></path></g><g id="freepik--speech-bubbles--inject-149"><polygon points="206.71 219.05 206.71 243.88 210.19 243.88 210.19 249.9 216.21 243.88 249.26 243.88 249.26 219.05 206.71 219.05" style="fill:#fff"></polygon><path d="M206.71,219.05c.09,6.2.23,18.64.3,24.83l-.3-.3c.09,0,3.86,0,3.8,0v.33l0,6-.63-.26,6-6.06c.15-.15.11-.13.3-.13l33-.06-.49.49.07-24.83.42.43c-10.6-.06-31.95-.29-42.55-.43Zm0,0c10.82-.14,32.15-.36,43-.43v.43l.06,24.83v.49h-.49l-33-.06.31-.13-6.71,6.62c0-.3.07-6.41.06-6.92l.32.33-3.48,0h-.31c.07-6.34.21-18.79.31-25.13Z" style="fill:#263238"></path><path d="M236,231.47a2,2,0,1,0,2-2A2,2,0,0,0,236,231.47Z" style="fill:#263238"></path><path d="M226,231.47a2,2,0,1,0,2-2A2,2,0,0,0,226,231.47Z" style="fill:#263238"></path><path d="M215.91,231.47a2,2,0,1,0,2-2A2,2,0,0,0,215.91,231.47Z" style="fill:#263238"></path><polygon points="592.16 99.35 592.16 124.17 595.65 124.17 595.65 130.19 601.67 124.17 634.72 124.17 634.72 99.35 592.16 99.35" style="fill:#fff"></polygon><path d="M592.16,99.35c.1,6.19.23,18.63.3,24.82l-.3-.3c.1,0,3.86,0,3.81,0v.33l0,6-.63-.26,6-6.06c.14-.15.11-.12.3-.12l33.05-.07-.49.49.06-24.82.43.42c-10.61-.06-32-.29-42.56-.42Zm0,0c10.83-.14,32.16-.37,43-.43v.43l.06,24.82v.49h-.49l-33.05-.06.3-.13c-.2.21-6.77,6.69-6.7,6.62,0-.3.07-6.41.05-6.92l.33.33-3.49,0h-.3c.07-6.34.21-18.79.3-25.12Z" style="fill:#263238"></path><path d="M621.49,111.76a2,2,0,1,0,2-2A2,2,0,0,0,621.49,111.76Z" style="fill:#263238"></path><path d="M611.42,111.76a2,2,0,1,0,2-2A2,2,0,0,0,611.42,111.76Z" style="fill:#263238"></path><path d="M601.36,111.76a2,2,0,1,0,2-2A2,2,0,0,0,601.36,111.76Z" style="fill:#263238"></path></g></svg>
