<svg width="402" height="558" viewBox="0 0 402 558" fill="none" xmlns="http://www.w3.org/2000/svg">
<rect width="402" height="558" fill="white"/>
<path d="M16.8672 40.5547V38.6406C17.0391 38.7969 17.2422 38.9375 17.4766 39.0625C17.7161 39.1875 17.9688 39.2943 18.2344 39.3828C18.5 39.4661 18.7656 39.5312 19.0312 39.5781C19.2969 39.625 19.5417 39.6484 19.7656 39.6484C20.5469 39.6484 21.1276 39.5182 21.5078 39.2578C21.8932 38.9974 22.0859 38.6198 22.0859 38.125C22.0859 37.8594 22.0208 37.6302 21.8906 37.4375C21.7656 37.2396 21.5885 37.0599 21.3594 36.8984C21.1302 36.737 20.8594 36.5833 20.5469 36.4375C20.2396 36.2865 19.9089 36.1302 19.5547 35.9688C19.1745 35.7656 18.8203 35.5599 18.4922 35.3516C18.1641 35.1432 17.8776 34.9141 17.6328 34.6641C17.3932 34.4089 17.2031 34.1224 17.0625 33.8047C16.9271 33.487 16.8594 33.1146 16.8594 32.6875C16.8594 32.1615 16.9766 31.7057 17.2109 31.3203C17.4505 30.9297 17.763 30.6094 18.1484 30.3594C18.5391 30.1042 18.9818 29.9167 19.4766 29.7969C19.9714 29.6719 20.4766 29.6094 20.9922 29.6094C22.1641 29.6094 23.0182 29.7422 23.5547 30.0078V31.8438C22.9193 31.3854 22.1016 31.1562 21.1016 31.1562C20.8255 31.1562 20.5495 31.1823 20.2734 31.2344C20.0026 31.2865 19.7578 31.3724 19.5391 31.4922C19.3255 31.612 19.151 31.7656 19.0156 31.9531C18.8802 32.1406 18.8125 32.3672 18.8125 32.6328C18.8125 32.8828 18.8646 33.099 18.9688 33.2812C19.0729 33.4635 19.224 33.6302 19.4219 33.7812C19.625 33.9323 19.8698 34.0807 20.1562 34.2266C20.4479 34.3672 20.7839 34.5208 21.1641 34.6875C21.5547 34.8906 21.9219 35.1042 22.2656 35.3281C22.6146 35.5521 22.9193 35.7995 23.1797 36.0703C23.4453 36.3411 23.6536 36.6432 23.8047 36.9766C23.9609 37.3047 24.0391 37.6797 24.0391 38.1016C24.0391 38.6693 23.9245 39.1484 23.6953 39.5391C23.4661 39.9297 23.1562 40.2474 22.7656 40.4922C22.3802 40.737 21.9349 40.9141 21.4297 41.0234C20.9245 41.1328 20.3906 41.1875 19.8281 41.1875C19.6406 41.1875 19.4089 41.1719 19.1328 41.1406C18.862 41.1146 18.5833 41.0729 18.2969 41.0156C18.0104 40.9635 17.7396 40.8984 17.4844 40.8203C17.2292 40.7422 17.0234 40.6536 16.8672 40.5547ZM32.6719 37.4922H27.2188C27.2396 38.2318 27.4661 38.8021 27.8984 39.2031C28.3359 39.6042 28.9349 39.8047 29.6953 39.8047C30.5495 39.8047 31.3333 39.5495 32.0469 39.0391V40.5C31.3177 40.9583 30.3542 41.1875 29.1562 41.1875C27.9792 41.1875 27.0547 40.8255 26.3828 40.1016C25.7161 39.3724 25.3828 38.349 25.3828 37.0312C25.3828 35.7865 25.75 34.7734 26.4844 33.9922C27.224 33.2057 28.1406 32.8125 29.2344 32.8125C30.3281 32.8125 31.1745 33.1641 31.7734 33.8672C32.3724 34.5703 32.6719 35.5469 32.6719 36.7969V37.4922ZM30.9219 36.2109C30.9167 35.5599 30.763 35.0547 30.4609 34.6953C30.1589 34.3307 29.7422 34.1484 29.2109 34.1484C28.6901 34.1484 28.2474 34.3385 27.8828 34.7188C27.5234 35.099 27.3021 35.5964 27.2188 36.2109H30.9219ZM41.5234 41H39.7109V36.4922C39.7109 34.9974 39.1823 34.25 38.125 34.25C37.5729 34.25 37.1172 34.4583 36.7578 34.875C36.3984 35.2865 36.2188 35.8073 36.2188 36.4375V41H34.3984V33H36.2188V34.3281H36.25C36.849 33.3177 37.7135 32.8125 38.8438 32.8125C39.7135 32.8125 40.3776 33.0964 40.8359 33.6641C41.2943 34.2266 41.5234 35.0417 41.5234 36.1094V41ZM51.0156 41H49.2031V39.6406H49.1719C48.5885 40.6719 47.6901 41.1875 46.4766 41.1875C45.4922 41.1875 44.7031 40.8307 44.1094 40.1172C43.5208 39.3984 43.2266 38.4219 43.2266 37.1875C43.2266 35.8646 43.5521 34.8047 44.2031 34.0078C44.8594 33.2109 45.7318 32.8125 46.8203 32.8125C47.8984 32.8125 48.6823 33.2448 49.1719 34.1094H49.2031V29.1562H51.0156V41ZM49.2266 37.3438V36.2969C49.2266 35.7292 49.0417 35.2474 48.6719 34.8516C48.3021 34.4557 47.8307 34.2578 47.2578 34.2578C46.5807 34.2578 46.0469 34.5104 45.6562 35.0156C45.2708 35.5208 45.0781 36.2214 45.0781 37.1172C45.0781 37.9297 45.263 38.5729 45.6328 39.0469C46.0078 39.5156 46.5104 39.75 47.1406 39.75C47.7604 39.75 48.263 39.5234 48.6484 39.0703C49.0339 38.612 49.2266 38.0365 49.2266 37.3438ZM57.4766 40.5547V38.6406C57.6484 38.7969 57.8516 38.9375 58.0859 39.0625C58.3255 39.1875 58.5781 39.2943 58.8438 39.3828C59.1094 39.4661 59.375 39.5312 59.6406 39.5781C59.9062 39.625 60.151 39.6484 60.375 39.6484C61.1562 39.6484 61.737 39.5182 62.1172 39.2578C62.5026 38.9974 62.6953 38.6198 62.6953 38.125C62.6953 37.8594 62.6302 37.6302 62.5 37.4375C62.375 37.2396 62.1979 37.0599 61.9688 36.8984C61.7396 36.737 61.4688 36.5833 61.1562 36.4375C60.849 36.2865 60.5182 36.1302 60.1641 35.9688C59.7839 35.7656 59.4297 35.5599 59.1016 35.3516C58.7734 35.1432 58.487 34.9141 58.2422 34.6641C58.0026 34.4089 57.8125 34.1224 57.6719 33.8047C57.5365 33.487 57.4688 33.1146 57.4688 32.6875C57.4688 32.1615 57.5859 31.7057 57.8203 31.3203C58.0599 30.9297 58.3724 30.6094 58.7578 30.3594C59.1484 30.1042 59.5911 29.9167 60.0859 29.7969C60.5807 29.6719 61.0859 29.6094 61.6016 29.6094C62.7734 29.6094 63.6276 29.7422 64.1641 30.0078V31.8438C63.5286 31.3854 62.7109 31.1562 61.7109 31.1562C61.4349 31.1562 61.1589 31.1823 60.8828 31.2344C60.612 31.2865 60.3672 31.3724 60.1484 31.4922C59.9349 31.612 59.7604 31.7656 59.625 31.9531C59.4896 32.1406 59.4219 32.3672 59.4219 32.6328C59.4219 32.8828 59.474 33.099 59.5781 33.2812C59.6823 33.4635 59.8333 33.6302 60.0312 33.7812C60.2344 33.9323 60.4792 34.0807 60.7656 34.2266C61.0573 34.3672 61.3932 34.5208 61.7734 34.6875C62.1641 34.8906 62.5312 35.1042 62.875 35.3281C63.224 35.5521 63.5286 35.7995 63.7891 36.0703C64.0547 36.3411 64.263 36.6432 64.4141 36.9766C64.5703 37.3047 64.6484 37.6797 64.6484 38.1016C64.6484 38.6693 64.5339 39.1484 64.3047 39.5391C64.0755 39.9297 63.7656 40.2474 63.375 40.4922C62.9896 40.737 62.5443 40.9141 62.0391 41.0234C61.5339 41.1328 61 41.1875 60.4375 41.1875C60.25 41.1875 60.0182 41.1719 59.7422 41.1406C59.4714 41.1146 59.1927 41.0729 58.9062 41.0156C58.6198 40.9635 58.349 40.8984 58.0938 40.8203C57.8385 40.7422 57.6328 40.6536 57.4766 40.5547ZM72.2344 40.6328C71.5938 41.0026 70.8359 41.1875 69.9609 41.1875C68.7734 41.1875 67.8151 40.8177 67.0859 40.0781C66.3568 39.3333 65.9922 38.3698 65.9922 37.1875C65.9922 35.8698 66.3828 34.8125 67.1641 34.0156C67.9505 33.2135 69 32.8125 70.3125 32.8125C71.0417 32.8125 71.6849 32.9401 72.2422 33.1953V34.8828C71.6849 34.4661 71.0911 34.2578 70.4609 34.2578C69.6953 34.2578 69.0677 34.5182 68.5781 35.0391C68.0885 35.5547 67.8438 36.2318 67.8438 37.0703C67.8438 37.8984 68.0729 38.5521 68.5312 39.0312C68.9948 39.5104 69.6146 39.75 70.3906 39.75C71.0417 39.75 71.6562 39.5182 72.2344 39.0547V40.6328ZM81.1484 41H79.3359V36.625C79.3359 35.0417 78.8073 34.25 77.75 34.25C77.2188 34.25 76.7708 34.4792 76.4062 34.9375C76.0417 35.3958 75.8594 35.9818 75.8594 36.6953V41H74.0391V29.1562H75.8594V34.3281H75.8906C76.4948 33.3177 77.3594 32.8125 78.4844 32.8125C80.2604 32.8125 81.1484 33.8984 81.1484 36.0703V41ZM90.125 37.4922H84.6719C84.6927 38.2318 84.9193 38.8021 85.3516 39.2031C85.7891 39.6042 86.388 39.8047 87.1484 39.8047C88.0026 39.8047 88.7865 39.5495 89.5 39.0391V40.5C88.7708 40.9583 87.8073 41.1875 86.6094 41.1875C85.4323 41.1875 84.5078 40.8255 83.8359 40.1016C83.1693 39.3724 82.8359 38.349 82.8359 37.0312C82.8359 35.7865 83.2031 34.7734 83.9375 33.9922C84.6771 33.2057 85.5938 32.8125 86.6875 32.8125C87.7812 32.8125 88.6276 33.1641 89.2266 33.8672C89.8255 34.5703 90.125 35.5469 90.125 36.7969V37.4922ZM88.375 36.2109C88.3698 35.5599 88.2161 35.0547 87.9141 34.6953C87.612 34.3307 87.1953 34.1484 86.6641 34.1484C86.1432 34.1484 85.7005 34.3385 85.3359 34.7188C84.9766 35.099 84.7552 35.5964 84.6719 36.2109H88.375ZM99.125 41H97.3125V39.6406H97.2812C96.6979 40.6719 95.7995 41.1875 94.5859 41.1875C93.6016 41.1875 92.8125 40.8307 92.2188 40.1172C91.6302 39.3984 91.3359 38.4219 91.3359 37.1875C91.3359 35.8646 91.6615 34.8047 92.3125 34.0078C92.9688 33.2109 93.8411 32.8125 94.9297 32.8125C96.0078 32.8125 96.7917 33.2448 97.2812 34.1094H97.3125V29.1562H99.125V41ZM97.3359 37.3438V36.2969C97.3359 35.7292 97.151 35.2474 96.7812 34.8516C96.4115 34.4557 95.9401 34.2578 95.3672 34.2578C94.6901 34.2578 94.1562 34.5104 93.7656 35.0156C93.3802 35.5208 93.1875 36.2214 93.1875 37.1172C93.1875 37.9297 93.3724 38.5729 93.7422 39.0469C94.1172 39.5156 94.6198 39.75 95.25 39.75C95.8698 39.75 96.3724 39.5234 96.7578 39.0703C97.1432 38.612 97.3359 38.0365 97.3359 37.3438ZM108.469 41H106.656V39.7344H106.625C106.099 40.7031 105.281 41.1875 104.172 41.1875C102.281 41.1875 101.336 40.0521 101.336 37.7812V33H103.148V37.5938C103.148 39.0312 103.703 39.75 104.812 39.75C105.349 39.75 105.789 39.5521 106.133 39.1562C106.482 38.7604 106.656 38.2422 106.656 37.6016V33H108.469V41ZM112.656 41H110.836V29.1562H112.656V41ZM121.797 37.4922H116.344C116.365 38.2318 116.591 38.8021 117.023 39.2031C117.461 39.6042 118.06 39.8047 118.82 39.8047C119.674 39.8047 120.458 39.5495 121.172 39.0391V40.5C120.443 40.9583 119.479 41.1875 118.281 41.1875C117.104 41.1875 116.18 40.8255 115.508 40.1016C114.841 39.3724 114.508 38.349 114.508 37.0312C114.508 35.7865 114.875 34.7734 115.609 33.9922C116.349 33.2057 117.266 32.8125 118.359 32.8125C119.453 32.8125 120.299 33.1641 120.898 33.8672C121.497 34.5703 121.797 35.5469 121.797 36.7969V37.4922ZM120.047 36.2109C120.042 35.5599 119.888 35.0547 119.586 34.6953C119.284 34.3307 118.867 34.1484 118.336 34.1484C117.815 34.1484 117.372 34.3385 117.008 34.7188C116.648 35.099 116.427 35.5964 116.344 36.2109H120.047ZM132.148 40.9141C131.794 41.0911 131.328 41.1797 130.75 41.1797C129.198 41.1797 128.422 40.4349 128.422 38.9453V34.4219H127.086V33H128.422V31.1484L130.234 30.6328V33H132.148V34.4219H130.234V38.4219C130.234 38.8958 130.32 39.2344 130.492 39.4375C130.664 39.6406 130.951 39.7422 131.352 39.7422C131.659 39.7422 131.924 39.6536 132.148 39.4766V40.9141ZM137.164 41.1875C135.93 41.1875 134.943 40.8151 134.203 40.0703C133.469 39.3203 133.102 38.3281 133.102 37.0938C133.102 35.75 133.484 34.7005 134.25 33.9453C135.021 33.1901 136.057 32.8125 137.359 32.8125C138.609 32.8125 139.583 33.1797 140.281 33.9141C140.979 34.6484 141.328 35.6667 141.328 36.9688C141.328 38.2448 140.951 39.2682 140.195 40.0391C139.445 40.8047 138.435 41.1875 137.164 41.1875ZM137.25 34.2578C136.542 34.2578 135.982 34.5052 135.57 35C135.159 35.4948 134.953 36.1771 134.953 37.0469C134.953 37.8854 135.161 38.5469 135.578 39.0312C135.995 39.5104 136.552 39.75 137.25 39.75C137.964 39.75 138.51 39.513 138.891 39.0391C139.276 38.5651 139.469 37.8906 139.469 37.0156C139.469 36.1354 139.276 35.4557 138.891 34.9766C138.51 34.4974 137.964 34.2578 137.25 34.2578ZM154.359 37.4922H148.906C148.927 38.2318 149.154 38.8021 149.586 39.2031C150.023 39.6042 150.622 39.8047 151.383 39.8047C152.237 39.8047 153.021 39.5495 153.734 39.0391V40.5C153.005 40.9583 152.042 41.1875 150.844 41.1875C149.667 41.1875 148.742 40.8255 148.07 40.1016C147.404 39.3724 147.07 38.349 147.07 37.0312C147.07 35.7865 147.438 34.7734 148.172 33.9922C148.911 33.2057 149.828 32.8125 150.922 32.8125C152.016 32.8125 152.862 33.1641 153.461 33.8672C154.06 34.5703 154.359 35.5469 154.359 36.7969V37.4922ZM152.609 36.2109C152.604 35.5599 152.451 35.0547 152.148 34.6953C151.846 34.3307 151.43 34.1484 150.898 34.1484C150.378 34.1484 149.935 34.3385 149.57 34.7188C149.211 35.099 148.99 35.5964 148.906 36.2109H152.609ZM168.047 41H166.234V36.6406C166.234 35.8021 166.115 35.1953 165.875 34.8203C165.641 34.4453 165.242 34.2578 164.68 34.2578C164.206 34.2578 163.802 34.4948 163.469 34.9688C163.141 35.4427 162.977 36.0104 162.977 36.6719V41H161.156V36.4922C161.156 35.0026 160.63 34.2578 159.578 34.2578C159.089 34.2578 158.685 34.4818 158.367 34.9297C158.055 35.3776 157.898 35.9583 157.898 36.6719V41H156.086V33H157.898V34.2656H157.93C158.508 33.2969 159.349 32.8125 160.453 32.8125C161.005 32.8125 161.487 32.9661 161.898 33.2734C162.315 33.5755 162.599 33.974 162.75 34.4688C163.344 33.3646 164.229 32.8125 165.406 32.8125C167.167 32.8125 168.047 33.8984 168.047 36.0703V41ZM176.398 41H174.641V39.75H174.609C174.057 40.7083 173.247 41.1875 172.18 41.1875C171.393 41.1875 170.776 40.974 170.328 40.5469C169.885 40.1198 169.664 39.5547 169.664 38.8516C169.664 37.3411 170.534 36.4609 172.273 36.2109L174.648 35.875C174.648 34.7344 174.107 34.1641 173.023 34.1641C172.07 34.1641 171.211 34.4922 170.445 35.1484V33.5625C171.289 33.0625 172.263 32.8125 173.367 32.8125C175.388 32.8125 176.398 33.8073 176.398 35.7969V41ZM174.648 37.0703L172.969 37.3047C172.448 37.3724 172.055 37.5 171.789 37.6875C171.529 37.8698 171.398 38.1927 171.398 38.6562C171.398 38.9948 171.518 39.2734 171.758 39.4922C172.003 39.7057 172.328 39.8125 172.734 39.8125C173.286 39.8125 173.742 39.6198 174.102 39.2344C174.466 38.8438 174.648 38.3542 174.648 37.7656V37.0703ZM179.531 31.3203C179.234 31.3203 178.979 31.224 178.766 31.0312C178.557 30.8385 178.453 30.5938 178.453 30.2969C178.453 30 178.557 29.7526 178.766 29.5547C178.979 29.3568 179.234 29.2578 179.531 29.2578C179.839 29.2578 180.099 29.3568 180.312 29.5547C180.526 29.7526 180.633 30 180.633 30.2969C180.633 30.5781 180.526 30.8203 180.312 31.0234C180.099 31.2214 179.839 31.3203 179.531 31.3203ZM180.43 41H178.617V33H180.43V41ZM184.625 41H182.805V29.1562H184.625V41Z" fill="black"/>
<path d="M372.589 29.2157L372.646 29.1464C372.82 28.9729 373.089 28.9536 373.284 29.0886L373.354 29.1464L378 33.793L382.646 29.1464C382.842 28.9512 383.158 28.9512 383.354 29.1464C383.549 29.3417 383.549 29.6583 383.354 29.8536L378.707 34.5L383.354 39.1464C383.527 39.32 383.546 39.5894 383.411 39.7843L383.354 39.8536C383.18 40.0271 382.911 40.0464 382.716 39.9114L382.646 39.8536L378 35.207L373.354 39.8536C373.158 40.0488 372.842 40.0488 372.646 39.8536C372.451 39.6583 372.451 39.3417 372.646 39.1464L377.293 34.5L372.646 29.8536C372.473 29.68 372.454 29.4106 372.589 29.2157L372.646 29.1464L372.589 29.2157Z" fill="#242424"/>
<path d="M18.4336 64.2949V68H17.2852V58.1973H19.9785C21.0267 58.1973 21.8379 58.4525 22.4121 58.9629C22.9909 59.4733 23.2803 60.1934 23.2803 61.123C23.2803 62.0527 22.959 62.8138 22.3164 63.4062C21.6784 63.9987 20.8148 64.2949 19.7256 64.2949H18.4336ZM18.4336 59.2363V63.2559H19.6367C20.4297 63.2559 21.0335 63.0758 21.4482 62.7158C21.8675 62.3512 22.0771 61.8385 22.0771 61.1777C22.0771 59.8835 21.3115 59.2363 19.7803 59.2363H18.4336ZM28.6328 62.1348C28.4368 61.9844 28.1543 61.9092 27.7852 61.9092C27.3066 61.9092 26.9056 62.1348 26.582 62.5859C26.263 63.0371 26.1035 63.6523 26.1035 64.4316V68H24.9824V61H26.1035V62.4424H26.1309C26.2904 61.9502 26.5342 61.5674 26.8623 61.2939C27.1904 61.016 27.5573 60.877 27.9629 60.877C28.2546 60.877 28.4779 60.9089 28.6328 60.9727V62.1348ZM32.7754 68.1641C31.7409 68.1641 30.9137 67.8382 30.2939 67.1865C29.6787 66.5303 29.3711 65.6621 29.3711 64.582C29.3711 63.4062 29.6924 62.488 30.335 61.8271C30.9775 61.1663 31.8457 60.8359 32.9395 60.8359C33.9831 60.8359 34.7965 61.1572 35.3799 61.7998C35.9678 62.4424 36.2617 63.3333 36.2617 64.4727C36.2617 65.5892 35.945 66.4847 35.3115 67.1592C34.6826 67.8291 33.8372 68.1641 32.7754 68.1641ZM32.8574 61.7793C32.1374 61.7793 31.5677 62.0254 31.1484 62.5176C30.7292 63.0052 30.5195 63.6797 30.5195 64.541C30.5195 65.3704 30.7314 66.0244 31.1553 66.5029C31.5791 66.9814 32.1465 67.2207 32.8574 67.2207C33.582 67.2207 34.138 66.986 34.5254 66.5166C34.9173 66.0472 35.1133 65.3796 35.1133 64.5137C35.1133 63.6387 34.9173 62.9642 34.5254 62.4902C34.138 62.0163 33.582 61.7793 32.8574 61.7793ZM43.5557 61L40.7666 68H39.666L37.0137 61H38.2441L40.0215 66.0859C40.1536 66.4596 40.2357 66.7855 40.2676 67.0635H40.2949C40.3405 66.7126 40.4134 66.3958 40.5137 66.1133L42.373 61H43.5557ZM45.3398 59.2227C45.1393 59.2227 44.9684 59.1543 44.8271 59.0176C44.6859 58.8809 44.6152 58.7077 44.6152 58.498C44.6152 58.2884 44.6859 58.1152 44.8271 57.9785C44.9684 57.8372 45.1393 57.7666 45.3398 57.7666C45.5449 57.7666 45.7181 57.8372 45.8594 57.9785C46.0052 58.1152 46.0781 58.2884 46.0781 58.498C46.0781 58.6986 46.0052 58.8695 45.8594 59.0107C45.7181 59.152 45.5449 59.2227 45.3398 59.2227ZM45.8867 68H44.7656V61H45.8867V68ZM54.1309 68H53.0098V66.8105H52.9824C52.4629 67.7129 51.6608 68.1641 50.5762 68.1641C49.6966 68.1641 48.9925 67.8519 48.4639 67.2275C47.9398 66.5986 47.6777 65.7441 47.6777 64.6641C47.6777 63.5065 47.9694 62.5791 48.5527 61.8818C49.1361 61.1846 49.9131 60.8359 50.8838 60.8359C51.8454 60.8359 52.5449 61.2142 52.9824 61.9707H53.0098V57.6367H54.1309V68ZM53.0098 64.835V63.8027C53.0098 63.2376 52.8229 62.7591 52.4492 62.3672C52.0755 61.9753 51.6016 61.7793 51.0273 61.7793C50.3438 61.7793 49.806 62.0299 49.4141 62.5312C49.0221 63.0326 48.8262 63.7253 48.8262 64.6094C48.8262 65.416 49.013 66.054 49.3867 66.5234C49.765 66.9883 50.2708 67.2207 50.9043 67.2207C51.5286 67.2207 52.0345 66.9951 52.4219 66.5439C52.8138 66.0928 53.0098 65.5231 53.0098 64.835ZM62.0264 64.7803H57.084C57.1022 65.5596 57.3118 66.1611 57.7129 66.585C58.1139 67.0088 58.6654 67.2207 59.3672 67.2207C60.1556 67.2207 60.8802 66.9609 61.541 66.4414V67.4941C60.9258 67.9408 60.1123 68.1641 59.1006 68.1641C58.1117 68.1641 57.3346 67.8473 56.7695 67.2139C56.2044 66.5758 55.9219 65.6803 55.9219 64.5273C55.9219 63.4382 56.2295 62.5518 56.8447 61.8682C57.4645 61.18 58.2324 60.8359 59.1484 60.8359C60.0645 60.8359 60.7731 61.1322 61.2744 61.7246C61.7757 62.3171 62.0264 63.1396 62.0264 64.1924V64.7803ZM60.8779 63.8301C60.8734 63.1829 60.7161 62.6794 60.4062 62.3193C60.1009 61.9593 59.6748 61.7793 59.1279 61.7793C58.5993 61.7793 58.1504 61.9684 57.7812 62.3467C57.4121 62.7249 57.1842 63.2194 57.0977 63.8301H60.8779ZM72.5811 68H71.46V66.9062H71.4326C70.945 67.7448 70.2272 68.1641 69.2793 68.1641C68.582 68.1641 68.0352 67.9795 67.6387 67.6104C67.2467 67.2412 67.0508 66.7513 67.0508 66.1406C67.0508 64.8327 67.821 64.0716 69.3613 63.8574L71.46 63.5635C71.46 62.374 70.9792 61.7793 70.0176 61.7793C69.1745 61.7793 68.4134 62.0664 67.7344 62.6406V61.4922C68.4225 61.0547 69.2155 60.8359 70.1133 60.8359C71.7585 60.8359 72.5811 61.7064 72.5811 63.4473V68ZM71.46 64.459L69.7715 64.6914C69.252 64.7643 68.86 64.8942 68.5957 65.0811C68.3314 65.2633 68.1992 65.5892 68.1992 66.0586C68.1992 66.4004 68.32 66.6807 68.5615 66.8994C68.8076 67.1136 69.1335 67.2207 69.5391 67.2207C70.0951 67.2207 70.5531 67.027 70.9131 66.6396C71.2777 66.2477 71.46 65.7533 71.46 65.1562V64.459ZM80.5039 68H79.3828V64.0078C79.3828 62.5221 78.8405 61.7793 77.7559 61.7793C77.1953 61.7793 76.7305 61.9912 76.3613 62.415C75.9967 62.8343 75.8145 63.3652 75.8145 64.0078V68H74.6934V61H75.8145V62.1621H75.8418C76.3704 61.278 77.1361 60.8359 78.1387 60.8359C78.9043 60.8359 79.4899 61.0843 79.8955 61.5811C80.3011 62.0732 80.5039 62.7865 80.5039 63.7207V68ZM92.0908 64.7803H87.1484C87.1667 65.5596 87.3763 66.1611 87.7773 66.585C88.1784 67.0088 88.7298 67.2207 89.4316 67.2207C90.2201 67.2207 90.9447 66.9609 91.6055 66.4414V67.4941C90.9902 67.9408 90.1768 68.1641 89.165 68.1641C88.1761 68.1641 87.3991 67.8473 86.834 67.2139C86.2689 66.5758 85.9863 65.6803 85.9863 64.5273C85.9863 63.4382 86.2939 62.5518 86.9092 61.8682C87.529 61.18 88.2969 60.8359 89.2129 60.8359C90.1289 60.8359 90.8376 61.1322 91.3389 61.7246C91.8402 62.3171 92.0908 63.1396 92.0908 64.1924V64.7803ZM90.9424 63.8301C90.9378 63.1829 90.7806 62.6794 90.4707 62.3193C90.1654 61.9593 89.7393 61.7793 89.1924 61.7793C88.6637 61.7793 88.2148 61.9684 87.8457 62.3467C87.4766 62.7249 87.2487 63.2194 87.1621 63.8301H90.9424ZM103.732 68H102.611V63.9805C102.611 63.2057 102.491 62.6452 102.249 62.2988C102.012 61.9525 101.611 61.7793 101.046 61.7793C100.567 61.7793 100.16 61.998 99.8223 62.4355C99.4896 62.873 99.3232 63.3971 99.3232 64.0078V68H98.2021V63.8438C98.2021 62.4674 97.6712 61.7793 96.6094 61.7793C96.1172 61.7793 95.7116 61.9867 95.3926 62.4014C95.0736 62.8115 94.9141 63.347 94.9141 64.0078V68H93.793V61H94.9141V62.1074H94.9414C95.4382 61.2598 96.1628 60.8359 97.1152 60.8359C97.5938 60.8359 98.0107 60.9704 98.3662 61.2393C98.7217 61.5036 98.9655 61.8522 99.0977 62.2852C99.6172 61.319 100.392 60.8359 101.422 60.8359C102.962 60.8359 103.732 61.7861 103.732 63.6865V68ZM110.862 68H109.741V66.9062H109.714C109.226 67.7448 108.508 68.1641 107.561 68.1641C106.863 68.1641 106.316 67.9795 105.92 67.6104C105.528 67.2412 105.332 66.7513 105.332 66.1406C105.332 64.8327 106.102 64.0716 107.643 63.8574L109.741 63.5635C109.741 62.374 109.26 61.7793 108.299 61.7793C107.456 61.7793 106.695 62.0664 106.016 62.6406V61.4922C106.704 61.0547 107.497 60.8359 108.395 60.8359C110.04 60.8359 110.862 61.7064 110.862 63.4473V68ZM109.741 64.459L108.053 64.6914C107.533 64.7643 107.141 64.8942 106.877 65.0811C106.613 65.2633 106.48 65.5892 106.48 66.0586C106.48 66.4004 106.601 66.6807 106.843 66.8994C107.089 67.1136 107.415 67.2207 107.82 67.2207C108.376 67.2207 108.834 67.027 109.194 66.6396C109.559 66.2477 109.741 65.7533 109.741 65.1562V64.459ZM113.549 59.2227C113.348 59.2227 113.177 59.1543 113.036 59.0176C112.895 58.8809 112.824 58.7077 112.824 58.498C112.824 58.2884 112.895 58.1152 113.036 57.9785C113.177 57.8372 113.348 57.7666 113.549 57.7666C113.754 57.7666 113.927 57.8372 114.068 57.9785C114.214 58.1152 114.287 58.2884 114.287 58.498C114.287 58.6986 114.214 58.8695 114.068 59.0107C113.927 59.152 113.754 59.2227 113.549 59.2227ZM114.096 68H112.975V61H114.096V68ZM117.486 68H116.365V57.6367H117.486V68ZM128.608 68H127.487V66.9062H127.46C126.972 67.7448 126.255 68.1641 125.307 68.1641C124.609 68.1641 124.062 67.9795 123.666 67.6104C123.274 67.2412 123.078 66.7513 123.078 66.1406C123.078 64.8327 123.848 64.0716 125.389 63.8574L127.487 63.5635C127.487 62.374 127.007 61.7793 126.045 61.7793C125.202 61.7793 124.441 62.0664 123.762 62.6406V61.4922C124.45 61.0547 125.243 60.8359 126.141 60.8359C127.786 60.8359 128.608 61.7064 128.608 63.4473V68ZM127.487 64.459L125.799 64.6914C125.279 64.7643 124.887 64.8942 124.623 65.0811C124.359 65.2633 124.227 65.5892 124.227 66.0586C124.227 66.4004 124.347 66.6807 124.589 66.8994C124.835 67.1136 125.161 67.2207 125.566 67.2207C126.122 67.2207 126.58 67.027 126.94 66.6396C127.305 66.2477 127.487 65.7533 127.487 65.1562V64.459ZM136.695 68H135.574V66.8105H135.547C135.027 67.7129 134.225 68.1641 133.141 68.1641C132.261 68.1641 131.557 67.8519 131.028 67.2275C130.504 66.5986 130.242 65.7441 130.242 64.6641C130.242 63.5065 130.534 62.5791 131.117 61.8818C131.701 61.1846 132.478 60.8359 133.448 60.8359C134.41 60.8359 135.109 61.2142 135.547 61.9707H135.574V57.6367H136.695V68ZM135.574 64.835V63.8027C135.574 63.2376 135.387 62.7591 135.014 62.3672C134.64 61.9753 134.166 61.7793 133.592 61.7793C132.908 61.7793 132.37 62.0299 131.979 62.5312C131.587 63.0326 131.391 63.7253 131.391 64.6094C131.391 65.416 131.577 66.054 131.951 66.5234C132.329 66.9883 132.835 67.2207 133.469 67.2207C134.093 67.2207 134.599 66.9951 134.986 66.5439C135.378 66.0928 135.574 65.5231 135.574 64.835ZM144.939 68H143.818V66.8105H143.791C143.271 67.7129 142.469 68.1641 141.385 68.1641C140.505 68.1641 139.801 67.8519 139.272 67.2275C138.748 66.5986 138.486 65.7441 138.486 64.6641C138.486 63.5065 138.778 62.5791 139.361 61.8818C139.945 61.1846 140.722 60.8359 141.692 60.8359C142.654 60.8359 143.354 61.2142 143.791 61.9707H143.818V57.6367H144.939V68ZM143.818 64.835V63.8027C143.818 63.2376 143.632 62.7591 143.258 62.3672C142.884 61.9753 142.41 61.7793 141.836 61.7793C141.152 61.7793 140.615 62.0299 140.223 62.5312C139.831 63.0326 139.635 63.7253 139.635 64.6094C139.635 65.416 139.822 66.054 140.195 66.5234C140.574 66.9883 141.079 67.2207 141.713 67.2207C142.337 67.2207 142.843 66.9951 143.23 66.5439C143.622 66.0928 143.818 65.5231 143.818 64.835ZM150.859 62.1348C150.663 61.9844 150.381 61.9092 150.012 61.9092C149.533 61.9092 149.132 62.1348 148.809 62.5859C148.49 63.0371 148.33 63.6523 148.33 64.4316V68H147.209V61H148.33V62.4424H148.357C148.517 61.9502 148.761 61.5674 149.089 61.2939C149.417 61.016 149.784 60.877 150.189 60.877C150.481 60.877 150.704 60.9089 150.859 60.9727V62.1348ZM157.702 64.7803H152.76C152.778 65.5596 152.988 66.1611 153.389 66.585C153.79 67.0088 154.341 67.2207 155.043 67.2207C155.831 67.2207 156.556 66.9609 157.217 66.4414V67.4941C156.602 67.9408 155.788 68.1641 154.776 68.1641C153.787 68.1641 153.01 67.8473 152.445 67.2139C151.88 66.5758 151.598 65.6803 151.598 64.5273C151.598 63.4382 151.905 62.5518 152.521 61.8682C153.14 61.18 153.908 60.8359 154.824 60.8359C155.74 60.8359 156.449 61.1322 156.95 61.7246C157.451 62.3171 157.702 63.1396 157.702 64.1924V64.7803ZM156.554 63.8301C156.549 63.1829 156.392 62.6794 156.082 62.3193C155.777 61.9593 155.351 61.7793 154.804 61.7793C154.275 61.7793 153.826 61.9684 153.457 62.3467C153.088 62.7249 152.86 63.2194 152.773 63.8301H156.554ZM158.98 67.7471V66.5439C159.591 66.9951 160.263 67.2207 160.997 67.2207C161.981 67.2207 162.474 66.8926 162.474 66.2363C162.474 66.0495 162.43 65.8923 162.344 65.7646C162.262 65.6325 162.148 65.5163 162.002 65.416C161.861 65.3158 161.692 65.2269 161.496 65.1494C161.305 65.0674 161.097 64.9831 160.874 64.8965C160.564 64.7734 160.291 64.6504 160.054 64.5273C159.821 64.3997 159.625 64.2585 159.466 64.1035C159.311 63.944 159.192 63.764 159.11 63.5635C159.033 63.363 158.994 63.1283 158.994 62.8594C158.994 62.5312 159.069 62.2419 159.22 61.9912C159.37 61.736 159.571 61.5241 159.821 61.3555C160.072 61.1823 160.357 61.0524 160.676 60.9658C160.999 60.8792 161.332 60.8359 161.674 60.8359C162.28 60.8359 162.822 60.9408 163.301 61.1504V62.2852C162.786 61.9479 162.193 61.7793 161.523 61.7793C161.314 61.7793 161.125 61.8044 160.956 61.8545C160.787 61.9001 160.642 61.9661 160.519 62.0527C160.4 62.1393 160.307 62.2441 160.238 62.3672C160.174 62.4857 160.143 62.6178 160.143 62.7637C160.143 62.946 160.174 63.0986 160.238 63.2217C160.307 63.3447 160.405 63.4541 160.532 63.5498C160.66 63.6455 160.815 63.7321 160.997 63.8096C161.179 63.887 161.387 63.9714 161.619 64.0625C161.929 64.181 162.207 64.304 162.453 64.4316C162.699 64.5547 162.909 64.696 163.082 64.8555C163.255 65.0104 163.387 65.1904 163.479 65.3955C163.574 65.6006 163.622 65.8444 163.622 66.127C163.622 66.4733 163.545 66.7741 163.39 67.0293C163.239 67.2845 163.036 67.4964 162.781 67.665C162.526 67.8337 162.232 67.959 161.899 68.041C161.567 68.123 161.218 68.1641 160.854 68.1641C160.133 68.1641 159.509 68.0251 158.98 67.7471ZM164.928 67.7471V66.5439C165.538 66.9951 166.211 67.2207 166.944 67.2207C167.929 67.2207 168.421 66.8926 168.421 66.2363C168.421 66.0495 168.378 65.8923 168.291 65.7646C168.209 65.6325 168.095 65.5163 167.949 65.416C167.808 65.3158 167.639 65.2269 167.443 65.1494C167.252 65.0674 167.045 64.9831 166.821 64.8965C166.511 64.7734 166.238 64.6504 166.001 64.5273C165.769 64.3997 165.573 64.2585 165.413 64.1035C165.258 63.944 165.14 63.764 165.058 63.5635C164.98 63.363 164.941 63.1283 164.941 62.8594C164.941 62.5312 165.017 62.2419 165.167 61.9912C165.317 61.736 165.518 61.5241 165.769 61.3555C166.019 61.1823 166.304 61.0524 166.623 60.9658C166.947 60.8792 167.279 60.8359 167.621 60.8359C168.227 60.8359 168.77 60.9408 169.248 61.1504V62.2852C168.733 61.9479 168.141 61.7793 167.471 61.7793C167.261 61.7793 167.072 61.8044 166.903 61.8545C166.735 61.9001 166.589 61.9661 166.466 62.0527C166.347 62.1393 166.254 62.2441 166.186 62.3672C166.122 62.4857 166.09 62.6178 166.09 62.7637C166.09 62.946 166.122 63.0986 166.186 63.2217C166.254 63.3447 166.352 63.4541 166.479 63.5498C166.607 63.6455 166.762 63.7321 166.944 63.8096C167.127 63.887 167.334 63.9714 167.566 64.0625C167.876 64.181 168.154 64.304 168.4 64.4316C168.646 64.5547 168.856 64.696 169.029 64.8555C169.202 65.0104 169.335 65.1904 169.426 65.3955C169.521 65.6006 169.569 65.8444 169.569 66.127C169.569 66.4733 169.492 66.7741 169.337 67.0293C169.187 67.2845 168.984 67.4964 168.729 67.665C168.473 67.8337 168.179 67.959 167.847 68.041C167.514 68.123 167.165 68.1641 166.801 68.1641C166.081 68.1641 165.456 68.0251 164.928 67.7471ZM178.388 67.9316C178.123 68.0775 177.775 68.1504 177.342 68.1504C176.116 68.1504 175.503 67.4668 175.503 66.0996V61.957H174.3V61H175.503V59.291L176.624 58.9287V61H178.388V61.957H176.624V65.9014C176.624 66.3708 176.704 66.7057 176.863 66.9062C177.023 67.1068 177.287 67.207 177.656 67.207C177.939 67.207 178.183 67.1296 178.388 66.9746V67.9316ZM182.811 68.1641C181.776 68.1641 180.949 67.8382 180.329 67.1865C179.714 66.5303 179.406 65.6621 179.406 64.582C179.406 63.4062 179.728 62.488 180.37 61.8271C181.013 61.1663 181.881 60.8359 182.975 60.8359C184.018 60.8359 184.832 61.1572 185.415 61.7998C186.003 62.4424 186.297 63.3333 186.297 64.4727C186.297 65.5892 185.98 66.4847 185.347 67.1592C184.718 67.8291 183.872 68.1641 182.811 68.1641ZM182.893 61.7793C182.173 61.7793 181.603 62.0254 181.184 62.5176C180.764 63.0052 180.555 63.6797 180.555 64.541C180.555 65.3704 180.767 66.0244 181.19 66.5029C181.614 66.9814 182.182 67.2207 182.893 67.2207C183.617 67.2207 184.173 66.986 184.561 66.5166C184.952 66.0472 185.148 65.3796 185.148 64.5137C185.148 63.6387 184.952 62.9642 184.561 62.4902C184.173 62.0163 183.617 61.7793 182.893 61.7793ZM195.58 62.1348C195.384 61.9844 195.102 61.9092 194.732 61.9092C194.254 61.9092 193.853 62.1348 193.529 62.5859C193.21 63.0371 193.051 63.6523 193.051 64.4316V68H191.93V61H193.051V62.4424H193.078C193.238 61.9502 193.481 61.5674 193.81 61.2939C194.138 61.016 194.505 60.877 194.91 60.877C195.202 60.877 195.425 60.9089 195.58 60.9727V62.1348ZM202.423 64.7803H197.48C197.499 65.5596 197.708 66.1611 198.109 66.585C198.51 67.0088 199.062 67.2207 199.764 67.2207C200.552 67.2207 201.277 66.9609 201.938 66.4414V67.4941C201.322 67.9408 200.509 68.1641 199.497 68.1641C198.508 68.1641 197.731 67.8473 197.166 67.2139C196.601 66.5758 196.318 65.6803 196.318 64.5273C196.318 63.4382 196.626 62.5518 197.241 61.8682C197.861 61.18 198.629 60.8359 199.545 60.8359C200.461 60.8359 201.17 61.1322 201.671 61.7246C202.172 62.3171 202.423 63.1396 202.423 64.1924V64.7803ZM201.274 63.8301C201.27 63.1829 201.113 62.6794 200.803 62.3193C200.497 61.9593 200.071 61.7793 199.524 61.7793C198.996 61.7793 198.547 61.9684 198.178 62.3467C197.809 62.7249 197.581 63.2194 197.494 63.8301H201.274ZM208.896 67.6787C208.359 68.0023 207.721 68.1641 206.982 68.1641C205.984 68.1641 205.178 67.8405 204.562 67.1934C203.952 66.5417 203.646 65.6986 203.646 64.6641C203.646 63.5111 203.977 62.5859 204.638 61.8887C205.299 61.1868 206.18 60.8359 207.283 60.8359C207.898 60.8359 208.441 60.9499 208.91 61.1777V62.3262C208.391 61.9616 207.835 61.7793 207.242 61.7793C206.527 61.7793 205.939 62.0368 205.479 62.5518C205.023 63.0622 204.795 63.7344 204.795 64.5684C204.795 65.3887 205.009 66.0358 205.438 66.5098C205.87 66.9837 206.449 67.2207 207.174 67.2207C207.785 67.2207 208.359 67.0179 208.896 66.6123V67.6787ZM216.218 64.7803H211.275C211.294 65.5596 211.503 66.1611 211.904 66.585C212.305 67.0088 212.857 67.2207 213.559 67.2207C214.347 67.2207 215.072 66.9609 215.732 66.4414V67.4941C215.117 67.9408 214.304 68.1641 213.292 68.1641C212.303 68.1641 211.526 67.8473 210.961 67.2139C210.396 66.5758 210.113 65.6803 210.113 64.5273C210.113 63.4382 210.421 62.5518 211.036 61.8682C211.656 61.18 212.424 60.8359 213.34 60.8359C214.256 60.8359 214.965 61.1322 215.466 61.7246C215.967 62.3171 216.218 63.1396 216.218 64.1924V64.7803ZM215.069 63.8301C215.065 63.1829 214.908 62.6794 214.598 62.3193C214.292 61.9593 213.866 61.7793 213.319 61.7793C212.791 61.7793 212.342 61.9684 211.973 62.3467C211.604 62.7249 211.376 63.2194 211.289 63.8301H215.069ZM218.494 59.2227C218.294 59.2227 218.123 59.1543 217.981 59.0176C217.84 58.8809 217.77 58.7077 217.77 58.498C217.77 58.2884 217.84 58.1152 217.981 57.9785C218.123 57.8372 218.294 57.7666 218.494 57.7666C218.699 57.7666 218.872 57.8372 219.014 57.9785C219.16 58.1152 219.232 58.2884 219.232 58.498C219.232 58.6986 219.16 58.8695 219.014 59.0107C218.872 59.152 218.699 59.2227 218.494 59.2227ZM219.041 68H217.92V61H219.041V68ZM226.813 61L224.024 68H222.924L220.271 61H221.502L223.279 66.0859C223.411 66.4596 223.493 66.7855 223.525 67.0635H223.553C223.598 66.7126 223.671 66.3958 223.771 66.1133L225.631 61H226.813ZM233.649 64.7803H228.707C228.725 65.5596 228.935 66.1611 229.336 66.585C229.737 67.0088 230.288 67.2207 230.99 67.2207C231.779 67.2207 232.503 66.9609 233.164 66.4414V67.4941C232.549 67.9408 231.735 68.1641 230.724 68.1641C229.735 68.1641 228.958 67.8473 228.393 67.2139C227.827 66.5758 227.545 65.6803 227.545 64.5273C227.545 63.4382 227.853 62.5518 228.468 61.8682C229.088 61.18 229.855 60.8359 230.771 60.8359C231.688 60.8359 232.396 61.1322 232.897 61.7246C233.399 62.3171 233.649 63.1396 233.649 64.1924V64.7803ZM232.501 63.8301C232.496 63.1829 232.339 62.6794 232.029 62.3193C231.724 61.9593 231.298 61.7793 230.751 61.7793C230.222 61.7793 229.773 61.9684 229.404 62.3467C229.035 62.7249 228.807 63.2194 228.721 63.8301H232.501ZM244.204 68H243.083V66.9062H243.056C242.568 67.7448 241.85 68.1641 240.902 68.1641C240.205 68.1641 239.658 67.9795 239.262 67.6104C238.87 67.2412 238.674 66.7513 238.674 66.1406C238.674 64.8327 239.444 64.0716 240.984 63.8574L243.083 63.5635C243.083 62.374 242.602 61.7793 241.641 61.7793C240.798 61.7793 240.036 62.0664 239.357 62.6406V61.4922C240.046 61.0547 240.839 60.8359 241.736 60.8359C243.382 60.8359 244.204 61.7064 244.204 63.4473V68ZM243.083 64.459L241.395 64.6914C240.875 64.7643 240.483 64.8942 240.219 65.0811C239.954 65.2633 239.822 65.5892 239.822 66.0586C239.822 66.4004 239.943 66.6807 240.185 66.8994C240.431 67.1136 240.757 67.2207 241.162 67.2207C241.718 67.2207 242.176 67.027 242.536 66.6396C242.901 66.2477 243.083 65.7533 243.083 65.1562V64.459ZM251.457 64.2949V68H250.309V58.1973H253.002C254.05 58.1973 254.861 58.4525 255.436 58.9629C256.014 59.4733 256.304 60.1934 256.304 61.123C256.304 62.0527 255.982 62.8138 255.34 63.4062C254.702 63.9987 253.838 64.2949 252.749 64.2949H251.457ZM251.457 59.2363V63.2559H252.66C253.453 63.2559 254.057 63.0758 254.472 62.7158C254.891 62.3512 255.101 61.8385 255.101 61.1777C255.101 59.8835 254.335 59.2363 252.804 59.2363H251.457ZM258.156 68V58.1973H260.863C264.318 58.1973 266.045 59.79 266.045 62.9756C266.045 64.4886 265.564 65.7054 264.603 66.626C263.646 67.542 262.363 68 260.754 68H258.156ZM259.305 59.2363V66.9609H260.768C262.053 66.9609 263.053 66.6169 263.769 65.9287C264.484 65.2406 264.842 64.2653 264.842 63.0029C264.842 60.4919 263.507 59.2363 260.836 59.2363H259.305ZM272.949 59.2363H269.121V62.627H272.662V63.6592H269.121V68H267.973V58.1973H272.949V59.2363ZM283.271 67.6787C282.734 68.0023 282.096 68.1641 281.357 68.1641C280.359 68.1641 279.553 67.8405 278.938 67.1934C278.327 66.5417 278.021 65.6986 278.021 64.6641C278.021 63.5111 278.352 62.5859 279.013 61.8887C279.674 61.1868 280.555 60.8359 281.658 60.8359C282.273 60.8359 282.816 60.9499 283.285 61.1777V62.3262C282.766 61.9616 282.21 61.7793 281.617 61.7793C280.902 61.7793 280.314 62.0368 279.854 62.5518C279.398 63.0622 279.17 63.7344 279.17 64.5684C279.17 65.3887 279.384 66.0358 279.812 66.5098C280.245 66.9837 280.824 67.2207 281.549 67.2207C282.16 67.2207 282.734 67.0179 283.271 66.6123V67.6787ZM287.893 68.1641C286.858 68.1641 286.031 67.8382 285.411 67.1865C284.796 66.5303 284.488 65.6621 284.488 64.582C284.488 63.4062 284.81 62.488 285.452 61.8271C286.095 61.1663 286.963 60.8359 288.057 60.8359C289.1 60.8359 289.914 61.1572 290.497 61.7998C291.085 62.4424 291.379 63.3333 291.379 64.4727C291.379 65.5892 291.062 66.4847 290.429 67.1592C289.8 67.8291 288.954 68.1641 287.893 68.1641ZM287.975 61.7793C287.255 61.7793 286.685 62.0254 286.266 62.5176C285.846 63.0052 285.637 63.6797 285.637 64.541C285.637 65.3704 285.849 66.0244 286.272 66.5029C286.696 66.9814 287.264 67.2207 287.975 67.2207C288.699 67.2207 289.255 66.986 289.643 66.5166C290.035 66.0472 290.23 65.3796 290.23 64.5137C290.23 63.6387 290.035 62.9642 289.643 62.4902C289.255 62.0163 288.699 61.7793 287.975 61.7793ZM294.318 66.9883H294.291V71.2197H293.17V61H294.291V62.2305H294.318C294.87 61.3008 295.676 60.8359 296.738 60.8359C297.641 60.8359 298.345 61.1504 298.851 61.7793C299.356 62.4036 299.609 63.2422 299.609 64.2949C299.609 65.4661 299.325 66.4049 298.755 67.1113C298.185 67.8132 297.406 68.1641 296.417 68.1641C295.51 68.1641 294.811 67.7721 294.318 66.9883ZM294.291 64.165V65.1426C294.291 65.7214 294.478 66.2135 294.852 66.6191C295.23 67.0202 295.708 67.2207 296.287 67.2207C296.966 67.2207 297.497 66.9609 297.88 66.4414C298.267 65.9219 298.461 65.1995 298.461 64.2744C298.461 63.4951 298.281 62.8844 297.921 62.4424C297.561 62.0003 297.073 61.7793 296.458 61.7793C295.806 61.7793 295.282 62.0072 294.886 62.4629C294.489 62.9141 294.291 63.4814 294.291 64.165ZM306.972 61L303.752 69.1211C303.178 70.5703 302.371 71.2949 301.332 71.2949C301.04 71.2949 300.797 71.2653 300.601 71.2061V70.2012C300.842 70.2832 301.063 70.3242 301.264 70.3242C301.829 70.3242 302.253 69.987 302.535 69.3125L303.096 67.9863L300.361 61H301.605L303.499 66.3867C303.522 66.4551 303.57 66.6328 303.643 66.9199H303.684C303.706 66.8105 303.752 66.6374 303.82 66.4004L305.81 61H306.972ZM314.949 68.1641C313.915 68.1641 313.088 67.8382 312.468 67.1865C311.853 66.5303 311.545 65.6621 311.545 64.582C311.545 63.4062 311.866 62.488 312.509 61.8271C313.151 61.1663 314.02 60.8359 315.113 60.8359C316.157 60.8359 316.97 61.1572 317.554 61.7998C318.142 62.4424 318.436 63.3333 318.436 64.4727C318.436 65.5892 318.119 66.4847 317.485 67.1592C316.856 67.8291 316.011 68.1641 314.949 68.1641ZM315.031 61.7793C314.311 61.7793 313.742 62.0254 313.322 62.5176C312.903 63.0052 312.693 63.6797 312.693 64.541C312.693 65.3704 312.905 66.0244 313.329 66.5029C313.753 66.9814 314.32 67.2207 315.031 67.2207C315.756 67.2207 316.312 66.986 316.699 66.5166C317.091 66.0472 317.287 65.3796 317.287 64.5137C317.287 63.6387 317.091 62.9642 316.699 62.4902C316.312 62.0163 315.756 61.7793 315.031 61.7793ZM323.686 58.6211C323.467 58.498 323.218 58.4365 322.94 58.4365C322.157 58.4365 321.765 58.931 321.765 59.9199V61H323.405V61.957H321.765V68H320.65V61.957H319.454V61H320.65V59.8652C320.65 59.1315 320.862 58.5527 321.286 58.1289C321.71 57.7005 322.239 57.4863 322.872 57.4863C323.214 57.4863 323.485 57.5273 323.686 57.6094V58.6211ZM334.028 61L330.809 69.1211C330.234 70.5703 329.428 71.2949 328.389 71.2949C328.097 71.2949 327.853 71.2653 327.657 71.2061V70.2012C327.899 70.2832 328.12 70.3242 328.32 70.3242C328.885 70.3242 329.309 69.987 329.592 69.3125L330.152 67.9863L327.418 61H328.662L330.556 66.3867C330.578 66.4551 330.626 66.6328 330.699 66.9199H330.74C330.763 66.8105 330.809 66.6374 330.877 66.4004L332.866 61H334.028ZM338.164 68.1641C337.13 68.1641 336.302 67.8382 335.683 67.1865C335.067 66.5303 334.76 65.6621 334.76 64.582C334.76 63.4062 335.081 62.488 335.724 61.8271C336.366 61.1663 337.234 60.8359 338.328 60.8359C339.372 60.8359 340.185 61.1572 340.769 61.7998C341.356 62.4424 341.65 63.3333 341.65 64.4727C341.65 65.5892 341.334 66.4847 340.7 67.1592C340.071 67.8291 339.226 68.1641 338.164 68.1641ZM338.246 61.7793C337.526 61.7793 336.956 62.0254 336.537 62.5176C336.118 63.0052 335.908 63.6797 335.908 64.541C335.908 65.3704 336.12 66.0244 336.544 66.5029C336.968 66.9814 337.535 67.2207 338.246 67.2207C338.971 67.2207 339.527 66.986 339.914 66.5166C340.306 66.0472 340.502 65.3796 340.502 64.5137C340.502 63.6387 340.306 62.9642 339.914 62.4902C339.527 62.0163 338.971 61.7793 338.246 61.7793ZM349.102 68H347.98V66.8926H347.953C347.488 67.7402 346.768 68.1641 345.793 68.1641C344.125 68.1641 343.291 67.1706 343.291 65.1836V61H344.405V65.0059C344.405 66.4824 344.97 67.2207 346.101 67.2207C346.647 67.2207 347.096 67.0202 347.447 66.6191C347.803 66.2135 347.98 65.6849 347.98 65.0332V61H349.102V68ZM355.021 62.1348C354.826 61.9844 354.543 61.9092 354.174 61.9092C353.695 61.9092 353.294 62.1348 352.971 62.5859C352.652 63.0371 352.492 63.6523 352.492 64.4316V68H351.371V61H352.492V62.4424H352.52C352.679 61.9502 352.923 61.5674 353.251 61.2939C353.579 61.016 353.946 60.877 354.352 60.877C354.643 60.877 354.867 60.9089 355.021 60.9727V62.1348ZM16.7109 86.7471V85.5439C17.3216 85.9951 17.9938 86.2207 18.7275 86.2207C19.7119 86.2207 20.2041 85.8926 20.2041 85.2363C20.2041 85.0495 20.1608 84.8923 20.0742 84.7646C19.9922 84.6325 19.8783 84.5163 19.7324 84.416C19.5911 84.3158 19.4225 84.2269 19.2266 84.1494C19.0352 84.0674 18.8278 83.9831 18.6045 83.8965C18.2946 83.7734 18.0212 83.6504 17.7842 83.5273C17.5518 83.3997 17.3558 83.2585 17.1963 83.1035C17.0413 82.944 16.9229 82.764 16.8408 82.5635C16.7633 82.363 16.7246 82.1283 16.7246 81.8594C16.7246 81.5312 16.7998 81.2419 16.9502 80.9912C17.1006 80.736 17.3011 80.5241 17.5518 80.3555C17.8024 80.1823 18.0872 80.0524 18.4062 79.9658C18.7298 79.8792 19.0625 79.8359 19.4043 79.8359C20.0104 79.8359 20.5527 79.9408 21.0312 80.1504V81.2852C20.5163 80.9479 19.9238 80.7793 19.2539 80.7793C19.0443 80.7793 18.8551 80.8044 18.6865 80.8545C18.5179 80.9001 18.3721 80.9661 18.249 81.0527C18.1305 81.1393 18.0371 81.2441 17.9688 81.3672C17.9049 81.4857 17.873 81.6178 17.873 81.7637C17.873 81.946 17.9049 82.0986 17.9688 82.2217C18.0371 82.3447 18.1351 82.4541 18.2627 82.5498C18.3903 82.6455 18.5452 82.7321 18.7275 82.8096C18.9098 82.887 19.1172 82.9714 19.3496 83.0625C19.6595 83.181 19.9375 83.304 20.1836 83.4316C20.4297 83.5547 20.6393 83.696 20.8125 83.8555C20.9857 84.0104 21.1178 84.1904 21.209 84.3955C21.3047 84.6006 21.3525 84.8444 21.3525 85.127C21.3525 85.4733 21.2751 85.7741 21.1201 86.0293C20.9697 86.2845 20.7669 86.4964 20.5117 86.665C20.2565 86.8337 19.9626 86.959 19.6299 87.041C19.2972 87.123 18.9486 87.1641 18.584 87.1641C17.8639 87.1641 17.2396 87.0251 16.7109 86.7471ZM27.8535 86.6787C27.3158 87.0023 26.6777 87.1641 25.9395 87.1641C24.9414 87.1641 24.1348 86.8405 23.5195 86.1934C22.9089 85.5417 22.6035 84.6986 22.6035 83.6641C22.6035 82.5111 22.9339 81.5859 23.5947 80.8887C24.2555 80.1868 25.1374 79.8359 26.2402 79.8359C26.8555 79.8359 27.3978 79.9499 27.8672 80.1777V81.3262C27.3477 80.9616 26.7917 80.7793 26.1992 80.7793C25.4837 80.7793 24.8958 81.0368 24.4355 81.5518C23.9798 82.0622 23.752 82.7344 23.752 83.5684C23.752 84.3887 23.9661 85.0358 24.3945 85.5098C24.8275 85.9837 25.4062 86.2207 26.1309 86.2207C26.7415 86.2207 27.3158 86.0179 27.8535 85.6123V86.6787ZM35.3594 87H34.2383V82.9668C34.2383 81.5085 33.696 80.7793 32.6113 80.7793C32.0645 80.7793 31.6042 80.9912 31.2305 81.415C30.8568 81.8343 30.6699 82.3743 30.6699 83.0352V87H29.5488V76.6367H30.6699V81.1621H30.6973C31.235 80.278 32.0007 79.8359 32.9941 79.8359C34.571 79.8359 35.3594 80.7861 35.3594 82.6865V87ZM43.1045 83.7803H38.1621C38.1803 84.5596 38.39 85.1611 38.791 85.585C39.1921 86.0088 39.7435 86.2207 40.4453 86.2207C41.2337 86.2207 41.9583 85.9609 42.6191 85.4414V86.4941C42.0039 86.9408 41.1904 87.1641 40.1787 87.1641C39.1898 87.1641 38.4128 86.8473 37.8477 86.2139C37.2826 85.5758 37 84.6803 37 83.5273C37 82.4382 37.3076 81.5518 37.9229 80.8682C38.5426 80.18 39.3105 79.8359 40.2266 79.8359C41.1426 79.8359 41.8512 80.1322 42.3525 80.7246C42.8538 81.3171 43.1045 82.1396 43.1045 83.1924V83.7803ZM41.9561 82.8301C41.9515 82.1829 41.7943 81.6794 41.4844 81.3193C41.179 80.9593 40.7529 80.7793 40.2061 80.7793C39.6774 80.7793 39.2285 80.9684 38.8594 81.3467C38.4902 81.7249 38.2624 82.2194 38.1758 82.8301H41.9561ZM50.7812 87H49.6602V85.8105H49.6328C49.1133 86.7129 48.3112 87.1641 47.2266 87.1641C46.347 87.1641 45.6429 86.8519 45.1143 86.2275C44.5902 85.5986 44.3281 84.7441 44.3281 83.6641C44.3281 82.5065 44.6198 81.5791 45.2031 80.8818C45.7865 80.1846 46.5635 79.8359 47.5342 79.8359C48.4958 79.8359 49.1953 80.2142 49.6328 80.9707H49.6602V76.6367H50.7812V87ZM49.6602 83.835V82.8027C49.6602 82.2376 49.4733 81.7591 49.0996 81.3672C48.7259 80.9753 48.252 80.7793 47.6777 80.7793C46.9941 80.7793 46.4564 81.0299 46.0645 81.5312C45.6725 82.0326 45.4766 82.7253 45.4766 83.6094C45.4766 84.416 45.6634 85.054 46.0371 85.5234C46.4154 85.9883 46.9212 86.2207 47.5547 86.2207C48.179 86.2207 48.6849 85.9951 49.0723 85.5439C49.4642 85.0928 49.6602 84.5231 49.6602 83.835ZM58.7109 87H57.5898V85.8926H57.5625C57.0977 86.7402 56.3776 87.1641 55.4023 87.1641C53.7344 87.1641 52.9004 86.1706 52.9004 84.1836V80H54.0146V84.0059C54.0146 85.4824 54.5798 86.2207 55.71 86.2207C56.2568 86.2207 56.7057 86.0202 57.0566 85.6191C57.4121 85.2135 57.5898 84.6849 57.5898 84.0332V80H58.7109V87ZM62.1016 87H60.9805V76.6367H62.1016V87ZM69.9971 83.7803H65.0547C65.0729 84.5596 65.2826 85.1611 65.6836 85.585C66.0846 86.0088 66.6361 86.2207 67.3379 86.2207C68.1263 86.2207 68.8509 85.9609 69.5117 85.4414V86.4941C68.8965 86.9408 68.083 87.1641 67.0713 87.1641C66.0824 87.1641 65.3053 86.8473 64.7402 86.2139C64.1751 85.5758 63.8926 84.6803 63.8926 83.5273C63.8926 82.4382 64.2002 81.5518 64.8154 80.8682C65.4352 80.18 66.2031 79.8359 67.1191 79.8359C68.0352 79.8359 68.7438 80.1322 69.2451 80.7246C69.7464 81.3171 69.9971 82.1396 69.9971 83.1924V83.7803ZM68.8486 82.8301C68.8441 82.1829 68.6868 81.6794 68.377 81.3193C68.0716 80.9593 67.6455 80.7793 67.0986 80.7793C66.57 80.7793 66.1211 80.9684 65.752 81.3467C65.3828 81.7249 65.1549 82.2194 65.0684 82.8301H68.8486ZM72.0889 87.1504C71.8792 87.1504 71.6992 87.0752 71.5488 86.9248C71.403 86.7744 71.3301 86.5944 71.3301 86.3848C71.3301 86.1751 71.403 85.9951 71.5488 85.8447C71.6992 85.6898 71.8792 85.6123 72.0889 85.6123C72.3031 85.6123 72.4854 85.6898 72.6357 85.8447C72.7861 85.9951 72.8613 86.1751 72.8613 86.3848C72.8613 86.5944 72.7861 86.7744 72.6357 86.9248C72.4854 87.0752 72.3031 87.1504 72.0889 87.1504Z" fill="black"/>
<path d="M22.4805 123H17.2852V113.197H22.2617V114.236H18.4336V117.497H21.9746V118.529H18.4336V121.961H22.4805V123ZM34.1562 123H33.0352V118.98C33.0352 118.206 32.9144 117.645 32.6729 117.299C32.4359 116.952 32.0348 116.779 31.4697 116.779C30.9912 116.779 30.5833 116.998 30.2461 117.436C29.9134 117.873 29.7471 118.397 29.7471 119.008V123H28.626V118.844C28.626 117.467 28.0951 116.779 27.0332 116.779C26.541 116.779 26.1354 116.987 25.8164 117.401C25.4974 117.812 25.3379 118.347 25.3379 119.008V123H24.2168V116H25.3379V117.107H25.3652C25.862 116.26 26.5866 115.836 27.5391 115.836C28.0176 115.836 28.4346 115.97 28.79 116.239C29.1455 116.504 29.3893 116.852 29.5215 117.285C30.041 116.319 30.8158 115.836 31.8457 115.836C33.3861 115.836 34.1562 116.786 34.1562 118.687V123ZM41.2861 123H40.165V121.906H40.1377C39.6501 122.745 38.9323 123.164 37.9844 123.164C37.2871 123.164 36.7402 122.979 36.3438 122.61C35.9518 122.241 35.7559 121.751 35.7559 121.141C35.7559 119.833 36.526 119.072 38.0664 118.857L40.165 118.563C40.165 117.374 39.6842 116.779 38.7227 116.779C37.8796 116.779 37.1185 117.066 36.4395 117.641V116.492C37.1276 116.055 37.9206 115.836 38.8184 115.836C40.4635 115.836 41.2861 116.706 41.2861 118.447V123ZM40.165 119.459L38.4766 119.691C37.957 119.764 37.5651 119.894 37.3008 120.081C37.0365 120.263 36.9043 120.589 36.9043 121.059C36.9043 121.4 37.0251 121.681 37.2666 121.899C37.5127 122.114 37.8385 122.221 38.2441 122.221C38.8001 122.221 39.2581 122.027 39.6182 121.64C39.9827 121.248 40.165 120.753 40.165 120.156V119.459ZM43.9727 114.223C43.7721 114.223 43.6012 114.154 43.46 114.018C43.3187 113.881 43.248 113.708 43.248 113.498C43.248 113.288 43.3187 113.115 43.46 112.979C43.6012 112.837 43.7721 112.767 43.9727 112.767C44.1777 112.767 44.3509 112.837 44.4922 112.979C44.638 113.115 44.7109 113.288 44.7109 113.498C44.7109 113.699 44.638 113.869 44.4922 114.011C44.3509 114.152 44.1777 114.223 43.9727 114.223ZM44.5195 123H43.3984V116H44.5195V123ZM47.9102 123H46.7891V112.637H47.9102V123ZM61.7598 123H60.4883L59.4492 120.252H55.293L54.3154 123H53.0371L56.7969 113.197H57.9863L61.7598 123ZM59.0732 119.22L57.5352 115.043C57.485 114.906 57.4349 114.688 57.3848 114.387H57.3574C57.3118 114.665 57.2594 114.883 57.2002 115.043L55.6758 119.22H59.0732ZM69.0332 123H67.9121V121.811H67.8848C67.3652 122.713 66.5632 123.164 65.4785 123.164C64.599 123.164 63.8949 122.852 63.3662 122.228C62.8421 121.599 62.5801 120.744 62.5801 119.664C62.5801 118.507 62.8717 117.579 63.4551 116.882C64.0384 116.185 64.8154 115.836 65.7861 115.836C66.7477 115.836 67.4473 116.214 67.8848 116.971H67.9121V112.637H69.0332V123ZM67.9121 119.835V118.803C67.9121 118.238 67.7253 117.759 67.3516 117.367C66.9779 116.975 66.5039 116.779 65.9297 116.779C65.2461 116.779 64.7083 117.03 64.3164 117.531C63.9245 118.033 63.7285 118.725 63.7285 119.609C63.7285 120.416 63.9154 121.054 64.2891 121.523C64.6673 121.988 65.1732 122.221 65.8066 122.221C66.431 122.221 66.9368 121.995 67.3242 121.544C67.7161 121.093 67.9121 120.523 67.9121 119.835ZM77.2773 123H76.1562V121.811H76.1289C75.6094 122.713 74.8073 123.164 73.7227 123.164C72.8431 123.164 72.139 122.852 71.6104 122.228C71.0863 121.599 70.8242 120.744 70.8242 119.664C70.8242 118.507 71.1159 117.579 71.6992 116.882C72.2826 116.185 73.0596 115.836 74.0303 115.836C74.9919 115.836 75.6914 116.214 76.1289 116.971H76.1562V112.637H77.2773V123ZM76.1562 119.835V118.803C76.1562 118.238 75.9694 117.759 75.5957 117.367C75.222 116.975 74.748 116.779 74.1738 116.779C73.4902 116.779 72.9525 117.03 72.5605 117.531C72.1686 118.033 71.9727 118.725 71.9727 119.609C71.9727 120.416 72.1595 121.054 72.5332 121.523C72.9115 121.988 73.4173 122.221 74.0508 122.221C74.6751 122.221 75.181 121.995 75.5684 121.544C75.9603 121.093 76.1562 120.523 76.1562 119.835ZM83.1973 117.135C83.0013 116.984 82.7188 116.909 82.3496 116.909C81.8711 116.909 81.4701 117.135 81.1465 117.586C80.8275 118.037 80.668 118.652 80.668 119.432V123H79.5469V116H80.668V117.442H80.6953C80.8548 116.95 81.0986 116.567 81.4268 116.294C81.7549 116.016 82.1217 115.877 82.5273 115.877C82.819 115.877 83.0423 115.909 83.1973 115.973V117.135ZM90.04 119.78H85.0977C85.1159 120.56 85.3255 121.161 85.7266 121.585C86.1276 122.009 86.679 122.221 87.3809 122.221C88.1693 122.221 88.8939 121.961 89.5547 121.441V122.494C88.9395 122.941 88.126 123.164 87.1143 123.164C86.1253 123.164 85.3483 122.847 84.7832 122.214C84.2181 121.576 83.9355 120.68 83.9355 119.527C83.9355 118.438 84.2432 117.552 84.8584 116.868C85.4782 116.18 86.2461 115.836 87.1621 115.836C88.0781 115.836 88.7868 116.132 89.2881 116.725C89.7894 117.317 90.04 118.14 90.04 119.192V119.78ZM88.8916 118.83C88.887 118.183 88.7298 117.679 88.4199 117.319C88.1146 116.959 87.6885 116.779 87.1416 116.779C86.613 116.779 86.1641 116.968 85.7949 117.347C85.4258 117.725 85.1979 118.219 85.1113 118.83H88.8916ZM91.3184 122.747V121.544C91.929 121.995 92.6012 122.221 93.335 122.221C94.3193 122.221 94.8115 121.893 94.8115 121.236C94.8115 121.049 94.7682 120.892 94.6816 120.765C94.5996 120.632 94.4857 120.516 94.3398 120.416C94.1986 120.316 94.0299 120.227 93.834 120.149C93.6426 120.067 93.4352 119.983 93.2119 119.896C92.902 119.773 92.6286 119.65 92.3916 119.527C92.1592 119.4 91.9632 119.258 91.8037 119.104C91.6488 118.944 91.5303 118.764 91.4482 118.563C91.3708 118.363 91.332 118.128 91.332 117.859C91.332 117.531 91.4072 117.242 91.5576 116.991C91.708 116.736 91.9085 116.524 92.1592 116.355C92.4098 116.182 92.6947 116.052 93.0137 115.966C93.3372 115.879 93.6699 115.836 94.0117 115.836C94.6178 115.836 95.1602 115.941 95.6387 116.15V117.285C95.1237 116.948 94.5312 116.779 93.8613 116.779C93.6517 116.779 93.4626 116.804 93.2939 116.854C93.1253 116.9 92.9795 116.966 92.8564 117.053C92.738 117.139 92.6445 117.244 92.5762 117.367C92.5124 117.486 92.4805 117.618 92.4805 117.764C92.4805 117.946 92.5124 118.099 92.5762 118.222C92.6445 118.345 92.7425 118.454 92.8701 118.55C92.9977 118.646 93.1527 118.732 93.335 118.81C93.5173 118.887 93.7246 118.971 93.957 119.062C94.2669 119.181 94.5449 119.304 94.791 119.432C95.0371 119.555 95.2467 119.696 95.4199 119.855C95.5931 120.01 95.7253 120.19 95.8164 120.396C95.9121 120.601 95.96 120.844 95.96 121.127C95.96 121.473 95.8825 121.774 95.7275 122.029C95.5771 122.285 95.3743 122.496 95.1191 122.665C94.8639 122.834 94.57 122.959 94.2373 123.041C93.9046 123.123 93.556 123.164 93.1914 123.164C92.4714 123.164 91.847 123.025 91.3184 122.747ZM97.2656 122.747V121.544C97.8763 121.995 98.5485 122.221 99.2822 122.221C100.267 122.221 100.759 121.893 100.759 121.236C100.759 121.049 100.715 120.892 100.629 120.765C100.547 120.632 100.433 120.516 100.287 120.416C100.146 120.316 99.9772 120.227 99.7812 120.149C99.5898 120.067 99.3825 119.983 99.1592 119.896C98.8493 119.773 98.5758 119.65 98.3389 119.527C98.1064 119.4 97.9105 119.258 97.751 119.104C97.596 118.944 97.4775 118.764 97.3955 118.563C97.318 118.363 97.2793 118.128 97.2793 117.859C97.2793 117.531 97.3545 117.242 97.5049 116.991C97.6553 116.736 97.8558 116.524 98.1064 116.355C98.3571 116.182 98.6419 116.052 98.9609 115.966C99.2845 115.879 99.6172 115.836 99.959 115.836C100.565 115.836 101.107 115.941 101.586 116.15V117.285C101.071 116.948 100.479 116.779 99.8086 116.779C99.599 116.779 99.4098 116.804 99.2412 116.854C99.0726 116.9 98.9268 116.966 98.8037 117.053C98.6852 117.139 98.5918 117.244 98.5234 117.367C98.4596 117.486 98.4277 117.618 98.4277 117.764C98.4277 117.946 98.4596 118.099 98.5234 118.222C98.5918 118.345 98.6898 118.454 98.8174 118.55C98.945 118.646 99.0999 118.732 99.2822 118.81C99.4645 118.887 99.6719 118.971 99.9043 119.062C100.214 119.181 100.492 119.304 100.738 119.432C100.984 119.555 101.194 119.696 101.367 119.855C101.54 120.01 101.673 120.19 101.764 120.396C101.859 120.601 101.907 120.844 101.907 121.127C101.907 121.473 101.83 121.774 101.675 122.029C101.524 122.285 101.322 122.496 101.066 122.665C100.811 122.834 100.517 122.959 100.185 123.041C99.8519 123.123 99.5033 123.164 99.1387 123.164C98.4186 123.164 97.7943 123.025 97.2656 122.747Z" fill="black"/>
<g clip-path="url(#clip0_221_2625)">
<rect x="16.5" y="131.5" width="279" height="31" rx="3.5" fill="white"/>
<rect x="16.5" y="131.5" width="279" height="31" rx="3.5" stroke="#D1D1D1"/>
<path d="M30.4336 148.295V152H29.2852V142.197H31.9785C33.0267 142.197 33.8379 142.452 34.4121 142.963C34.9909 143.473 35.2803 144.193 35.2803 145.123C35.2803 146.053 34.959 146.814 34.3164 147.406C33.6784 147.999 32.8148 148.295 31.7256 148.295H30.4336ZM30.4336 143.236V147.256H31.6367C32.4297 147.256 33.0335 147.076 33.4482 146.716C33.8675 146.351 34.0771 145.839 34.0771 145.178C34.0771 143.883 33.3115 143.236 31.7803 143.236H30.4336ZM38.1035 152H36.9824V141.637H38.1035V152ZM45.3838 152H44.2627V150.906H44.2354C43.7477 151.745 43.0299 152.164 42.082 152.164C41.3848 152.164 40.8379 151.979 40.4414 151.61C40.0495 151.241 39.8535 150.751 39.8535 150.141C39.8535 148.833 40.6237 148.072 42.1641 147.857L44.2627 147.563C44.2627 146.374 43.7819 145.779 42.8203 145.779C41.9772 145.779 41.2161 146.066 40.5371 146.641V145.492C41.2253 145.055 42.0182 144.836 42.916 144.836C44.5612 144.836 45.3838 145.706 45.3838 147.447V152ZM44.2627 148.459L42.5742 148.691C42.0547 148.764 41.6628 148.894 41.3984 149.081C41.1341 149.263 41.002 149.589 41.002 150.059C41.002 150.4 41.1227 150.681 41.3643 150.899C41.6104 151.114 41.9362 151.221 42.3418 151.221C42.8978 151.221 43.3558 151.027 43.7158 150.64C44.0804 150.248 44.2627 149.753 44.2627 149.156V148.459ZM52.2676 151.679C51.7298 152.002 51.0918 152.164 50.3535 152.164C49.3555 152.164 48.5488 151.84 47.9336 151.193C47.3229 150.542 47.0176 149.699 47.0176 148.664C47.0176 147.511 47.348 146.586 48.0088 145.889C48.6696 145.187 49.5514 144.836 50.6543 144.836C51.2695 144.836 51.8118 144.95 52.2812 145.178V146.326C51.7617 145.962 51.2057 145.779 50.6133 145.779C49.8978 145.779 49.3099 146.037 48.8496 146.552C48.3939 147.062 48.166 147.734 48.166 148.568C48.166 149.389 48.3802 150.036 48.8086 150.51C49.2415 150.984 49.8203 151.221 50.5449 151.221C51.1556 151.221 51.7298 151.018 52.2676 150.612V151.679ZM59.5889 148.78H54.6465C54.6647 149.56 54.8743 150.161 55.2754 150.585C55.6764 151.009 56.2279 151.221 56.9297 151.221C57.7181 151.221 58.4427 150.961 59.1035 150.441V151.494C58.4883 151.941 57.6748 152.164 56.6631 152.164C55.6742 152.164 54.8971 151.847 54.332 151.214C53.7669 150.576 53.4844 149.68 53.4844 148.527C53.4844 147.438 53.792 146.552 54.4072 145.868C55.027 145.18 55.7949 144.836 56.7109 144.836C57.627 144.836 58.3356 145.132 58.8369 145.725C59.3382 146.317 59.5889 147.14 59.5889 148.192V148.78ZM58.4404 147.83C58.4359 147.183 58.2786 146.679 57.9688 146.319C57.6634 145.959 57.2373 145.779 56.6904 145.779C56.1618 145.779 55.7129 145.968 55.3438 146.347C54.9746 146.725 54.7467 147.219 54.6602 147.83H58.4404ZM67.1016 152H65.9805V147.967C65.9805 146.508 65.4382 145.779 64.3535 145.779C63.8066 145.779 63.3464 145.991 62.9727 146.415C62.599 146.834 62.4121 147.374 62.4121 148.035V152H61.291V141.637H62.4121V146.162H62.4395C62.9772 145.278 63.7428 144.836 64.7363 144.836C66.3132 144.836 67.1016 145.786 67.1016 147.687V152ZM72.1465 152.164C71.112 152.164 70.2848 151.838 69.665 151.187C69.0498 150.53 68.7422 149.662 68.7422 148.582C68.7422 147.406 69.0635 146.488 69.7061 145.827C70.3486 145.166 71.2168 144.836 72.3105 144.836C73.3542 144.836 74.1676 145.157 74.751 145.8C75.3389 146.442 75.6328 147.333 75.6328 148.473C75.6328 149.589 75.3161 150.485 74.6826 151.159C74.0537 151.829 73.2083 152.164 72.1465 152.164ZM72.2285 145.779C71.5085 145.779 70.9388 146.025 70.5195 146.518C70.1003 147.005 69.8906 147.68 69.8906 148.541C69.8906 149.37 70.1025 150.024 70.5264 150.503C70.9502 150.981 71.5176 151.221 72.2285 151.221C72.9531 151.221 73.5091 150.986 73.8965 150.517C74.2884 150.047 74.4844 149.38 74.4844 148.514C74.4844 147.639 74.2884 146.964 73.8965 146.49C73.5091 146.016 72.9531 145.779 72.2285 145.779ZM78.5449 152H77.4238V141.637H78.5449V152ZM86.7891 152H85.668V150.811H85.6406C85.1211 151.713 84.319 152.164 83.2344 152.164C82.3548 152.164 81.6507 151.852 81.1221 151.228C80.598 150.599 80.3359 149.744 80.3359 148.664C80.3359 147.507 80.6276 146.579 81.2109 145.882C81.7943 145.185 82.5713 144.836 83.542 144.836C84.5036 144.836 85.2031 145.214 85.6406 145.971H85.668V141.637H86.7891V152ZM85.668 148.835V147.803C85.668 147.238 85.4811 146.759 85.1074 146.367C84.7337 145.975 84.2598 145.779 83.6855 145.779C83.002 145.779 82.4642 146.03 82.0723 146.531C81.6803 147.033 81.4844 147.725 81.4844 148.609C81.4844 149.416 81.6712 150.054 82.0449 150.523C82.4232 150.988 82.929 151.221 83.5625 151.221C84.1868 151.221 84.6927 150.995 85.0801 150.544C85.472 150.093 85.668 149.523 85.668 148.835ZM94.6846 148.78H89.7422C89.7604 149.56 89.9701 150.161 90.3711 150.585C90.7721 151.009 91.3236 151.221 92.0254 151.221C92.8138 151.221 93.5384 150.961 94.1992 150.441V151.494C93.584 151.941 92.7705 152.164 91.7588 152.164C90.7699 152.164 89.9928 151.847 89.4277 151.214C88.8626 150.576 88.5801 149.68 88.5801 148.527C88.5801 147.438 88.8877 146.552 89.5029 145.868C90.1227 145.18 90.8906 144.836 91.8066 144.836C92.7227 144.836 93.4313 145.132 93.9326 145.725C94.4339 146.317 94.6846 147.14 94.6846 148.192V148.78ZM93.5361 147.83C93.5316 147.183 93.3743 146.679 93.0645 146.319C92.7591 145.959 92.333 145.779 91.7861 145.779C91.2575 145.779 90.8086 145.968 90.4395 146.347C90.0703 146.725 89.8424 147.219 89.7559 147.83H93.5361ZM100.037 146.135C99.8411 145.984 99.5586 145.909 99.1895 145.909C98.7109 145.909 98.3099 146.135 97.9863 146.586C97.6673 147.037 97.5078 147.652 97.5078 148.432V152H96.3867V145H97.5078V146.442H97.5352C97.6947 145.95 97.9385 145.567 98.2666 145.294C98.5947 145.016 98.9616 144.877 99.3672 144.877C99.6589 144.877 99.8822 144.909 100.037 144.973V146.135ZM108.343 151.932C108.078 152.077 107.73 152.15 107.297 152.15C106.071 152.15 105.458 151.467 105.458 150.1V145.957H104.255V145H105.458V143.291L106.579 142.929V145H108.343V145.957H106.579V149.901C106.579 150.371 106.659 150.706 106.818 150.906C106.978 151.107 107.242 151.207 107.611 151.207C107.894 151.207 108.138 151.13 108.343 150.975V151.932ZM115.466 148.78H110.523C110.542 149.56 110.751 150.161 111.152 150.585C111.553 151.009 112.105 151.221 112.807 151.221C113.595 151.221 114.32 150.961 114.98 150.441V151.494C114.365 151.941 113.552 152.164 112.54 152.164C111.551 152.164 110.774 151.847 110.209 151.214C109.644 150.576 109.361 149.68 109.361 148.527C109.361 147.438 109.669 146.552 110.284 145.868C110.904 145.18 111.672 144.836 112.588 144.836C113.504 144.836 114.213 145.132 114.714 145.725C115.215 146.317 115.466 147.14 115.466 148.192V148.78ZM114.317 147.83C114.313 147.183 114.156 146.679 113.846 146.319C113.54 145.959 113.114 145.779 112.567 145.779C112.039 145.779 111.59 145.968 111.221 146.347C110.852 146.725 110.624 147.219 110.537 147.83H114.317ZM122.281 145L119.93 148.541L122.24 152H120.935L119.561 149.73C119.474 149.589 119.371 149.411 119.253 149.197H119.226C119.203 149.238 119.096 149.416 118.904 149.73L117.503 152H116.211L118.597 148.568L116.313 145H117.619L118.973 147.393C119.073 147.57 119.171 147.753 119.267 147.939H119.294L121.044 145H122.281ZM126.841 151.932C126.576 152.077 126.228 152.15 125.795 152.15C124.569 152.15 123.956 151.467 123.956 150.1V145.957H122.753V145H123.956V143.291L125.077 142.929V145H126.841V145.957H125.077V149.901C125.077 150.371 125.157 150.706 125.316 150.906C125.476 151.107 125.74 151.207 126.109 151.207C126.392 151.207 126.636 151.13 126.841 150.975V151.932Z" fill="#707070"/>
<path d="M16 162H296V163H16V162Z" fill="#616161"/>
</g>
<path d="M20 474.5H193C194.933 474.5 196.5 476.067 196.5 478V506C196.5 507.933 194.933 509.5 193 509.5H20C18.067 509.5 16.5 507.933 16.5 506V478C16.5 476.067 18.067 474.5 20 474.5Z" fill="white"/>
<path d="M20 474.5H193C194.933 474.5 196.5 476.067 196.5 478V506C196.5 507.933 194.933 509.5 193 509.5H20C18.067 509.5 16.5 507.933 16.5 506V478C16.5 476.067 18.067 474.5 20 474.5Z" stroke="#D1D1D1"/>
<path d="M93.5459 496.59C92.8076 496.973 91.8893 497.164 90.791 497.164C89.3691 497.164 88.2298 496.715 87.373 495.817C86.5163 494.92 86.0879 493.742 86.0879 492.283C86.0879 490.715 86.5687 489.449 87.5303 488.482C88.4964 487.516 89.7155 487.033 91.1875 487.033C92.1354 487.033 92.9215 487.168 93.5459 487.437V489.05C92.8851 488.658 92.1559 488.462 91.3584 488.462C90.2965 488.462 89.4352 488.801 88.7744 489.48C88.1182 490.16 87.79 491.066 87.79 492.201C87.79 493.281 88.0977 494.143 88.7129 494.785C89.3281 495.423 90.137 495.742 91.1396 495.742C92.0648 495.742 92.8669 495.523 93.5459 495.086V496.59ZM100.601 497H99.0625V495.906H99.0352C98.5521 496.745 97.8434 497.164 96.9092 497.164C96.221 497.164 95.681 496.977 95.2891 496.604C94.9017 496.23 94.708 495.735 94.708 495.12C94.708 493.799 95.4691 493.028 96.9912 492.81L99.0693 492.516C99.0693 491.518 98.5954 491.019 97.6475 491.019C96.8135 491.019 96.0615 491.306 95.3916 491.88V490.492C96.1299 490.055 96.9821 489.836 97.9482 489.836C99.7165 489.836 100.601 490.706 100.601 492.447V497ZM99.0693 493.562L97.5996 493.767C97.1439 493.826 96.7998 493.938 96.5674 494.102C96.3395 494.261 96.2256 494.544 96.2256 494.949C96.2256 495.245 96.3304 495.489 96.54 495.681C96.7542 495.868 97.0391 495.961 97.3945 495.961C97.8776 495.961 98.2764 495.792 98.5908 495.455C98.9098 495.113 99.0693 494.685 99.0693 494.17V493.562ZM108.776 497H107.19V493.056C107.19 491.748 106.728 491.094 105.803 491.094C105.32 491.094 104.921 491.276 104.606 491.641C104.292 492.001 104.135 492.456 104.135 493.008V497H102.542V490H104.135V491.162H104.162C104.686 490.278 105.443 489.836 106.432 489.836C107.193 489.836 107.774 490.084 108.175 490.581C108.576 491.073 108.776 491.786 108.776 492.721V497ZM115.729 496.679C115.168 497.002 114.505 497.164 113.739 497.164C112.7 497.164 111.862 496.84 111.224 496.193C110.586 495.542 110.267 494.699 110.267 493.664C110.267 492.511 110.608 491.586 111.292 490.889C111.98 490.187 112.898 489.836 114.047 489.836C114.685 489.836 115.248 489.948 115.735 490.171V491.647C115.248 491.283 114.728 491.101 114.177 491.101C113.507 491.101 112.958 491.328 112.529 491.784C112.101 492.235 111.887 492.828 111.887 493.562C111.887 494.286 112.087 494.858 112.488 495.277C112.894 495.697 113.436 495.906 114.115 495.906C114.685 495.906 115.223 495.703 115.729 495.298V496.679ZM123.234 493.931H118.463C118.481 494.578 118.679 495.077 119.058 495.428C119.44 495.779 119.965 495.954 120.63 495.954C121.377 495.954 122.063 495.731 122.688 495.284V496.562C122.049 496.964 121.206 497.164 120.158 497.164C119.128 497.164 118.319 496.847 117.731 496.214C117.148 495.576 116.856 494.68 116.856 493.527C116.856 492.438 117.178 491.552 117.82 490.868C118.467 490.18 119.27 489.836 120.227 489.836C121.184 489.836 121.924 490.144 122.448 490.759C122.972 491.374 123.234 492.229 123.234 493.322V493.931ZM121.703 492.81C121.699 492.24 121.564 491.798 121.3 491.483C121.035 491.164 120.671 491.005 120.206 491.005C119.75 491.005 119.363 491.171 119.044 491.504C118.729 491.837 118.536 492.272 118.463 492.81H121.703ZM126.338 497H124.745V486.637H126.338V497Z" fill="black"/>
<path d="M205 478C205 475.791 206.791 474 209 474H382C384.209 474 386 475.791 386 478V506C386 508.209 384.209 510 382 510H209C206.791 510 205 508.209 205 506V478Z" fill="#464FEB"/>
<path d="M273.259 496.61V494.936C273.409 495.072 273.587 495.195 273.792 495.305C274.002 495.414 274.223 495.507 274.455 495.585C274.688 495.658 274.92 495.715 275.152 495.756C275.385 495.797 275.599 495.817 275.795 495.817C276.479 495.817 276.987 495.703 277.319 495.476C277.657 495.248 277.825 494.917 277.825 494.484C277.825 494.252 277.768 494.051 277.654 493.883C277.545 493.71 277.39 493.552 277.189 493.411C276.989 493.27 276.752 493.135 276.479 493.008C276.21 492.876 275.92 492.739 275.61 492.598C275.278 492.42 274.968 492.24 274.681 492.058C274.394 491.875 274.143 491.675 273.929 491.456C273.719 491.233 273.553 490.982 273.43 490.704C273.311 490.426 273.252 490.1 273.252 489.727C273.252 489.266 273.354 488.868 273.56 488.53C273.769 488.188 274.043 487.908 274.38 487.689C274.722 487.466 275.109 487.302 275.542 487.197C275.975 487.088 276.417 487.033 276.868 487.033C277.894 487.033 278.641 487.149 279.11 487.382V488.988C278.554 488.587 277.839 488.387 276.964 488.387C276.722 488.387 276.481 488.41 276.239 488.455C276.002 488.501 275.788 488.576 275.597 488.681C275.41 488.785 275.257 488.92 275.139 489.084C275.02 489.248 274.961 489.446 274.961 489.679C274.961 489.897 275.007 490.087 275.098 490.246C275.189 490.406 275.321 490.551 275.494 490.684C275.672 490.816 275.886 490.946 276.137 491.073C276.392 491.196 276.686 491.331 277.019 491.477C277.36 491.654 277.682 491.841 277.982 492.037C278.288 492.233 278.554 492.45 278.782 492.687C279.015 492.924 279.197 493.188 279.329 493.479C279.466 493.767 279.534 494.095 279.534 494.464C279.534 494.961 279.434 495.38 279.233 495.722C279.033 496.063 278.762 496.341 278.42 496.556C278.083 496.77 277.693 496.925 277.251 497.021C276.809 497.116 276.342 497.164 275.85 497.164C275.686 497.164 275.483 497.15 275.241 497.123C275.004 497.1 274.76 497.064 274.51 497.014C274.259 496.968 274.022 496.911 273.799 496.843C273.576 496.774 273.396 496.697 273.259 496.61ZM287.266 497H285.68V495.893H285.652C285.192 496.74 284.477 497.164 283.506 497.164C281.852 497.164 281.024 496.171 281.024 494.184V490H282.61V494.02C282.61 495.277 283.096 495.906 284.066 495.906C284.536 495.906 284.921 495.733 285.222 495.387C285.527 495.04 285.68 494.587 285.68 494.026V490H287.266V497ZM290.95 495.988H290.923V497H289.337V486.637H290.923V491.23H290.95C291.493 490.301 292.285 489.836 293.329 489.836C294.213 489.836 294.904 490.15 295.4 490.779C295.902 491.404 296.152 492.242 296.152 493.295C296.152 494.466 295.872 495.405 295.312 496.111C294.751 496.813 293.985 497.164 293.015 497.164C292.103 497.164 291.415 496.772 290.95 495.988ZM290.909 493.206V494.074C290.909 494.585 291.071 495.018 291.395 495.373C291.723 495.729 292.137 495.906 292.639 495.906C293.227 495.906 293.687 495.678 294.02 495.223C294.357 494.762 294.525 494.122 294.525 493.302C294.525 492.614 294.368 492.076 294.054 491.688C293.744 491.297 293.322 491.101 292.789 491.101C292.224 491.101 291.768 491.301 291.422 491.702C291.08 492.103 290.909 492.604 290.909 493.206ZM308.238 497H306.652V493.186C306.652 492.452 306.548 491.921 306.338 491.593C306.133 491.265 305.784 491.101 305.292 491.101C304.877 491.101 304.524 491.308 304.232 491.723C303.945 492.137 303.802 492.634 303.802 493.213V497H302.209V493.056C302.209 491.752 301.749 491.101 300.828 491.101C300.4 491.101 300.047 491.297 299.769 491.688C299.495 492.08 299.358 492.589 299.358 493.213V497H297.772V490H299.358V491.107H299.386C299.892 490.26 300.628 489.836 301.594 489.836C302.077 489.836 302.498 489.97 302.858 490.239C303.223 490.504 303.471 490.852 303.604 491.285C304.123 490.319 304.898 489.836 305.928 489.836C307.468 489.836 308.238 490.786 308.238 492.687V497ZM310.973 488.53C310.713 488.53 310.49 488.446 310.303 488.277C310.12 488.109 310.029 487.895 310.029 487.635C310.029 487.375 310.12 487.159 310.303 486.985C310.49 486.812 310.713 486.726 310.973 486.726C311.242 486.726 311.469 486.812 311.656 486.985C311.843 487.159 311.937 487.375 311.937 487.635C311.937 487.881 311.843 488.093 311.656 488.271C311.469 488.444 311.242 488.53 310.973 488.53ZM311.759 497H310.173V490H311.759V497ZM317.528 496.925C317.218 497.08 316.811 497.157 316.305 497.157C314.947 497.157 314.268 496.506 314.268 495.202V491.244H313.099V490H314.268V488.38L315.854 487.929V490H317.528V491.244H315.854V494.744C315.854 495.159 315.929 495.455 316.079 495.633C316.229 495.811 316.48 495.899 316.831 495.899C317.1 495.899 317.332 495.822 317.528 495.667V496.925Z" fill="white"/>
<defs>
<clipPath id="clip0_221_2625">
<path d="M16 135C16 132.791 17.7909 131 20 131H292C294.209 131 296 132.791 296 135V159C296 161.209 294.209 163 292 163H20C17.7909 163 16 161.209 16 159V135Z" fill="white"/>
</clipPath>
</defs>
</svg>
